<svg fill="none" height="29" viewBox="0 0 203 29" width="203" xmlns="http://www.w3.org/2000/svg"><path d="m.468 28 8.676-26.28h9.54l9 26.28h-6.12l-2.124-6.516h-10.98l-2.088 6.516zm9.54-11.412h7.812l-3.276-10.044h-1.332zm21.1042 11.412v-26.28h9.684l9.9 21.492h.504v-21.492h5.544v26.28h-9.756l-9.9-21.492h-.504v21.492zm37.7991 0v-9.972h-1.296l-7.668-16.308h6.048l5.364 11.88h1.152l4.824-11.88h5.724l-7.056 16.308h-1.296v9.972z" fill="#22cf7a"/><path d="m93.8661 28v-26.496h10.3319c3.288 0 5.892.744 7.812 2.232 1.92 1.464 2.88 3.66 2.88 6.588v.576c0 1.92-.444 3.528-1.332 4.824-.864 1.272-2.076 2.232-3.636 2.88l6.732 9.396h-6.84l-5.76-8.424h-4.2839v8.424zm10.7999-21.492h-4.8959v8.424h4.8959c1.272 0 2.292-.384 3.06-1.152.792-.768 1.188-1.788 1.188-3.06 0-1.248-.396-2.256-1.188-3.024-.768-.792-1.788-1.188-3.06-1.188zm27.781 22.176c-2.376 0-4.452-.408-6.228-1.224-1.752-.84-3.204-1.932-4.356-3.276-1.152-1.368-2.016-2.832-2.592-4.392-.552-1.584-.828-3.12-.828-4.608v-.792c0-1.632.288-3.24.864-4.824.6-1.584 1.488-3.024 2.664-4.32 1.176-1.32 2.64-2.364 4.392-3.132 1.752-.792 3.78-1.188001 6.084-1.188001s4.332.396001 6.084 1.188001c1.752.768 3.216 1.812 4.392 3.132 1.176 1.296 2.064 2.736 2.664 4.32s.9 3.192.9 4.824v.792c0 1.488-.288 3.024-.864 4.608-.576 1.56-1.44 3.024-2.592 4.392-1.152 1.344-2.616 2.436-4.392 3.276-1.752.816-3.816 1.224-6.192 1.224zm0-5.508c1.656 0 3.084-.372 4.284-1.116 1.224-.744 2.16-1.752 2.808-3.024s.972-2.676.972-4.212c0-1.632-.336-3.072-1.008-4.32-.648-1.272-1.572-2.268-2.772-2.988s-2.628-1.08-4.284-1.08-3.084.36-4.284 1.08-2.124 1.716-2.772 2.988c-.648 1.248-.972 2.688-.972 4.32 0 1.536.324 2.94.972 4.212s1.572 2.28 2.772 3.024 2.628 1.116 4.284 1.116zm14.939 4.824 8.676-26.28h9.54l9 26.28h-6.12l-2.124-6.516h-10.98l-2.088 6.516zm9.54-11.412h7.812l-3.276-10.044h-1.332zm21.104 11.556v-26.64h9.756c2.376 0 4.452.348 6.228 1.044s3.252 1.644 4.428 2.844c1.2 1.2 2.1 2.58 2.7 4.14.6 1.536.9 3.156.9 4.86v.792c0 1.608-.3 3.18-.9 4.716s-1.5 2.928-2.7 4.176c-1.176 1.248-2.652 2.244-4.428 2.988-1.776.72-3.852 1.08-6.228 1.08zm10.08-21.132h-4.176v15.624h4.176c2.472 0 4.416-.72 5.832-2.16s2.124-3.336 2.124-5.688c0-2.472-.708-4.38-2.124-5.724-1.416-1.368-3.36-2.052-5.832-2.052z" fill="#fff"/></svg>