<svg width="334" height="1136" viewBox="0 0 334 1136" fill="none" xmlns="http://www.w3.org/2000/svg">
<g clip-path="url(#clip0_165_3281)">
<path d="M18 768L22 772L18 776L14 772L18 768Z" fill="#22CF7A"/>
<path d="M42 768L46 772L42 776L38 772L42 768Z" fill="#22CF7A"/>
<path d="M66 768L70 772L66 776L62 772L66 768Z" fill="#22CF7A"/>
<path d="M90 768L94 772L90 776L86 772L90 768Z" fill="#22CF7A"/>
<path d="M114 768L118 772L114 776L110 772L114 768Z" fill="#22CF7A"/>
<path d="M138 768L142 772L138 776L134 772L138 768Z" fill="#22CF7A"/>
<path d="M162 768L166 772L162 776L158 772L162 768Z" fill="#22CF7A"/>
<path d="M186 768L190 772L186 776L182 772L186 768Z" fill="#22CF7A"/>
<path d="M210 768L214 772L210 776L206 772L210 768Z" fill="#22CF7A"/>
<path d="M234 768L238 772L234 776L230 772L234 768Z" fill="#22CF7A"/>
<path d="M258 768L262 772L258 776L254 772L258 768Z" fill="#22CF7A"/>
<path d="M282 768L286 772L282 776L278 772L282 768Z" fill="#22CF7A"/>
<path d="M306 768L310 772L306 776L302 772L306 768Z" fill="#22CF7A"/>
<path d="M330 768L334 772L330 776L326 772L330 768Z" fill="#22CF7A"/>
<path d="M18 792L22 796L18 800L14 796L18 792Z" fill="#22CF7A"/>
<path d="M42 792L46 796L42 800L38 796L42 792Z" fill="#22CF7A"/>
<path d="M66 792L70 796L66 800L62 796L66 792Z" fill="#22CF7A"/>
<path d="M90 792L94 796L90 800L86 796L90 792Z" fill="#22CF7A"/>
<path d="M114 792L118 796L114 800L110 796L114 792Z" fill="#22CF7A"/>
<path d="M138 792L142 796L138 800L134 796L138 792Z" fill="#22CF7A"/>
<path d="M162 792L166 796L162 800L158 796L162 792Z" fill="#22CF7A"/>
<path d="M186 792L190 796L186 800L182 796L186 792Z" fill="#22CF7A"/>
<path d="M210 792L214 796L210 800L206 796L210 792Z" fill="#22CF7A"/>
<path d="M234 792L238 796L234 800L230 796L234 792Z" fill="#22CF7A"/>
<path d="M258 792L262 796L258 800L254 796L258 792Z" fill="#22CF7A"/>
<path d="M282 792L286 796L282 800L278 796L282 792Z" fill="#22CF7A"/>
<path d="M306 792L310 796L306 800L302 796L306 792Z" fill="#22CF7A"/>
<path d="M330 792L334 796L330 800L326 796L330 792Z" fill="#22CF7A"/>
<path d="M18 816L22 820L18 824L14 820L18 816Z" fill="#22CF7A"/>
<path d="M42 816L46 820L42 824L38 820L42 816Z" fill="#22CF7A"/>
<path d="M66 816L70 820L66 824L62 820L66 816Z" fill="#22CF7A"/>
<path d="M90 816L94 820L90 824L86 820L90 816Z" fill="#22CF7A"/>
<path d="M114 816L118 820L114 824L110 820L114 816Z" fill="#22CF7A"/>
<path d="M138 816L142 820L138 824L134 820L138 816Z" fill="#22CF7A"/>
<path d="M162 816L166 820L162 824L158 820L162 816Z" fill="#22CF7A"/>
<path d="M186 816L190 820L186 824L182 820L186 816Z" fill="#22CF7A"/>
<path d="M210 816L214 820L210 824L206 820L210 816Z" fill="#22CF7A"/>
<path d="M234 816L238 820L234 824L230 820L234 816Z" fill="#22CF7A"/>
<path d="M258 816L262 820L258 824L254 820L258 816Z" fill="#22CF7A"/>
<path d="M282 816L286 820L282 824L278 820L282 816Z" fill="#22CF7A"/>
<path d="M306 816L310 820L306 824L302 820L306 816Z" fill="#22CF7A"/>
<path d="M330 816L334 820L330 824L326 820L330 816Z" fill="#22CF7A"/>
<path d="M18 840L22 844L18 848L14 844L18 840Z" fill="#22CF7A"/>
<path d="M42 840L46 844L42 848L38 844L42 840Z" fill="#22CF7A"/>
<path d="M66 840L70 844L66 848L62 844L66 840Z" fill="#22CF7A"/>
<path d="M90 840L94 844L90 848L86 844L90 840Z" fill="#22CF7A"/>
<path d="M114 840L118 844L114 848L110 844L114 840Z" fill="#22CF7A"/>
<path d="M138 840L142 844L138 848L134 844L138 840Z" fill="#22CF7A"/>
<path d="M162 840L166 844L162 848L158 844L162 840Z" fill="#22CF7A"/>
<path d="M186 840L190 844L186 848L182 844L186 840Z" fill="#22CF7A"/>
<path d="M210 840L214 844L210 848L206 844L210 840Z" fill="#22CF7A"/>
<path d="M234 840L238 844L234 848L230 844L234 840Z" fill="#22CF7A"/>
<path d="M258 840L262 844L258 848L254 844L258 840Z" fill="#22CF7A"/>
<path d="M282 840L286 844L282 848L278 844L282 840Z" fill="#22CF7A"/>
<path d="M306 840L310 844L306 848L302 844L306 840Z" fill="#22CF7A"/>
<path d="M330 840L334 844L330 848L326 844L330 840Z" fill="#22CF7A"/>
<path d="M18 864L22 868L18 872L14 868L18 864Z" fill="#22CF7A"/>
<path d="M42 864L46 868L42 872L38 868L42 864Z" fill="#22CF7A"/>
<path d="M66 864L70 868L66 872L62 868L66 864Z" fill="#22CF7A"/>
<path d="M90 864L94 868L90 872L86 868L90 864Z" fill="#22CF7A"/>
<path d="M114 864L118 868L114 872L110 868L114 864Z" fill="#22CF7A"/>
<path d="M138 864L142 868L138 872L134 868L138 864Z" fill="#22CF7A"/>
<path d="M162 864L166 868L162 872L158 868L162 864Z" fill="#22CF7A"/>
<path d="M186 864L190 868L186 872L182 868L186 864Z" fill="#22CF7A"/>
<path d="M210 864L214 868L210 872L206 868L210 864Z" fill="#22CF7A"/>
<path d="M234 864L238 868L234 872L230 868L234 864Z" fill="#22CF7A"/>
<path d="M258 864L262 868L258 872L254 868L258 864Z" fill="#22CF7A"/>
<path d="M282 864L286 868L282 872L278 868L282 864Z" fill="#22CF7A"/>
<path d="M306 864L310 868L306 872L302 868L306 864Z" fill="#22CF7A"/>
<path d="M330 864L334 868L330 872L326 868L330 864Z" fill="#22CF7A"/>
<path d="M18 888L22 892L18 896L14 892L18 888Z" fill="#22CF7A"/>
<path d="M42 888L46 892L42 896L38 892L42 888Z" fill="#22CF7A"/>
<path d="M66 888L70 892L66 896L62 892L66 888Z" fill="#22CF7A"/>
<path d="M90 888L94 892L90 896L86 892L90 888Z" fill="#22CF7A"/>
<path d="M114 888L118 892L114 896L110 892L114 888Z" fill="#22CF7A"/>
<path d="M138 888L142 892L138 896L134 892L138 888Z" fill="#22CF7A"/>
<path d="M162 888L166 892L162 896L158 892L162 888Z" fill="#22CF7A"/>
<path d="M186 888L190 892L186 896L182 892L186 888Z" fill="#22CF7A"/>
<path d="M210 888L214 892L210 896L206 892L210 888Z" fill="#22CF7A"/>
<path d="M234 888L238 892L234 896L230 892L234 888Z" fill="#22CF7A"/>
<path d="M258 888L262 892L258 896L254 892L258 888Z" fill="#22CF7A"/>
<path d="M282 888L286 892L282 896L278 892L282 888Z" fill="#22CF7A"/>
<path d="M306 888L310 892L306 896L302 892L306 888Z" fill="#22CF7A"/>
<path d="M330 888L334 892L330 896L326 892L330 888Z" fill="#22CF7A"/>
<path d="M18 912L22 916L18 920L14 916L18 912Z" fill="#22CF7A"/>
<path d="M42 912L46 916L42 920L38 916L42 912Z" fill="#22CF7A"/>
<path d="M66 912L70 916L66 920L62 916L66 912Z" fill="#22CF7A"/>
<path d="M90 912L94 916L90 920L86 916L90 912Z" fill="#22CF7A"/>
<path d="M114 912L118 916L114 920L110 916L114 912Z" fill="#22CF7A"/>
<path d="M138 912L142 916L138 920L134 916L138 912Z" fill="#22CF7A"/>
<path d="M162 912L166 916L162 920L158 916L162 912Z" fill="#22CF7A"/>
<path d="M186 912L190 916L186 920L182 916L186 912Z" fill="#22CF7A"/>
<path d="M210 912L214 916L210 920L206 916L210 912Z" fill="#22CF7A"/>
<path d="M234 912L238 916L234 920L230 916L234 912Z" fill="#22CF7A"/>
<path d="M258 912L262 916L258 920L254 916L258 912Z" fill="#22CF7A"/>
<path d="M282 912L286 916L282 920L278 916L282 912Z" fill="#22CF7A"/>
<path d="M306 912L310 916L306 920L302 916L306 912Z" fill="#22CF7A"/>
<path d="M330 912L334 916L330 920L326 916L330 912Z" fill="#22CF7A"/>
<path d="M18 936L22 940L18 944L14 940L18 936Z" fill="#22CF7A"/>
<path d="M42 936L46 940L42 944L38 940L42 936Z" fill="#22CF7A"/>
<path d="M66 936L70 940L66 944L62 940L66 936Z" fill="#22CF7A"/>
<path d="M90 936L94 940L90 944L86 940L90 936Z" fill="#22CF7A"/>
<path d="M114 936L118 940L114 944L110 940L114 936Z" fill="#22CF7A"/>
<path d="M138 936L142 940L138 944L134 940L138 936Z" fill="#22CF7A"/>
<path d="M162 936L166 940L162 944L158 940L162 936Z" fill="#22CF7A"/>
<path d="M186 936L190 940L186 944L182 940L186 936Z" fill="#22CF7A"/>
<path d="M210 936L214 940L210 944L206 940L210 936Z" fill="#22CF7A"/>
<path d="M234 936L238 940L234 944L230 940L234 936Z" fill="#22CF7A"/>
<path d="M258 936L262 940L258 944L254 940L258 936Z" fill="#22CF7A"/>
<path d="M282 936L286 940L282 944L278 940L282 936Z" fill="#22CF7A"/>
<path d="M306 936L310 940L306 944L302 940L306 936Z" fill="#22CF7A"/>
<path d="M330 936L334 940L330 944L326 940L330 936Z" fill="#22CF7A"/>
<path d="M18 960L22 964L18 968L14 964L18 960Z" fill="#22CF7A"/>
<path d="M42 960L46 964L42 968L38 964L42 960Z" fill="#22CF7A"/>
<path d="M66 960L70 964L66 968L62 964L66 960Z" fill="#22CF7A"/>
<path d="M90 960L94 964L90 968L86 964L90 960Z" fill="#22CF7A"/>
<path d="M114 960L118 964L114 968L110 964L114 960Z" fill="#22CF7A"/>
<path d="M138 960L142 964L138 968L134 964L138 960Z" fill="#22CF7A"/>
<path d="M162 960L166 964L162 968L158 964L162 960Z" fill="#22CF7A"/>
<path d="M186 960L190 964L186 968L182 964L186 960Z" fill="#22CF7A"/>
<path d="M210 960L214 964L210 968L206 964L210 960Z" fill="#22CF7A"/>
<path d="M234 960L238 964L234 968L230 964L234 960Z" fill="#22CF7A"/>
<path d="M258 960L262 964L258 968L254 964L258 960Z" fill="#22CF7A"/>
<path d="M282 960L286 964L282 968L278 964L282 960Z" fill="#22CF7A"/>
<path d="M306 960L310 964L306 968L302 964L306 960Z" fill="#22CF7A"/>
<path d="M330 960L334 964L330 968L326 964L330 960Z" fill="#22CF7A"/>
<path d="M18 984L22 988L18 992L14 988L18 984Z" fill="#22CF7A"/>
<path d="M42 984L46 988L42 992L38 988L42 984Z" fill="#22CF7A"/>
<path d="M66 984L70 988L66 992L62 988L66 984Z" fill="#22CF7A"/>
<path d="M90 984L94 988L90 992L86 988L90 984Z" fill="#22CF7A"/>
<path d="M114 984L118 988L114 992L110 988L114 984Z" fill="#22CF7A"/>
<path d="M138 984L142 988L138 992L134 988L138 984Z" fill="#22CF7A"/>
<path d="M162 984L166 988L162 992L158 988L162 984Z" fill="#22CF7A"/>
<path d="M186 984L190 988L186 992L182 988L186 984Z" fill="#22CF7A"/>
<path d="M210 984L214 988L210 992L206 988L210 984Z" fill="#22CF7A"/>
<path d="M234 984L238 988L234 992L230 988L234 984Z" fill="#22CF7A"/>
<path d="M258 984L262 988L258 992L254 988L258 984Z" fill="#22CF7A"/>
<path d="M282 984L286 988L282 992L278 988L282 984Z" fill="#22CF7A"/>
<path d="M306 984L310 988L306 992L302 988L306 984Z" fill="#22CF7A"/>
<path d="M330 984L334 988L330 992L326 988L330 984Z" fill="#22CF7A"/>
<path d="M18 1008L22 1012L18 1016L14 1012L18 1008Z" fill="#22CF7A"/>
<path d="M42 1008L46 1012L42 1016L38 1012L42 1008Z" fill="#22CF7A"/>
<path d="M66 1008L70 1012L66 1016L62 1012L66 1008Z" fill="#22CF7A"/>
<path d="M90 1008L94 1012L90 1016L86 1012L90 1008Z" fill="#22CF7A"/>
<path d="M114 1008L118 1012L114 1016L110 1012L114 1008Z" fill="#22CF7A"/>
<path d="M138 1008L142 1012L138 1016L134 1012L138 1008Z" fill="#22CF7A"/>
<path d="M162 1008L166 1012L162 1016L158 1012L162 1008Z" fill="#22CF7A"/>
<path d="M186 1008L190 1012L186 1016L182 1012L186 1008Z" fill="#22CF7A"/>
<path d="M210 1008L214 1012L210 1016L206 1012L210 1008Z" fill="#22CF7A"/>
<path d="M234 1008L238 1012L234 1016L230 1012L234 1008Z" fill="#22CF7A"/>
<path d="M258 1008L262 1012L258 1016L254 1012L258 1008Z" fill="#22CF7A"/>
<path d="M282 1008L286 1012L282 1016L278 1012L282 1008Z" fill="#22CF7A"/>
<path d="M306 1008L310 1012L306 1016L302 1012L306 1008Z" fill="#22CF7A"/>
<path d="M330 1008L334 1012L330 1016L326 1012L330 1008Z" fill="#22CF7A"/>
<path d="M18 1032L22 1036L18 1040L14 1036L18 1032Z" fill="#22CF7A"/>
<path d="M42 1032L46 1036L42 1040L38 1036L42 1032Z" fill="#22CF7A"/>
<path d="M66 1032L70 1036L66 1040L62 1036L66 1032Z" fill="#22CF7A"/>
<path d="M90 1032L94 1036L90 1040L86 1036L90 1032Z" fill="#22CF7A"/>
<path d="M114 1032L118 1036L114 1040L110 1036L114 1032Z" fill="#22CF7A"/>
<path d="M138 1032L142 1036L138 1040L134 1036L138 1032Z" fill="#22CF7A"/>
<path d="M162 1032L166 1036L162 1040L158 1036L162 1032Z" fill="#22CF7A"/>
<path d="M186 1032L190 1036L186 1040L182 1036L186 1032Z" fill="#22CF7A"/>
<path d="M210 1032L214 1036L210 1040L206 1036L210 1032Z" fill="#22CF7A"/>
<path d="M234 1032L238 1036L234 1040L230 1036L234 1032Z" fill="#22CF7A"/>
<path d="M258 1032L262 1036L258 1040L254 1036L258 1032Z" fill="#22CF7A"/>
<path d="M282 1032L286 1036L282 1040L278 1036L282 1032Z" fill="#22CF7A"/>
<path d="M306 1032L310 1036L306 1040L302 1036L306 1032Z" fill="#22CF7A"/>
<path d="M330 1032L334 1036L330 1040L326 1036L330 1032Z" fill="#22CF7A"/>
<path d="M18 1056L22 1060L18 1064L14 1060L18 1056Z" fill="#22CF7A"/>
<path d="M42 1056L46 1060L42 1064L38 1060L42 1056Z" fill="#22CF7A"/>
<path d="M66 1056L70 1060L66 1064L62 1060L66 1056Z" fill="#22CF7A"/>
<path d="M90 1056L94 1060L90 1064L86 1060L90 1056Z" fill="#22CF7A"/>
<path d="M114 1056L118 1060L114 1064L110 1060L114 1056Z" fill="#22CF7A"/>
<path d="M138 1056L142 1060L138 1064L134 1060L138 1056Z" fill="#22CF7A"/>
<path d="M162 1056L166 1060L162 1064L158 1060L162 1056Z" fill="#22CF7A"/>
<path d="M186 1056L190 1060L186 1064L182 1060L186 1056Z" fill="#22CF7A"/>
<path d="M210 1056L214 1060L210 1064L206 1060L210 1056Z" fill="#22CF7A"/>
<path d="M234 1056L238 1060L234 1064L230 1060L234 1056Z" fill="#22CF7A"/>
<path d="M258 1056L262 1060L258 1064L254 1060L258 1056Z" fill="#22CF7A"/>
<path d="M282 1056L286 1060L282 1064L278 1060L282 1056Z" fill="#22CF7A"/>
<path d="M306 1056L310 1060L306 1064L302 1060L306 1056Z" fill="#22CF7A"/>
<path d="M330 1056L334 1060L330 1064L326 1060L330 1056Z" fill="#22CF7A"/>
<path d="M18 1080L22 1084L18 1088L14 1084L18 1080Z" fill="#22CF7A"/>
<path d="M42 1080L46 1084L42 1088L38 1084L42 1080Z" fill="#22CF7A"/>
<path d="M66 1080L70 1084L66 1088L62 1084L66 1080Z" fill="#22CF7A"/>
<path d="M90 1080L94 1084L90 1088L86 1084L90 1080Z" fill="#22CF7A"/>
<path d="M114 1080L118 1084L114 1088L110 1084L114 1080Z" fill="#22CF7A"/>
<path d="M138 1080L142 1084L138 1088L134 1084L138 1080Z" fill="#22CF7A"/>
<path d="M162 1080L166 1084L162 1088L158 1084L162 1080Z" fill="#22CF7A"/>
<path d="M186 1080L190 1084L186 1088L182 1084L186 1080Z" fill="#22CF7A"/>
<path d="M210 1080L214 1084L210 1088L206 1084L210 1080Z" fill="#22CF7A"/>
<path d="M234 1080L238 1084L234 1088L230 1084L234 1080Z" fill="#22CF7A"/>
<path d="M258 1080L262 1084L258 1088L254 1084L258 1080Z" fill="#22CF7A"/>
<path d="M282 1080L286 1084L282 1088L278 1084L282 1080Z" fill="#22CF7A"/>
<path d="M306 1080L310 1084L306 1088L302 1084L306 1080Z" fill="#22CF7A"/>
<path d="M330 1080L334 1084L330 1088L326 1084L330 1080Z" fill="#22CF7A"/>
<path d="M18 1104L22 1108L18 1112L14 1108L18 1104Z" fill="#22CF7A"/>
<path d="M42 1104L46 1108L42 1112L38 1108L42 1104Z" fill="#22CF7A"/>
<path d="M66 1104L70 1108L66 1112L62 1108L66 1104Z" fill="#22CF7A"/>
<path d="M90 1104L94 1108L90 1112L86 1108L90 1104Z" fill="#22CF7A"/>
<path d="M114 1104L118 1108L114 1112L110 1108L114 1104Z" fill="#22CF7A"/>
<path d="M138 1104L142 1108L138 1112L134 1108L138 1104Z" fill="#22CF7A"/>
<path d="M162 1104L166 1108L162 1112L158 1108L162 1104Z" fill="#22CF7A"/>
<path d="M186 1104L190 1108L186 1112L182 1108L186 1104Z" fill="#22CF7A"/>
<path d="M210 1104L214 1108L210 1112L206 1108L210 1104Z" fill="#22CF7A"/>
<path d="M234 1104L238 1108L234 1112L230 1108L234 1104Z" fill="#22CF7A"/>
<path d="M258 1104L262 1108L258 1112L254 1108L258 1104Z" fill="#22CF7A"/>
<path d="M282 1104L286 1108L282 1112L278 1108L282 1104Z" fill="#22CF7A"/>
<path d="M306 1104L310 1108L306 1112L302 1108L306 1104Z" fill="#22CF7A"/>
<path d="M330 1104L334 1108L330 1112L326 1108L330 1104Z" fill="#22CF7A"/>
<path d="M18 1128L22 1132L18 1136L14 1132L18 1128Z" fill="#22CF7A"/>
<path d="M42 1128L46 1132L42 1136L38 1132L42 1128Z" fill="#22CF7A"/>
<path d="M66 1128L70 1132L66 1136L62 1132L66 1128Z" fill="#22CF7A"/>
<path d="M90 1128L94 1132L90 1136L86 1132L90 1128Z" fill="#22CF7A"/>
<path d="M114 1128L118 1132L114 1136L110 1132L114 1128Z" fill="#22CF7A"/>
<path d="M138 1128L142 1132L138 1136L134 1132L138 1128Z" fill="#22CF7A"/>
<path d="M162 1128L166 1132L162 1136L158 1132L162 1128Z" fill="#22CF7A"/>
<path d="M186 1128L190 1132L186 1136L182 1132L186 1128Z" fill="#22CF7A"/>
<path d="M210 1128L214 1132L210 1136L206 1132L210 1128Z" fill="#22CF7A"/>
<path d="M234 1128L238 1132L234 1136L230 1132L234 1128Z" fill="#22CF7A"/>
<path d="M258 1128L262 1132L258 1136L254 1132L258 1128Z" fill="#22CF7A"/>
<path d="M282 1128L286 1132L282 1136L278 1132L282 1128Z" fill="#22CF7A"/>
<path d="M306 1128L310 1132L306 1136L302 1132L306 1128Z" fill="#22CF7A"/>
<path d="M330 1128L334 1132L330 1136L326 1132L330 1128Z" fill="#22CF7A"/>
<path d="M18 384L22 388L18 392L14 388L18 384Z" fill="#22CF7A"/>
<path d="M42 384L46 388L42 392L38 388L42 384Z" fill="#22CF7A"/>
<path d="M66 384L70 388L66 392L62 388L66 384Z" fill="#22CF7A"/>
<path d="M90 384L94 388L90 392L86 388L90 384Z" fill="#22CF7A"/>
<path d="M114 384L118 388L114 392L110 388L114 384Z" fill="#22CF7A"/>
<path d="M138 384L142 388L138 392L134 388L138 384Z" fill="#22CF7A"/>
<path d="M162 384L166 388L162 392L158 388L162 384Z" fill="#22CF7A"/>
<path d="M186 384L190 388L186 392L182 388L186 384Z" fill="#22CF7A"/>
<path d="M210 384L214 388L210 392L206 388L210 384Z" fill="#22CF7A"/>
<path d="M234 384L238 388L234 392L230 388L234 384Z" fill="#22CF7A"/>
<path d="M258 384L262 388L258 392L254 388L258 384Z" fill="#22CF7A"/>
<path d="M282 384L286 388L282 392L278 388L282 384Z" fill="#22CF7A"/>
<path d="M306 384L310 388L306 392L302 388L306 384Z" fill="#22CF7A"/>
<path d="M330 384L334 388L330 392L326 388L330 384Z" fill="#22CF7A"/>
<path d="M18 408L22 412L18 416L14 412L18 408Z" fill="#22CF7A"/>
<path d="M42 408L46 412L42 416L38 412L42 408Z" fill="#22CF7A"/>
<path d="M66 408L70 412L66 416L62 412L66 408Z" fill="#22CF7A"/>
<path d="M90 408L94 412L90 416L86 412L90 408Z" fill="#22CF7A"/>
<path d="M114 408L118 412L114 416L110 412L114 408Z" fill="#22CF7A"/>
<path d="M138 408L142 412L138 416L134 412L138 408Z" fill="#22CF7A"/>
<path d="M162 408L166 412L162 416L158 412L162 408Z" fill="#22CF7A"/>
<path d="M186 408L190 412L186 416L182 412L186 408Z" fill="#22CF7A"/>
<path d="M210 408L214 412L210 416L206 412L210 408Z" fill="#22CF7A"/>
<path d="M234 408L238 412L234 416L230 412L234 408Z" fill="#22CF7A"/>
<path d="M258 408L262 412L258 416L254 412L258 408Z" fill="#22CF7A"/>
<path d="M282 408L286 412L282 416L278 412L282 408Z" fill="#22CF7A"/>
<path d="M306 408L310 412L306 416L302 412L306 408Z" fill="#22CF7A"/>
<path d="M330 408L334 412L330 416L326 412L330 408Z" fill="#22CF7A"/>
<path d="M18 432L22 436L18 440L14 436L18 432Z" fill="#22CF7A"/>
<path d="M42 432L46 436L42 440L38 436L42 432Z" fill="#22CF7A"/>
<path d="M66 432L70 436L66 440L62 436L66 432Z" fill="#22CF7A"/>
<path d="M90 432L94 436L90 440L86 436L90 432Z" fill="#22CF7A"/>
<path d="M114 432L118 436L114 440L110 436L114 432Z" fill="#22CF7A"/>
<path d="M138 432L142 436L138 440L134 436L138 432Z" fill="#22CF7A"/>
<path d="M162 432L166 436L162 440L158 436L162 432Z" fill="#22CF7A"/>
<path d="M186 432L190 436L186 440L182 436L186 432Z" fill="#22CF7A"/>
<path d="M210 432L214 436L210 440L206 436L210 432Z" fill="#22CF7A"/>
<path d="M234 432L238 436L234 440L230 436L234 432Z" fill="#22CF7A"/>
<path d="M258 432L262 436L258 440L254 436L258 432Z" fill="#22CF7A"/>
<path d="M282 432L286 436L282 440L278 436L282 432Z" fill="#22CF7A"/>
<path d="M306 432L310 436L306 440L302 436L306 432Z" fill="#22CF7A"/>
<path d="M330 432L334 436L330 440L326 436L330 432Z" fill="#22CF7A"/>
<path d="M18 456L22 460L18 464L14 460L18 456Z" fill="#22CF7A"/>
<path d="M42 456L46 460L42 464L38 460L42 456Z" fill="#22CF7A"/>
<path d="M66 456L70 460L66 464L62 460L66 456Z" fill="#22CF7A"/>
<path d="M90 456L94 460L90 464L86 460L90 456Z" fill="#22CF7A"/>
<path d="M114 456L118 460L114 464L110 460L114 456Z" fill="#22CF7A"/>
<path d="M138 456L142 460L138 464L134 460L138 456Z" fill="#22CF7A"/>
<path d="M162 456L166 460L162 464L158 460L162 456Z" fill="#22CF7A"/>
<path d="M186 456L190 460L186 464L182 460L186 456Z" fill="#22CF7A"/>
<path d="M210 456L214 460L210 464L206 460L210 456Z" fill="#22CF7A"/>
<path d="M234 456L238 460L234 464L230 460L234 456Z" fill="#22CF7A"/>
<path d="M258 456L262 460L258 464L254 460L258 456Z" fill="#22CF7A"/>
<path d="M282 456L286 460L282 464L278 460L282 456Z" fill="#22CF7A"/>
<path d="M306 456L310 460L306 464L302 460L306 456Z" fill="#22CF7A"/>
<path d="M330 456L334 460L330 464L326 460L330 456Z" fill="#22CF7A"/>
<path d="M18 480L22 484L18 488L14 484L18 480Z" fill="#22CF7A"/>
<path d="M42 480L46 484L42 488L38 484L42 480Z" fill="#22CF7A"/>
<path d="M66 480L70 484L66 488L62 484L66 480Z" fill="#22CF7A"/>
<path d="M90 480L94 484L90 488L86 484L90 480Z" fill="#22CF7A"/>
<path d="M114 480L118 484L114 488L110 484L114 480Z" fill="#22CF7A"/>
<path d="M138 480L142 484L138 488L134 484L138 480Z" fill="#22CF7A"/>
<path d="M162 480L166 484L162 488L158 484L162 480Z" fill="#22CF7A"/>
<path d="M186 480L190 484L186 488L182 484L186 480Z" fill="#22CF7A"/>
<path d="M210 480L214 484L210 488L206 484L210 480Z" fill="#22CF7A"/>
<path d="M234 480L238 484L234 488L230 484L234 480Z" fill="#22CF7A"/>
<path d="M258 480L262 484L258 488L254 484L258 480Z" fill="#22CF7A"/>
<path d="M282 480L286 484L282 488L278 484L282 480Z" fill="#22CF7A"/>
<path d="M306 480L310 484L306 488L302 484L306 480Z" fill="#22CF7A"/>
<path d="M330 480L334 484L330 488L326 484L330 480Z" fill="#22CF7A"/>
<path d="M18 504L22 508L18 512L14 508L18 504Z" fill="#22CF7A"/>
<path d="M42 504L46 508L42 512L38 508L42 504Z" fill="#22CF7A"/>
<path d="M66 504L70 508L66 512L62 508L66 504Z" fill="#22CF7A"/>
<path d="M90 504L94 508L90 512L86 508L90 504Z" fill="#22CF7A"/>
<path d="M114 504L118 508L114 512L110 508L114 504Z" fill="#22CF7A"/>
<path d="M138 504L142 508L138 512L134 508L138 504Z" fill="#22CF7A"/>
<path d="M162 504L166 508L162 512L158 508L162 504Z" fill="#22CF7A"/>
<path d="M186 504L190 508L186 512L182 508L186 504Z" fill="#22CF7A"/>
<path d="M210 504L214 508L210 512L206 508L210 504Z" fill="#22CF7A"/>
<path d="M234 504L238 508L234 512L230 508L234 504Z" fill="#22CF7A"/>
<path d="M258 504L262 508L258 512L254 508L258 504Z" fill="#22CF7A"/>
<path d="M282 504L286 508L282 512L278 508L282 504Z" fill="#22CF7A"/>
<path d="M306 504L310 508L306 512L302 508L306 504Z" fill="#22CF7A"/>
<path d="M330 504L334 508L330 512L326 508L330 504Z" fill="#22CF7A"/>
<path d="M18 528L22 532L18 536L14 532L18 528Z" fill="#22CF7A"/>
<path d="M42 528L46 532L42 536L38 532L42 528Z" fill="#22CF7A"/>
<path d="M66 528L70 532L66 536L62 532L66 528Z" fill="#22CF7A"/>
<path d="M90 528L94 532L90 536L86 532L90 528Z" fill="#22CF7A"/>
<path d="M114 528L118 532L114 536L110 532L114 528Z" fill="#22CF7A"/>
<path d="M138 528L142 532L138 536L134 532L138 528Z" fill="#22CF7A"/>
<path d="M162 528L166 532L162 536L158 532L162 528Z" fill="#22CF7A"/>
<path d="M186 528L190 532L186 536L182 532L186 528Z" fill="#22CF7A"/>
<path d="M210 528L214 532L210 536L206 532L210 528Z" fill="#22CF7A"/>
<path d="M234 528L238 532L234 536L230 532L234 528Z" fill="#22CF7A"/>
<path d="M258 528L262 532L258 536L254 532L258 528Z" fill="#22CF7A"/>
<path d="M282 528L286 532L282 536L278 532L282 528Z" fill="#22CF7A"/>
<path d="M306 528L310 532L306 536L302 532L306 528Z" fill="#22CF7A"/>
<path d="M330 528L334 532L330 536L326 532L330 528Z" fill="#22CF7A"/>
<path d="M18 552L22 556L18 560L14 556L18 552Z" fill="#22CF7A"/>
<path d="M42 552L46 556L42 560L38 556L42 552Z" fill="#22CF7A"/>
<path d="M66 552L70 556L66 560L62 556L66 552Z" fill="#22CF7A"/>
<path d="M90 552L94 556L90 560L86 556L90 552Z" fill="#22CF7A"/>
<path d="M114 552L118 556L114 560L110 556L114 552Z" fill="#22CF7A"/>
<path d="M138 552L142 556L138 560L134 556L138 552Z" fill="#22CF7A"/>
<path d="M162 552L166 556L162 560L158 556L162 552Z" fill="#22CF7A"/>
<path d="M186 552L190 556L186 560L182 556L186 552Z" fill="#22CF7A"/>
<path d="M210 552L214 556L210 560L206 556L210 552Z" fill="#22CF7A"/>
<path d="M234 552L238 556L234 560L230 556L234 552Z" fill="#22CF7A"/>
<path d="M258 552L262 556L258 560L254 556L258 552Z" fill="#22CF7A"/>
<path d="M282 552L286 556L282 560L278 556L282 552Z" fill="#22CF7A"/>
<path d="M306 552L310 556L306 560L302 556L306 552Z" fill="#22CF7A"/>
<path d="M330 552L334 556L330 560L326 556L330 552Z" fill="#22CF7A"/>
<path d="M18 576L22 580L18 584L14 580L18 576Z" fill="#22CF7A"/>
<path d="M42 576L46 580L42 584L38 580L42 576Z" fill="#22CF7A"/>
<path d="M66 576L70 580L66 584L62 580L66 576Z" fill="#22CF7A"/>
<path d="M90 576L94 580L90 584L86 580L90 576Z" fill="#22CF7A"/>
<path d="M114 576L118 580L114 584L110 580L114 576Z" fill="#22CF7A"/>
<path d="M138 576L142 580L138 584L134 580L138 576Z" fill="#22CF7A"/>
<path d="M162 576L166 580L162 584L158 580L162 576Z" fill="#22CF7A"/>
<path d="M186 576L190 580L186 584L182 580L186 576Z" fill="#22CF7A"/>
<path d="M210 576L214 580L210 584L206 580L210 576Z" fill="#22CF7A"/>
<path d="M234 576L238 580L234 584L230 580L234 576Z" fill="#22CF7A"/>
<path d="M258 576L262 580L258 584L254 580L258 576Z" fill="#22CF7A"/>
<path d="M282 576L286 580L282 584L278 580L282 576Z" fill="#22CF7A"/>
<path d="M306 576L310 580L306 584L302 580L306 576Z" fill="#22CF7A"/>
<path d="M330 576L334 580L330 584L326 580L330 576Z" fill="#22CF7A"/>
<path d="M18 600L22 604L18 608L14 604L18 600Z" fill="#22CF7A"/>
<path d="M42 600L46 604L42 608L38 604L42 600Z" fill="#22CF7A"/>
<path d="M66 600L70 604L66 608L62 604L66 600Z" fill="#22CF7A"/>
<path d="M90 600L94 604L90 608L86 604L90 600Z" fill="#22CF7A"/>
<path d="M114 600L118 604L114 608L110 604L114 600Z" fill="#22CF7A"/>
<path d="M138 600L142 604L138 608L134 604L138 600Z" fill="#22CF7A"/>
<path d="M162 600L166 604L162 608L158 604L162 600Z" fill="#22CF7A"/>
<path d="M186 600L190 604L186 608L182 604L186 600Z" fill="#22CF7A"/>
<path d="M210 600L214 604L210 608L206 604L210 600Z" fill="#22CF7A"/>
<path d="M234 600L238 604L234 608L230 604L234 600Z" fill="#22CF7A"/>
<path d="M258 600L262 604L258 608L254 604L258 600Z" fill="#22CF7A"/>
<path d="M282 600L286 604L282 608L278 604L282 600Z" fill="#22CF7A"/>
<path d="M306 600L310 604L306 608L302 604L306 600Z" fill="#22CF7A"/>
<path d="M330 600L334 604L330 608L326 604L330 600Z" fill="#22CF7A"/>
<path d="M18 624L22 628L18 632L14 628L18 624Z" fill="#22CF7A"/>
<path d="M42 624L46 628L42 632L38 628L42 624Z" fill="#22CF7A"/>
<path d="M66 624L70 628L66 632L62 628L66 624Z" fill="#22CF7A"/>
<path d="M90 624L94 628L90 632L86 628L90 624Z" fill="#22CF7A"/>
<path d="M114 624L118 628L114 632L110 628L114 624Z" fill="#22CF7A"/>
<path d="M138 624L142 628L138 632L134 628L138 624Z" fill="#22CF7A"/>
<path d="M162 624L166 628L162 632L158 628L162 624Z" fill="#22CF7A"/>
<path d="M186 624L190 628L186 632L182 628L186 624Z" fill="#22CF7A"/>
<path d="M210 624L214 628L210 632L206 628L210 624Z" fill="#22CF7A"/>
<path d="M234 624L238 628L234 632L230 628L234 624Z" fill="#22CF7A"/>
<path d="M258 624L262 628L258 632L254 628L258 624Z" fill="#22CF7A"/>
<path d="M282 624L286 628L282 632L278 628L282 624Z" fill="#22CF7A"/>
<path d="M306 624L310 628L306 632L302 628L306 624Z" fill="#22CF7A"/>
<path d="M330 624L334 628L330 632L326 628L330 624Z" fill="#22CF7A"/>
<path d="M18 648L22 652L18 656L14 652L18 648Z" fill="#22CF7A"/>
<path d="M42 648L46 652L42 656L38 652L42 648Z" fill="#22CF7A"/>
<path d="M66 648L70 652L66 656L62 652L66 648Z" fill="#22CF7A"/>
<path d="M90 648L94 652L90 656L86 652L90 648Z" fill="#22CF7A"/>
<path d="M114 648L118 652L114 656L110 652L114 648Z" fill="#22CF7A"/>
<path d="M138 648L142 652L138 656L134 652L138 648Z" fill="#22CF7A"/>
<path d="M162 648L166 652L162 656L158 652L162 648Z" fill="#22CF7A"/>
<path d="M186 648L190 652L186 656L182 652L186 648Z" fill="#22CF7A"/>
<path d="M210 648L214 652L210 656L206 652L210 648Z" fill="#22CF7A"/>
<path d="M234 648L238 652L234 656L230 652L234 648Z" fill="#22CF7A"/>
<path d="M258 648L262 652L258 656L254 652L258 648Z" fill="#22CF7A"/>
<path d="M282 648L286 652L282 656L278 652L282 648Z" fill="#22CF7A"/>
<path d="M306 648L310 652L306 656L302 652L306 648Z" fill="#22CF7A"/>
<path d="M330 648L334 652L330 656L326 652L330 648Z" fill="#22CF7A"/>
<path d="M18 672L22 676L18 680L14 676L18 672Z" fill="#22CF7A"/>
<path d="M42 672L46 676L42 680L38 676L42 672Z" fill="#22CF7A"/>
<path d="M66 672L70 676L66 680L62 676L66 672Z" fill="#22CF7A"/>
<path d="M90 672L94 676L90 680L86 676L90 672Z" fill="#22CF7A"/>
<path d="M114 672L118 676L114 680L110 676L114 672Z" fill="#22CF7A"/>
<path d="M138 672L142 676L138 680L134 676L138 672Z" fill="#22CF7A"/>
<path d="M162 672L166 676L162 680L158 676L162 672Z" fill="#22CF7A"/>
<path d="M186 672L190 676L186 680L182 676L186 672Z" fill="#22CF7A"/>
<path d="M210 672L214 676L210 680L206 676L210 672Z" fill="#22CF7A"/>
<path d="M234 672L238 676L234 680L230 676L234 672Z" fill="#22CF7A"/>
<path d="M258 672L262 676L258 680L254 676L258 672Z" fill="#22CF7A"/>
<path d="M282 672L286 676L282 680L278 676L282 672Z" fill="#22CF7A"/>
<path d="M306 672L310 676L306 680L302 676L306 672Z" fill="#22CF7A"/>
<path d="M330 672L334 676L330 680L326 676L330 672Z" fill="#22CF7A"/>
<path d="M18 696L22 700L18 704L14 700L18 696Z" fill="#22CF7A"/>
<path d="M42 696L46 700L42 704L38 700L42 696Z" fill="#22CF7A"/>
<path d="M66 696L70 700L66 704L62 700L66 696Z" fill="#22CF7A"/>
<path d="M90 696L94 700L90 704L86 700L90 696Z" fill="#22CF7A"/>
<path d="M114 696L118 700L114 704L110 700L114 696Z" fill="#22CF7A"/>
<path d="M138 696L142 700L138 704L134 700L138 696Z" fill="#22CF7A"/>
<path d="M162 696L166 700L162 704L158 700L162 696Z" fill="#22CF7A"/>
<path d="M186 696L190 700L186 704L182 700L186 696Z" fill="#22CF7A"/>
<path d="M210 696L214 700L210 704L206 700L210 696Z" fill="#22CF7A"/>
<path d="M234 696L238 700L234 704L230 700L234 696Z" fill="#22CF7A"/>
<path d="M258 696L262 700L258 704L254 700L258 696Z" fill="#22CF7A"/>
<path d="M282 696L286 700L282 704L278 700L282 696Z" fill="#22CF7A"/>
<path d="M306 696L310 700L306 704L302 700L306 696Z" fill="#22CF7A"/>
<path d="M330 696L334 700L330 704L326 700L330 696Z" fill="#22CF7A"/>
<path d="M18 720L22 724L18 728L14 724L18 720Z" fill="#22CF7A"/>
<path d="M42 720L46 724L42 728L38 724L42 720Z" fill="#22CF7A"/>
<path d="M66 720L70 724L66 728L62 724L66 720Z" fill="#22CF7A"/>
<path d="M90 720L94 724L90 728L86 724L90 720Z" fill="#22CF7A"/>
<path d="M114 720L118 724L114 728L110 724L114 720Z" fill="#22CF7A"/>
<path d="M138 720L142 724L138 728L134 724L138 720Z" fill="#22CF7A"/>
<path d="M162 720L166 724L162 728L158 724L162 720Z" fill="#22CF7A"/>
<path d="M186 720L190 724L186 728L182 724L186 720Z" fill="#22CF7A"/>
<path d="M210 720L214 724L210 728L206 724L210 720Z" fill="#22CF7A"/>
<path d="M234 720L238 724L234 728L230 724L234 720Z" fill="#22CF7A"/>
<path d="M258 720L262 724L258 728L254 724L258 720Z" fill="#22CF7A"/>
<path d="M282 720L286 724L282 728L278 724L282 720Z" fill="#22CF7A"/>
<path d="M306 720L310 724L306 728L302 724L306 720Z" fill="#22CF7A"/>
<path d="M330 720L334 724L330 728L326 724L330 720Z" fill="#22CF7A"/>
<path d="M18 744L22 748L18 752L14 748L18 744Z" fill="#22CF7A"/>
<path d="M42 744L46 748L42 752L38 748L42 744Z" fill="#22CF7A"/>
<path d="M66 744L70 748L66 752L62 748L66 744Z" fill="#22CF7A"/>
<path d="M90 744L94 748L90 752L86 748L90 744Z" fill="#22CF7A"/>
<path d="M114 744L118 748L114 752L110 748L114 744Z" fill="#22CF7A"/>
<path d="M138 744L142 748L138 752L134 748L138 744Z" fill="#22CF7A"/>
<path d="M162 744L166 748L162 752L158 748L162 744Z" fill="#22CF7A"/>
<path d="M186 744L190 748L186 752L182 748L186 744Z" fill="#22CF7A"/>
<path d="M210 744L214 748L210 752L206 748L210 744Z" fill="#22CF7A"/>
<path d="M234 744L238 748L234 752L230 748L234 744Z" fill="#22CF7A"/>
<path d="M258 744L262 748L258 752L254 748L258 744Z" fill="#22CF7A"/>
<path d="M282 744L286 748L282 752L278 748L282 744Z" fill="#22CF7A"/>
<path d="M306 744L310 748L306 752L302 748L306 744Z" fill="#22CF7A"/>
<path d="M330 744L334 748L330 752L326 748L330 744Z" fill="#22CF7A"/>
<path d="M18 0L22 4L18 8L14 4L18 0Z" fill="#22CF7A"/>
<path d="M42 0L46 4L42 8L38 4L42 0Z" fill="#22CF7A"/>
<path d="M66 0L70 4L66 8L62 4L66 0Z" fill="#22CF7A"/>
<path d="M90 0L94 4L90 8L86 4L90 0Z" fill="#22CF7A"/>
<path d="M114 0L118 4L114 8L110 4L114 0Z" fill="#22CF7A"/>
<path d="M138 0L142 4L138 8L134 4L138 0Z" fill="#22CF7A"/>
<path d="M162 0L166 4L162 8L158 4L162 0Z" fill="#22CF7A"/>
<path d="M186 0L190 4L186 8L182 4L186 0Z" fill="#22CF7A"/>
<path d="M210 0L214 4L210 8L206 4L210 0Z" fill="#22CF7A"/>
<path d="M234 0L238 4L234 8L230 4L234 0Z" fill="#22CF7A"/>
<path d="M258 0L262 4L258 8L254 4L258 0Z" fill="#22CF7A"/>
<path d="M282 0L286 4L282 8L278 4L282 0Z" fill="#22CF7A"/>
<path d="M306 0L310 4L306 8L302 4L306 0Z" fill="#22CF7A"/>
<path d="M330 0L334 4L330 8L326 4L330 0Z" fill="#22CF7A"/>
<path d="M18 24L22 28L18 32L14 28L18 24Z" fill="#22CF7A"/>
<path d="M42 24L46 28L42 32L38 28L42 24Z" fill="#22CF7A"/>
<path d="M66 24L70 28L66 32L62 28L66 24Z" fill="#22CF7A"/>
<path d="M90 24L94 28L90 32L86 28L90 24Z" fill="#22CF7A"/>
<path d="M114 24L118 28L114 32L110 28L114 24Z" fill="#22CF7A"/>
<path d="M138 24L142 28L138 32L134 28L138 24Z" fill="#22CF7A"/>
<path d="M162 24L166 28L162 32L158 28L162 24Z" fill="#22CF7A"/>
<path d="M186 24L190 28L186 32L182 28L186 24Z" fill="#22CF7A"/>
<path d="M210 24L214 28L210 32L206 28L210 24Z" fill="#22CF7A"/>
<path d="M234 24L238 28L234 32L230 28L234 24Z" fill="#22CF7A"/>
<path d="M258 24L262 28L258 32L254 28L258 24Z" fill="#22CF7A"/>
<path d="M282 24L286 28L282 32L278 28L282 24Z" fill="#22CF7A"/>
<path d="M306 24L310 28L306 32L302 28L306 24Z" fill="#22CF7A"/>
<path d="M330 24L334 28L330 32L326 28L330 24Z" fill="#22CF7A"/>
<path d="M18 48L22 52L18 56L14 52L18 48Z" fill="#22CF7A"/>
<path d="M42 48L46 52L42 56L38 52L42 48Z" fill="#22CF7A"/>
<path d="M66 48L70 52L66 56L62 52L66 48Z" fill="#22CF7A"/>
<path d="M90 48L94 52L90 56L86 52L90 48Z" fill="#22CF7A"/>
<path d="M114 48L118 52L114 56L110 52L114 48Z" fill="#22CF7A"/>
<path d="M138 48L142 52L138 56L134 52L138 48Z" fill="#22CF7A"/>
<path d="M162 48L166 52L162 56L158 52L162 48Z" fill="#22CF7A"/>
<path d="M186 48L190 52L186 56L182 52L186 48Z" fill="#22CF7A"/>
<path d="M210 48L214 52L210 56L206 52L210 48Z" fill="#22CF7A"/>
<path d="M234 48L238 52L234 56L230 52L234 48Z" fill="#22CF7A"/>
<path d="M258 48L262 52L258 56L254 52L258 48Z" fill="#22CF7A"/>
<path d="M282 48L286 52L282 56L278 52L282 48Z" fill="#22CF7A"/>
<path d="M306 48L310 52L306 56L302 52L306 48Z" fill="#22CF7A"/>
<path d="M330 48L334 52L330 56L326 52L330 48Z" fill="#22CF7A"/>
<path d="M18 72L22 76L18 80L14 76L18 72Z" fill="#22CF7A"/>
<path d="M42 72L46 76L42 80L38 76L42 72Z" fill="#22CF7A"/>
<path d="M66 72L70 76L66 80L62 76L66 72Z" fill="#22CF7A"/>
<path d="M90 72L94 76L90 80L86 76L90 72Z" fill="#22CF7A"/>
<path d="M114 72L118 76L114 80L110 76L114 72Z" fill="#22CF7A"/>
<path d="M138 72L142 76L138 80L134 76L138 72Z" fill="#22CF7A"/>
<path d="M162 72L166 76L162 80L158 76L162 72Z" fill="#22CF7A"/>
<path d="M186 72L190 76L186 80L182 76L186 72Z" fill="#22CF7A"/>
<path d="M210 72L214 76L210 80L206 76L210 72Z" fill="#22CF7A"/>
<path d="M234 72L238 76L234 80L230 76L234 72Z" fill="#22CF7A"/>
<path d="M258 72L262 76L258 80L254 76L258 72Z" fill="#22CF7A"/>
<path d="M282 72L286 76L282 80L278 76L282 72Z" fill="#22CF7A"/>
<path d="M306 72L310 76L306 80L302 76L306 72Z" fill="#22CF7A"/>
<path d="M330 72L334 76L330 80L326 76L330 72Z" fill="#22CF7A"/>
<path d="M18 96L22 100L18 104L14 100L18 96Z" fill="#22CF7A"/>
<path d="M42 96L46 100L42 104L38 100L42 96Z" fill="#22CF7A"/>
<path d="M66 96L70 100L66 104L62 100L66 96Z" fill="#22CF7A"/>
<path d="M90 96L94 100L90 104L86 100L90 96Z" fill="#22CF7A"/>
<path d="M114 96L118 100L114 104L110 100L114 96Z" fill="#22CF7A"/>
<path d="M138 96L142 100L138 104L134 100L138 96Z" fill="#22CF7A"/>
<path d="M162 96L166 100L162 104L158 100L162 96Z" fill="#22CF7A"/>
<path d="M186 96L190 100L186 104L182 100L186 96Z" fill="#22CF7A"/>
<path d="M210 96L214 100L210 104L206 100L210 96Z" fill="#22CF7A"/>
<path d="M234 96L238 100L234 104L230 100L234 96Z" fill="#22CF7A"/>
<path d="M258 96L262 100L258 104L254 100L258 96Z" fill="#22CF7A"/>
<path d="M282 96L286 100L282 104L278 100L282 96Z" fill="#22CF7A"/>
<path d="M306 96L310 100L306 104L302 100L306 96Z" fill="#22CF7A"/>
<path d="M330 96L334 100L330 104L326 100L330 96Z" fill="#22CF7A"/>
<path d="M18 120L22 124L18 128L14 124L18 120Z" fill="#22CF7A"/>
<path d="M42 120L46 124L42 128L38 124L42 120Z" fill="#22CF7A"/>
<path d="M66 120L70 124L66 128L62 124L66 120Z" fill="#22CF7A"/>
<path d="M90 120L94 124L90 128L86 124L90 120Z" fill="#22CF7A"/>
<path d="M114 120L118 124L114 128L110 124L114 120Z" fill="#22CF7A"/>
<path d="M138 120L142 124L138 128L134 124L138 120Z" fill="#22CF7A"/>
<path d="M162 120L166 124L162 128L158 124L162 120Z" fill="#22CF7A"/>
<path d="M186 120L190 124L186 128L182 124L186 120Z" fill="#22CF7A"/>
<path d="M210 120L214 124L210 128L206 124L210 120Z" fill="#22CF7A"/>
<path d="M234 120L238 124L234 128L230 124L234 120Z" fill="#22CF7A"/>
<path d="M258 120L262 124L258 128L254 124L258 120Z" fill="#22CF7A"/>
<path d="M282 120L286 124L282 128L278 124L282 120Z" fill="#22CF7A"/>
<path d="M306 120L310 124L306 128L302 124L306 120Z" fill="#22CF7A"/>
<path d="M330 120L334 124L330 128L326 124L330 120Z" fill="#22CF7A"/>
<path d="M18 144L22 148L18 152L14 148L18 144Z" fill="#22CF7A"/>
<path d="M42 144L46 148L42 152L38 148L42 144Z" fill="#22CF7A"/>
<path d="M66 144L70 148L66 152L62 148L66 144Z" fill="#22CF7A"/>
<path d="M90 144L94 148L90 152L86 148L90 144Z" fill="#22CF7A"/>
<path d="M114 144L118 148L114 152L110 148L114 144Z" fill="#22CF7A"/>
<path d="M138 144L142 148L138 152L134 148L138 144Z" fill="#22CF7A"/>
<path d="M162 144L166 148L162 152L158 148L162 144Z" fill="#22CF7A"/>
<path d="M186 144L190 148L186 152L182 148L186 144Z" fill="#22CF7A"/>
<path d="M210 144L214 148L210 152L206 148L210 144Z" fill="#22CF7A"/>
<path d="M234 144L238 148L234 152L230 148L234 144Z" fill="#22CF7A"/>
<path d="M258 144L262 148L258 152L254 148L258 144Z" fill="#22CF7A"/>
<path d="M282 144L286 148L282 152L278 148L282 144Z" fill="#22CF7A"/>
<path d="M306 144L310 148L306 152L302 148L306 144Z" fill="#22CF7A"/>
<path d="M330 144L334 148L330 152L326 148L330 144Z" fill="#22CF7A"/>
<path d="M18 168L22 172L18 176L14 172L18 168Z" fill="#22CF7A"/>
<path d="M42 168L46 172L42 176L38 172L42 168Z" fill="#22CF7A"/>
<path d="M66 168L70 172L66 176L62 172L66 168Z" fill="#22CF7A"/>
<path d="M90 168L94 172L90 176L86 172L90 168Z" fill="#22CF7A"/>
<path d="M114 168L118 172L114 176L110 172L114 168Z" fill="#22CF7A"/>
<path d="M138 168L142 172L138 176L134 172L138 168Z" fill="#22CF7A"/>
<path d="M162 168L166 172L162 176L158 172L162 168Z" fill="#22CF7A"/>
<path d="M186 168L190 172L186 176L182 172L186 168Z" fill="#22CF7A"/>
<path d="M210 168L214 172L210 176L206 172L210 168Z" fill="#22CF7A"/>
<path d="M234 168L238 172L234 176L230 172L234 168Z" fill="#22CF7A"/>
<path d="M258 168L262 172L258 176L254 172L258 168Z" fill="#22CF7A"/>
<path d="M282 168L286 172L282 176L278 172L282 168Z" fill="#22CF7A"/>
<path d="M306 168L310 172L306 176L302 172L306 168Z" fill="#22CF7A"/>
<path d="M330 168L334 172L330 176L326 172L330 168Z" fill="#22CF7A"/>
<path d="M18 192L22 196L18 200L14 196L18 192Z" fill="#22CF7A"/>
<path d="M42 192L46 196L42 200L38 196L42 192Z" fill="#22CF7A"/>
<path d="M66 192L70 196L66 200L62 196L66 192Z" fill="#22CF7A"/>
<path d="M90 192L94 196L90 200L86 196L90 192Z" fill="#22CF7A"/>
<path d="M114 192L118 196L114 200L110 196L114 192Z" fill="#22CF7A"/>
<path d="M138 192L142 196L138 200L134 196L138 192Z" fill="#22CF7A"/>
<path d="M162 192L166 196L162 200L158 196L162 192Z" fill="#22CF7A"/>
<path d="M186 192L190 196L186 200L182 196L186 192Z" fill="#22CF7A"/>
<path d="M210 192L214 196L210 200L206 196L210 192Z" fill="#22CF7A"/>
<path d="M234 192L238 196L234 200L230 196L234 192Z" fill="#22CF7A"/>
<path d="M258 192L262 196L258 200L254 196L258 192Z" fill="#22CF7A"/>
<path d="M282 192L286 196L282 200L278 196L282 192Z" fill="#22CF7A"/>
<path d="M306 192L310 196L306 200L302 196L306 192Z" fill="#22CF7A"/>
<path d="M330 192L334 196L330 200L326 196L330 192Z" fill="#22CF7A"/>
<path d="M18 216L22 220L18 224L14 220L18 216Z" fill="#22CF7A"/>
<path d="M42 216L46 220L42 224L38 220L42 216Z" fill="#22CF7A"/>
<path d="M66 216L70 220L66 224L62 220L66 216Z" fill="#22CF7A"/>
<path d="M90 216L94 220L90 224L86 220L90 216Z" fill="#22CF7A"/>
<path d="M114 216L118 220L114 224L110 220L114 216Z" fill="#22CF7A"/>
<path d="M138 216L142 220L138 224L134 220L138 216Z" fill="#22CF7A"/>
<path d="M162 216L166 220L162 224L158 220L162 216Z" fill="#22CF7A"/>
<path d="M186 216L190 220L186 224L182 220L186 216Z" fill="#22CF7A"/>
<path d="M210 216L214 220L210 224L206 220L210 216Z" fill="#22CF7A"/>
<path d="M234 216L238 220L234 224L230 220L234 216Z" fill="#22CF7A"/>
<path d="M258 216L262 220L258 224L254 220L258 216Z" fill="#22CF7A"/>
<path d="M282 216L286 220L282 224L278 220L282 216Z" fill="#22CF7A"/>
<path d="M306 216L310 220L306 224L302 220L306 216Z" fill="#22CF7A"/>
<path d="M330 216L334 220L330 224L326 220L330 216Z" fill="#22CF7A"/>
<path d="M18 240L22 244L18 248L14 244L18 240Z" fill="#22CF7A"/>
<path d="M42 240L46 244L42 248L38 244L42 240Z" fill="#22CF7A"/>
<path d="M66 240L70 244L66 248L62 244L66 240Z" fill="#22CF7A"/>
<path d="M90 240L94 244L90 248L86 244L90 240Z" fill="#22CF7A"/>
<path d="M114 240L118 244L114 248L110 244L114 240Z" fill="#22CF7A"/>
<path d="M138 240L142 244L138 248L134 244L138 240Z" fill="#22CF7A"/>
<path d="M162 240L166 244L162 248L158 244L162 240Z" fill="#22CF7A"/>
<path d="M186 240L190 244L186 248L182 244L186 240Z" fill="#22CF7A"/>
<path d="M210 240L214 244L210 248L206 244L210 240Z" fill="#22CF7A"/>
<path d="M234 240L238 244L234 248L230 244L234 240Z" fill="#22CF7A"/>
<path d="M258 240L262 244L258 248L254 244L258 240Z" fill="#22CF7A"/>
<path d="M282 240L286 244L282 248L278 244L282 240Z" fill="#22CF7A"/>
<path d="M306 240L310 244L306 248L302 244L306 240Z" fill="#22CF7A"/>
<path d="M330 240L334 244L330 248L326 244L330 240Z" fill="#22CF7A"/>
<path d="M18 264L22 268L18 272L14 268L18 264Z" fill="#22CF7A"/>
<path d="M42 264L46 268L42 272L38 268L42 264Z" fill="#22CF7A"/>
<path d="M66 264L70 268L66 272L62 268L66 264Z" fill="#22CF7A"/>
<path d="M90 264L94 268L90 272L86 268L90 264Z" fill="#22CF7A"/>
<path d="M114 264L118 268L114 272L110 268L114 264Z" fill="#22CF7A"/>
<path d="M138 264L142 268L138 272L134 268L138 264Z" fill="#22CF7A"/>
<path d="M162 264L166 268L162 272L158 268L162 264Z" fill="#22CF7A"/>
<path d="M186 264L190 268L186 272L182 268L186 264Z" fill="#22CF7A"/>
<path d="M210 264L214 268L210 272L206 268L210 264Z" fill="#22CF7A"/>
<path d="M234 264L238 268L234 272L230 268L234 264Z" fill="#22CF7A"/>
<path d="M258 264L262 268L258 272L254 268L258 264Z" fill="#22CF7A"/>
<path d="M282 264L286 268L282 272L278 268L282 264Z" fill="#22CF7A"/>
<path d="M306 264L310 268L306 272L302 268L306 264Z" fill="#22CF7A"/>
<path d="M330 264L334 268L330 272L326 268L330 264Z" fill="#22CF7A"/>
<path d="M18 288L22 292L18 296L14 292L18 288Z" fill="#22CF7A"/>
<path d="M42 288L46 292L42 296L38 292L42 288Z" fill="#22CF7A"/>
<path d="M66 288L70 292L66 296L62 292L66 288Z" fill="#22CF7A"/>
<path d="M90 288L94 292L90 296L86 292L90 288Z" fill="#22CF7A"/>
<path d="M114 288L118 292L114 296L110 292L114 288Z" fill="#22CF7A"/>
<path d="M138 288L142 292L138 296L134 292L138 288Z" fill="#22CF7A"/>
<path d="M162 288L166 292L162 296L158 292L162 288Z" fill="#22CF7A"/>
<path d="M186 288L190 292L186 296L182 292L186 288Z" fill="#22CF7A"/>
<path d="M210 288L214 292L210 296L206 292L210 288Z" fill="#22CF7A"/>
<path d="M234 288L238 292L234 296L230 292L234 288Z" fill="#22CF7A"/>
<path d="M258 288L262 292L258 296L254 292L258 288Z" fill="#22CF7A"/>
<path d="M282 288L286 292L282 296L278 292L282 288Z" fill="#22CF7A"/>
<path d="M306 288L310 292L306 296L302 292L306 288Z" fill="#22CF7A"/>
<path d="M330 288L334 292L330 296L326 292L330 288Z" fill="#22CF7A"/>
<path d="M18 312L22 316L18 320L14 316L18 312Z" fill="#22CF7A"/>
<path d="M42 312L46 316L42 320L38 316L42 312Z" fill="#22CF7A"/>
<path d="M66 312L70 316L66 320L62 316L66 312Z" fill="#22CF7A"/>
<path d="M90 312L94 316L90 320L86 316L90 312Z" fill="#22CF7A"/>
<path d="M114 312L118 316L114 320L110 316L114 312Z" fill="#22CF7A"/>
<path d="M138 312L142 316L138 320L134 316L138 312Z" fill="#22CF7A"/>
<path d="M162 312L166 316L162 320L158 316L162 312Z" fill="#22CF7A"/>
<path d="M186 312L190 316L186 320L182 316L186 312Z" fill="#22CF7A"/>
<path d="M210 312L214 316L210 320L206 316L210 312Z" fill="#22CF7A"/>
<path d="M234 312L238 316L234 320L230 316L234 312Z" fill="#22CF7A"/>
<path d="M258 312L262 316L258 320L254 316L258 312Z" fill="#22CF7A"/>
<path d="M282 312L286 316L282 320L278 316L282 312Z" fill="#22CF7A"/>
<path d="M306 312L310 316L306 320L302 316L306 312Z" fill="#22CF7A"/>
<path d="M330 312L334 316L330 320L326 316L330 312Z" fill="#22CF7A"/>
<path d="M18 336L22 340L18 344L14 340L18 336Z" fill="#22CF7A"/>
<path d="M42 336L46 340L42 344L38 340L42 336Z" fill="#22CF7A"/>
<path d="M66 336L70 340L66 344L62 340L66 336Z" fill="#22CF7A"/>
<path d="M90 336L94 340L90 344L86 340L90 336Z" fill="#22CF7A"/>
<path d="M114 336L118 340L114 344L110 340L114 336Z" fill="#22CF7A"/>
<path d="M138 336L142 340L138 344L134 340L138 336Z" fill="#22CF7A"/>
<path d="M162 336L166 340L162 344L158 340L162 336Z" fill="#22CF7A"/>
<path d="M186 336L190 340L186 344L182 340L186 336Z" fill="#22CF7A"/>
<path d="M210 336L214 340L210 344L206 340L210 336Z" fill="#22CF7A"/>
<path d="M234 336L238 340L234 344L230 340L234 336Z" fill="#22CF7A"/>
<path d="M258 336L262 340L258 344L254 340L258 336Z" fill="#22CF7A"/>
<path d="M282 336L286 340L282 344L278 340L282 336Z" fill="#22CF7A"/>
<path d="M306 336L310 340L306 344L302 340L306 336Z" fill="#22CF7A"/>
<path d="M330 336L334 340L330 344L326 340L330 336Z" fill="#22CF7A"/>
<path d="M18 360L22 364L18 368L14 364L18 360Z" fill="#22CF7A"/>
<path d="M42 360L46 364L42 368L38 364L42 360Z" fill="#22CF7A"/>
<path d="M66 360L70 364L66 368L62 364L66 360Z" fill="#22CF7A"/>
<path d="M90 360L94 364L90 368L86 364L90 360Z" fill="#22CF7A"/>
<path d="M114 360L118 364L114 368L110 364L114 360Z" fill="#22CF7A"/>
<path d="M138 360L142 364L138 368L134 364L138 360Z" fill="#22CF7A"/>
<path d="M162 360L166 364L162 368L158 364L162 360Z" fill="#22CF7A"/>
<path d="M186 360L190 364L186 368L182 364L186 360Z" fill="#22CF7A"/>
<path d="M210 360L214 364L210 368L206 364L210 360Z" fill="#22CF7A"/>
<path d="M234 360L238 364L234 368L230 364L234 360Z" fill="#22CF7A"/>
<path d="M258 360L262 364L258 368L254 364L258 360Z" fill="#22CF7A"/>
<path d="M282 360L286 364L282 368L278 364L282 360Z" fill="#22CF7A"/>
<path d="M306 360L310 364L306 368L302 364L306 360Z" fill="#22CF7A"/>
<path d="M330 360L334 364L330 368L326 364L330 360Z" fill="#22CF7A"/>
</g>
<defs>
<clipPath id="clip0_165_3281">
<rect width="334" height="1136" fill="white"/>
</clipPath>
</defs>
</svg>
