<svg width="533" height="106" viewBox="0 0 533 106" fill="none" xmlns="http://www.w3.org/2000/svg">
<path d="M0.152 103.544H-3.848V107.544H0.152V103.544ZM0.152 2.90399V-1.09601H-3.848V2.90399H0.152ZM60.536 6.848L59.0765 10.5722V10.5722L60.536 6.848ZM77.264 17.592L74.4072 20.3917L74.4213 20.4061L74.4356 20.4204L77.264 17.592ZM87.464 33.232L83.7306 34.6679L83.7344 34.6777L83.7382 34.6874L87.464 33.232ZM87.464 72.4L83.7382 70.9446L87.464 72.4ZM77.264 88.176L74.3807 85.4036L74.3667 85.4181L74.3529 85.4328L77.264 88.176ZM60.536 99.464L62.0388 103.171L62.0602 103.162L62.0815 103.153L60.536 99.464ZM22.456 23.712V19.712H18.456V23.712H22.456ZM22.456 82.736H18.456V86.736H22.456V82.736ZM60.264 74.576L63.1161 77.3806V77.3806L60.264 74.576ZM60.264 31.464L57.4848 34.3408L57.4975 34.3531L57.5103 34.3652L60.264 31.464ZM4.152 103.544V2.90399H-3.848V103.544H4.152ZM0.152 6.90399H37.008V-1.09601H0.152V6.90399ZM37.008 6.90399C45.6028 6.90399 52.9309 8.1638 59.0765 10.5722L61.9955 3.12377C54.7225 0.273516 46.3652 -1.09601 37.008 -1.09601V6.90399ZM59.0765 10.5722C65.3311 13.0234 70.41 16.3129 74.4072 20.3917L80.1209 14.7923C75.2327 9.80439 69.1596 5.9313 61.9955 3.12377L59.0765 10.5722ZM74.4356 20.4204C78.5794 24.5643 81.668 29.3051 83.7306 34.6679L91.1974 31.7961C88.7267 25.3722 85.0153 19.6864 80.0924 14.7636L74.4356 20.4204ZM83.7382 34.6874C85.8176 40.0107 86.864 45.6357 86.864 51.592H94.864C94.864 44.6736 93.6437 38.0586 91.1898 31.7766L83.7382 34.6874ZM86.864 51.592V54.584H94.864V51.592H86.864ZM86.864 54.584C86.864 60.1479 85.8284 65.5937 83.7382 70.9446L91.1898 73.8554C93.633 67.601 94.864 61.1694 94.864 54.584H86.864ZM83.7382 70.9446C81.6725 76.2328 78.5678 81.049 74.3807 85.4036L80.1473 90.9484C85.0269 85.8737 88.7222 80.1725 91.1898 73.8554L83.7382 70.9446ZM74.3529 85.4328C70.3388 89.6926 65.247 93.1537 58.9905 95.7747L62.0815 103.153C69.2437 100.153 75.3039 96.0887 80.1752 90.9192L74.3529 85.4328ZM59.0332 95.757C52.9007 98.2432 45.5884 99.544 37.008 99.544V107.544C46.3796 107.544 54.7526 106.125 62.0388 103.171L59.0332 95.757ZM37.008 99.544H0.152V107.544H37.008V99.544ZM38.232 19.712H22.456V27.712H38.232V19.712ZM18.456 23.712V82.736H26.456V23.712H18.456ZM22.456 86.736H38.232V78.736H22.456V86.736ZM38.232 86.736C48.387 86.736 56.8524 83.7505 63.1161 77.3806L57.4119 71.7714C52.977 76.2815 46.7544 78.736 38.232 78.736V86.736ZM63.1161 77.3806C69.322 71.0695 72.288 62.8365 72.288 53.088H64.288C64.288 61.1102 61.9047 67.2025 57.4119 71.7714L63.1161 77.3806ZM72.288 53.088C72.288 42.962 69.3625 34.5849 63.0177 28.5628L57.5103 34.3652C61.8642 38.4977 64.288 44.5367 64.288 53.088H72.288ZM63.0433 28.5872C56.7696 22.5263 48.3297 19.712 38.232 19.712V27.712C46.8117 27.712 53.0597 30.0657 57.4848 34.3408L63.0433 28.5872ZM106.402 103H102.402V107H106.402V103ZM106.402 3.72V-0.280003H102.402V3.72H106.402ZM167.874 3.72H171.874V-0.280003H167.874V3.72ZM167.874 22.216V26.216H171.874V22.216H167.874ZM128.162 22.216V18.216H124.162V22.216H128.162ZM128.162 43.296H124.162V47.296H128.162V43.296ZM165.698 43.296H169.698V39.296H165.698V43.296ZM165.698 61.792V65.792H169.698V61.792H165.698ZM128.162 61.792V57.792H124.162V61.792H128.162ZM128.162 84.504H124.162V88.504H128.162V84.504ZM168.826 84.504H172.826V80.504H168.826V84.504ZM168.826 103V107H172.826V103H168.826ZM110.402 103V3.72H102.402V103H110.402ZM106.402 7.72H167.874V-0.280003H106.402V7.72ZM163.874 3.72V22.216H171.874V3.72H163.874ZM167.874 18.216H128.162V26.216H167.874V18.216ZM124.162 22.216V43.296H132.162V22.216H124.162ZM128.162 47.296H165.698V39.296H128.162V47.296ZM161.698 43.296V61.792H169.698V43.296H161.698ZM165.698 57.792H128.162V65.792H165.698V57.792ZM124.162 61.792V84.504H132.162V61.792H124.162ZM128.162 88.504H168.826V80.504H128.162V88.504ZM164.826 84.504V103H172.826V84.504H164.826ZM168.826 99H106.402V107H168.826V99ZM198.184 101.368L196.525 105.008L196.535 105.012L196.545 105.017L198.184 101.368ZM184.176 89.672L180.774 91.7753L180.787 91.7975L180.801 91.8195L184.176 89.672ZM179.552 72.536V68.536H175.552V72.536H179.552ZM201.176 72.536H205.176V68.536H201.176V72.536ZM205.8 82.6L203.058 85.5128L203.103 85.5543L203.148 85.5944L205.8 82.6ZM235.176 83.28L237.518 86.5227L237.547 86.5016L237.576 86.48L235.176 83.28ZM235.992 66.416L233.698 69.6929L233.735 69.719L233.773 69.7442L235.992 66.416ZM222.8 62.744L222.438 66.7276L222.443 66.7281L222.8 62.744ZM215.32 62.064L215.682 58.0804L215.666 58.0789L215.649 58.0776L215.32 62.064ZM191.656 52.952L188.968 55.9138L188.98 55.9252L188.993 55.9366L191.656 52.952ZM187.304 15.144L183.976 12.9252L183.961 12.948L183.946 12.971L187.304 15.144ZM200.088 4.536L201.729 8.18368L201.755 8.17238L201.779 8.16073L200.088 4.536ZM239.392 4.80799L237.627 8.39739L237.638 8.40305L237.65 8.40863L239.392 4.80799ZM252.312 16.232L248.899 18.3178L248.908 18.3321L248.916 18.3462L252.312 16.232ZM256.8 33.096V37.096H260.8V33.096H256.8ZM235.04 33.096H231.04V37.096H235.04V33.096ZM231.096 23.576L233.972 20.7959V20.7959L231.096 23.576ZM208.248 23.168L211.023 26.0493L211.05 26.0231L211.076 25.9964L208.248 23.168ZM207.432 38.944L204.478 41.6411L204.509 41.6753L204.541 41.7089L207.432 38.944ZM217.36 42.616L217.716 38.6318L217.694 38.6299L217.673 38.6282L217.36 42.616ZM224.976 43.296L224.62 47.2802L224.627 47.2808L224.976 43.296ZM244.152 48.056L242.483 51.6913L242.508 51.7027L242.533 51.7137L244.152 48.056ZM257.072 58.256L253.808 60.5681L253.835 60.6069L253.864 60.6451L257.072 58.256ZM256.8 90.624L253.52 88.3343L253.516 88.3407L253.511 88.3472L256.8 90.624ZM242.792 101.64L241.203 97.9691L242.792 101.64ZM221.032 101.584C212.454 101.584 205.431 100.239 199.823 97.7193L196.545 105.017C203.449 108.119 211.658 109.584 221.032 109.584V101.584ZM199.843 97.7284C194.276 95.1905 190.25 91.7667 187.551 87.5245L180.801 91.8195C184.448 97.5506 189.761 101.924 196.525 105.008L199.843 97.7284ZM187.578 87.5687C184.924 83.2752 183.552 78.3057 183.552 72.536H175.552C175.552 79.641 177.262 86.0955 180.774 91.7753L187.578 87.5687ZM179.552 76.536H201.176V68.536H179.552V76.536ZM197.176 72.536C197.176 77.5761 199.272 81.9489 203.058 85.5128L208.541 79.6872C206.163 77.4484 205.176 75.1119 205.176 72.536H197.176ZM203.148 85.5944C207.399 89.3594 213.664 90.816 221.032 90.816V82.816C214.437 82.816 210.548 81.462 208.452 79.6056L203.148 85.5944ZM221.032 90.816C227.619 90.816 233.297 89.5713 237.518 86.5227L232.834 80.0373C230.527 81.7034 226.776 82.816 221.032 82.816V90.816ZM237.576 86.48C241.764 83.3393 244.072 79.064 244.072 73.896H236.072C236.072 76.3439 235.116 78.3247 232.776 80.08L237.576 86.48ZM244.072 73.896C244.072 69.3375 242.003 65.6161 238.211 63.0878L233.773 69.7442C235.421 70.8425 236.072 72.1078 236.072 73.896H244.072ZM238.286 63.1391C234.69 60.6223 229.433 59.322 223.157 58.7599L222.443 66.7281C228.316 67.254 231.853 68.4017 233.698 69.6929L238.286 63.1391ZM223.162 58.7604L215.682 58.0804L214.958 66.0476L222.438 66.7276L223.162 58.7604ZM215.649 58.0776C206.408 57.3146 199.414 54.5136 194.319 49.9674L188.993 55.9366C195.685 61.9078 204.466 65.1814 214.991 66.0504L215.649 58.0776ZM194.344 49.9902C189.389 45.4918 186.816 39.5032 186.816 31.6H178.816C178.816 41.4675 182.137 49.7135 188.968 55.9138L194.344 49.9902ZM186.816 31.6C186.816 25.904 188.15 21.1995 190.662 17.317L183.946 12.971C180.474 18.3365 178.816 24.6026 178.816 31.6H186.816ZM190.632 17.3628C193.267 13.4103 196.922 10.3469 201.729 8.18368L198.446 0.888309C192.374 3.6211 187.506 7.62973 183.976 12.9252L190.632 17.3628ZM201.779 8.16073C206.579 5.92091 212.414 4.728 219.4 4.728V-3.27201C211.517 -3.27201 204.477 -1.92625 198.396 0.911263L201.779 8.16073ZM219.4 4.728C226.743 4.728 232.771 6.00944 237.627 8.39739L241.157 1.21859C234.951 -1.83345 227.652 -3.27201 219.4 -3.27201V4.728ZM237.65 8.40863C242.644 10.8251 246.342 14.1343 248.899 18.3178L255.725 14.1462C252.298 8.53772 247.383 4.23085 241.134 1.20736L237.65 8.40863ZM248.916 18.3462C251.461 22.4335 252.8 27.301 252.8 33.096H260.8C260.8 26.0163 259.147 19.6412 255.708 14.1178L248.916 18.3462ZM256.8 29.096H235.04V37.096H256.8V29.096ZM239.04 33.096C239.04 28.3834 237.288 24.2261 233.972 20.7959L228.22 26.3561C230.163 28.3659 231.04 30.5553 231.04 33.096H239.04ZM233.972 20.7959C230.346 17.0446 225.244 15.496 219.4 15.496V23.496C223.892 23.496 226.588 24.6674 228.22 26.3561L233.972 20.7959ZM219.4 15.496C213.821 15.496 208.895 16.8646 205.42 20.3396L211.076 25.9964C212.497 24.5754 215.005 23.496 219.4 23.496V15.496ZM205.473 20.2867C202.279 23.3632 200.576 27.1997 200.576 31.6H208.576C208.576 29.4723 209.321 27.6875 211.023 26.0493L205.473 20.2867ZM200.576 31.6C200.576 35.4139 201.905 38.8225 204.478 41.6411L210.386 36.2469C209.151 34.8948 208.576 33.4075 208.576 31.6H200.576ZM204.541 41.7089C207.525 44.8278 212.005 46.2083 217.047 46.6038L217.673 38.6282C213.466 38.2983 211.329 37.2309 210.323 36.1791L204.541 41.7089ZM217.004 46.6001L224.62 47.2802L225.332 39.3119L217.716 38.6318L217.004 46.6001ZM224.627 47.2808C231.511 47.8831 237.442 49.3773 242.483 51.6913L245.821 44.4207C239.8 41.6573 232.947 39.9782 225.325 39.3112L224.627 47.2808ZM242.533 51.7137C247.494 53.9097 251.196 56.8805 253.808 60.5681L260.336 55.9439C256.783 50.9275 251.871 47.0983 245.771 44.3983L242.533 51.7137ZM253.864 60.6451C256.443 64.1092 257.832 68.4481 257.832 73.896H265.832C265.832 67.0132 264.047 60.9254 260.28 55.8669L253.864 60.6451ZM257.832 73.896C257.832 79.4951 256.367 84.2568 253.52 88.3343L260.08 92.9137C263.943 87.3806 265.832 80.9902 265.832 73.896H257.832ZM253.511 88.3472C250.735 92.3575 246.7 95.5899 241.203 97.9691L244.381 105.311C251.033 102.431 256.337 98.3198 260.089 92.9008L253.511 88.3472ZM241.203 97.9691C235.747 100.331 229.061 101.584 221.032 101.584V109.584C229.866 109.584 237.687 108.208 244.381 105.311L241.203 97.9691ZM277.471 103H273.471V107H277.471V103ZM277.471 3.72V-0.280003H273.471V3.72H277.471ZM299.775 3.72H303.775V-0.280003H299.775V3.72ZM299.775 103V107H303.775V103H299.775ZM281.471 103V3.72H273.471V103H281.471ZM277.471 7.72H299.775V-0.280003H277.471V7.72ZM295.775 3.72V103H303.775V3.72H295.775ZM299.775 99H277.471V107H299.775V99ZM346.155 101.232L344.507 104.877L344.528 104.886L344.549 104.895L346.155 101.232ZM329.699 89.264L326.658 91.8626L326.672 91.8784L326.685 91.8941L329.699 89.264ZM320.179 72.808L316.396 74.1067L316.399 74.1155L316.402 74.1243L320.179 72.808ZM320.179 33.096L323.956 34.4123V34.4123L320.179 33.096ZM329.563 16.776L326.546 14.1499L326.532 14.1659L326.518 14.1821L329.563 16.776ZM345.339 5.07999L343.676 1.4421L343.666 1.44664L343.656 1.45124L345.339 5.07999ZM390.899 5.75999L389.148 9.35643L390.899 5.75999ZM407.491 19.632L404.226 21.9427L404.234 21.9546L404.243 21.9665L407.491 19.632ZM414.835 39.76V43.76H419.234L418.817 39.3808L414.835 39.76ZM392.531 39.76L388.586 40.4176L389.143 43.76H392.531V39.76ZM384.235 26.568L381.886 29.8057L384.235 26.568ZM352.275 25.616L354.442 28.9783L354.451 28.9724L354.46 28.9664L352.275 25.616ZM342.891 36.768L346.523 38.4442L346.529 38.4312L346.535 38.418L342.891 36.768ZM347.379 76.48L344.372 79.1173L344.383 79.1303L344.395 79.1432L347.379 76.48ZM383.011 82.736L384.597 86.4082L384.632 86.3932L384.666 86.3775L383.011 82.736ZM392.531 75.664L395.636 78.1864L396.531 77.0842V75.664H392.531ZM392.531 67.368H396.531V63.368H392.531V67.368ZM366.555 67.368H362.555V71.368H366.555V67.368ZM366.555 51.32V47.32H362.555V51.32H366.555ZM421.227 51.32H425.227V47.32H421.227V51.32ZM421.227 67.368V71.368H425.227V67.368H421.227ZM413.067 67.368V63.368H409.067V67.368H413.067ZM413.067 84.232L416.469 86.3359L417.067 85.3689V84.232H413.067ZM395.387 100.144L397.124 103.747L397.141 103.739L397.159 103.73L395.387 100.144ZM369.411 101.584C360.955 101.584 353.771 100.203 347.761 97.5685L344.549 104.895C351.776 108.064 360.097 109.584 369.411 109.584V101.584ZM347.803 97.5871C341.656 94.8082 336.652 91.1476 332.713 86.6339L326.685 91.8941C331.45 97.3537 337.417 101.672 344.507 104.877L347.803 97.5871ZM332.74 86.6654C328.79 82.0432 325.872 76.9897 323.956 71.4917L316.402 74.1243C318.657 80.5943 322.085 86.5115 326.658 91.8626L332.74 86.6654ZM323.962 71.5093C322.015 65.8349 321.051 60.1532 321.051 54.448H313.051C313.051 61.0735 314.173 67.6317 316.396 74.1067L323.962 71.5093ZM321.051 54.448V51.456H313.051V54.448H321.051ZM321.051 51.456C321.051 45.654 322.017 39.9787 323.956 34.4123L316.402 31.7797C314.171 38.1813 313.051 44.746 313.051 51.456H321.051ZM323.956 34.4123C325.876 28.9029 328.754 23.8947 332.608 19.3699L326.518 14.1821C322.031 19.4492 318.653 25.3211 316.402 31.7797L323.956 34.4123ZM332.58 19.4021C336.45 14.9566 341.244 11.3885 347.022 8.70875L343.656 1.45124C336.922 4.57421 331.199 8.80341 326.546 14.1499L332.58 19.4021ZM347.002 8.7179C352.74 6.09472 359.455 4.728 367.235 4.728V-3.27201C358.514 -3.27201 350.631 -1.73739 343.676 1.4421L347.002 8.7179ZM367.235 4.728C375.61 4.728 382.884 6.30657 389.148 9.35643L392.65 2.16356C385.133 -1.49591 376.631 -3.27201 367.235 -3.27201V4.728ZM389.148 9.35643C395.473 12.4354 400.468 16.6323 404.226 21.9427L410.756 17.3213C406.173 10.845 400.107 5.79397 392.65 2.16356L389.148 9.35643ZM404.243 21.9665C407.971 27.1533 410.19 33.1769 410.853 40.1392L418.817 39.3808C418.03 31.1111 415.353 23.7161 410.739 17.2975L404.243 21.9665ZM414.835 35.76H392.531V43.76H414.835V35.76ZM396.477 39.1024C395.391 32.5854 392.024 27.2773 386.584 23.3303L381.886 29.8057C385.694 32.568 387.858 36.0546 388.586 40.4176L396.477 39.1024ZM386.584 23.3303C381.164 19.3979 374.636 17.536 367.235 17.536V25.536C373.253 25.536 378.059 27.0288 381.886 29.8057L386.584 23.3303ZM367.235 17.536C360.788 17.536 355.012 19.0553 350.09 22.2656L354.46 28.9664C357.879 26.7367 362.077 25.536 367.235 25.536V17.536ZM350.108 22.2537C345.325 25.336 341.712 29.6751 339.247 35.118L346.535 38.418C348.422 34.2503 351.065 31.1547 354.442 28.9783L350.108 22.2537ZM339.259 35.0918C336.8 40.4212 335.627 46.451 335.627 53.088H343.627C343.627 47.3944 344.631 42.5441 346.523 38.4442L339.259 35.0918ZM335.627 53.088C335.627 63.52 338.422 72.3323 344.372 79.1173L350.387 73.8427C346 68.841 343.627 62.0586 343.627 53.088H335.627ZM344.395 79.1432C350.559 86.0518 359.083 89.32 369.411 89.32V81.32C360.88 81.32 354.716 78.6948 350.364 73.8168L344.395 79.1432ZM369.411 89.32C374.943 89.32 380.03 88.3804 384.597 86.4082L381.425 79.0638C378.014 80.5369 374.034 81.32 369.411 81.32V89.32ZM384.666 86.3775C389.122 84.3521 392.826 81.6439 395.636 78.1864L389.427 73.1416C387.521 75.4868 384.879 77.4932 381.356 79.0945L384.666 86.3775ZM396.531 75.664V67.368H388.531V75.664H396.531ZM392.531 63.368H366.555V71.368H392.531V63.368ZM370.555 67.368V51.32H362.555V67.368H370.555ZM366.555 55.32H421.227V47.32H366.555V55.32ZM417.227 51.32V67.368H425.227V51.32H417.227ZM421.227 63.368H413.067V71.368H421.227V63.368ZM409.067 67.368V84.232H417.067V67.368H409.067ZM409.665 82.1281C405.812 88.358 400.495 93.1595 393.616 96.5577L397.159 103.73C405.33 99.6938 411.799 93.8873 416.469 86.3359L409.665 82.1281ZM393.651 96.5406C386.753 99.8649 378.705 101.584 369.411 101.584V109.584C379.701 109.584 388.971 107.676 397.124 103.747L393.651 96.5406ZM435.644 103H431.644V107H435.644V103ZM435.644 3.72V-0.280003H431.644V3.72H435.644ZM472.228 3.72L475.861 2.04647L474.79 -0.280003H472.228V3.72ZM509.628 84.912L505.995 86.5855L507.067 88.912H509.628V84.912ZM511.532 84.912V88.912H515.532V84.912H511.532ZM511.532 3.72V-0.280003H507.532V3.72H511.532ZM532.476 3.72H536.476V-0.280003H532.476V3.72ZM532.476 103V107H536.476V103H532.476ZM495.62 103L491.987 104.674L493.059 107H495.62V103ZM458.22 21.808L461.853 20.1345L460.782 17.808H458.22V21.808ZM456.316 21.808V17.808H452.316V21.808H456.316ZM456.316 103V107H460.316V103H456.316ZM439.644 103V3.72H431.644V103H439.644ZM435.644 7.72H472.228V-0.280003H435.644V7.72ZM468.595 5.39353L505.995 86.5855L513.261 83.2385L475.861 2.04647L468.595 5.39353ZM509.628 88.912H511.532V80.912H509.628V88.912ZM515.532 84.912V3.72H507.532V84.912H515.532ZM511.532 7.72H532.476V-0.280003H511.532V7.72ZM528.476 3.72V103H536.476V3.72H528.476ZM532.476 99H495.62V107H532.476V99ZM499.253 101.326L461.853 20.1345L454.587 23.4815L491.987 104.674L499.253 101.326ZM458.22 17.808H456.316V25.808H458.22V17.808ZM452.316 21.808V103H460.316V21.808H452.316ZM456.316 99H435.644V107H456.316V99Z" fill="white"/>
</svg>
