<svg width="555" height="171" viewBox="0 0 555 171" fill="none" xmlns="http://www.w3.org/2000/svg">
<path d="M11.152 132.544H9.152V134.544H11.152V132.544ZM11.152 31.904V29.904H9.152V31.904H11.152ZM71.536 35.848L70.8063 37.7101L70.8063 37.7101L71.536 35.848ZM88.264 46.592L86.8356 47.9919L86.8427 47.9991L86.8498 48.0062L88.264 46.592ZM98.464 62.232L96.5973 62.95L96.6011 62.9597L98.464 62.232ZM98.464 101.4L96.6011 100.672L98.464 101.4ZM88.264 117.176L86.8223 115.79L86.8153 115.797L86.8084 115.804L88.264 117.176ZM71.536 128.464L72.2874 130.317L72.2981 130.313L72.3088 130.309L71.536 128.464ZM33.456 52.712V50.712H31.456V52.712H33.456ZM33.456 111.736H31.456V113.736H33.456V111.736ZM71.264 103.576L72.6901 104.978L72.6901 104.978L71.264 103.576ZM71.264 60.464L69.8744 61.9024L69.8807 61.9085L69.8872 61.9146L71.264 60.464ZM13.152 132.544V31.904H9.152V132.544H13.152ZM11.152 33.904H48.008V29.904H11.152V33.904ZM48.008 33.904C56.7934 33.904 64.3788 35.1912 70.8063 37.7101L72.2658 33.9859C65.2746 31.2461 57.1746 29.904 48.008 29.904V33.904ZM70.8063 37.7101C77.2882 40.2503 82.6156 43.6858 86.8356 47.9919L89.6924 45.1921C85.027 40.4315 79.2024 36.7043 72.2658 33.9859L70.8063 37.7101ZM86.8498 48.0062C91.1884 52.3448 94.4327 57.3219 96.5973 62.95L100.331 61.514C97.962 55.3554 94.4063 49.9059 89.6782 45.1778L86.8498 48.0062ZM96.6011 62.9597C98.7741 68.5227 99.864 74.3952 99.864 80.592H103.864C103.864 73.9141 102.687 67.5466 100.327 61.5043L96.6011 62.9597ZM99.864 80.592V83.584H103.864V80.592H99.864ZM99.864 83.584C99.864 89.4033 98.7795 95.0955 96.6011 100.672L100.327 102.128C102.682 96.0991 103.864 89.914 103.864 83.584H99.864ZM96.6011 100.672C94.4349 106.218 91.1826 111.255 86.8223 115.79L89.7057 118.562C94.4121 113.668 97.9598 108.188 100.327 102.128L96.6011 100.672ZM86.8084 115.804C82.5801 120.292 77.2462 123.904 70.7632 126.619L72.3088 130.309C79.2445 127.403 85.0626 123.49 89.7196 118.548L86.8084 115.804ZM70.7846 126.611C64.3637 129.214 56.7862 130.544 48.008 130.544V134.544C57.1818 134.544 65.2896 133.154 72.2874 130.317L70.7846 126.611ZM48.008 130.544H11.152V134.544H48.008V130.544ZM49.232 50.712H33.456V54.712H49.232V50.712ZM31.456 52.712V111.736H35.456V52.712H31.456ZM33.456 113.736H49.232V109.736H33.456V113.736ZM49.232 113.736C58.9788 113.736 66.8835 110.883 72.6901 104.978L69.838 102.174C64.9458 107.149 58.1625 109.736 49.232 109.736V113.736ZM72.6901 104.978C78.4677 99.1027 81.288 91.4049 81.288 82.088H77.288C77.288 90.5418 74.759 97.1693 69.838 102.174L72.6901 104.978ZM81.288 82.088C81.288 72.3557 78.4879 64.5631 72.6409 59.0134L69.8872 61.9146C74.7388 66.5195 77.288 73.143 77.288 82.088H81.288ZM72.6536 59.0256C66.8421 53.4111 58.9502 50.712 49.232 50.712V54.712C58.1912 54.712 64.9872 57.1809 69.8744 61.9024L72.6536 59.0256ZM117.402 132H115.402V134H117.402V132ZM117.402 32.72V30.72H115.402V32.72H117.402ZM178.874 32.72H180.874V30.72H178.874V32.72ZM178.874 51.216V53.216H180.874V51.216H178.874ZM139.162 51.216V49.216H137.162V51.216H139.162ZM139.162 72.296H137.162V74.296H139.162V72.296ZM176.698 72.296H178.698V70.296H176.698V72.296ZM176.698 90.792V92.792H178.698V90.792H176.698ZM139.162 90.792V88.792H137.162V90.792H139.162ZM139.162 113.504H137.162V115.504H139.162V113.504ZM179.826 113.504H181.826V111.504H179.826V113.504ZM179.826 132V134H181.826V132H179.826ZM119.402 132V32.72H115.402V132H119.402ZM117.402 34.72H178.874V30.72H117.402V34.72ZM176.874 32.72V51.216H180.874V32.72H176.874ZM178.874 49.216H139.162V53.216H178.874V49.216ZM137.162 51.216V72.296H141.162V51.216H137.162ZM139.162 74.296H176.698V70.296H139.162V74.296ZM174.698 72.296V90.792H178.698V72.296H174.698ZM176.698 88.792H139.162V92.792H176.698V88.792ZM137.162 90.792V113.504H141.162V90.792H137.162ZM139.162 115.504H179.826V111.504H139.162V115.504ZM177.826 113.504V132H181.826V113.504H177.826ZM179.826 130H117.402V134H179.826V130ZM209.184 130.368L208.354 132.188L208.364 132.192L209.184 130.368ZM195.176 118.672L193.475 119.724L193.482 119.735L193.489 119.746L195.176 118.672ZM190.552 101.536V99.536H188.552V101.536H190.552ZM212.176 101.536H214.176V99.536H212.176V101.536ZM216.8 111.6L215.429 113.056L215.451 113.077L215.474 113.097L216.8 111.6ZM246.176 112.28L247.347 113.901L247.362 113.891L247.376 113.88L246.176 112.28ZM246.992 95.416L245.845 97.0545L245.864 97.0675L245.883 97.0801L246.992 95.416ZM233.8 91.744L233.619 93.7358L233.622 93.736L233.8 91.744ZM226.32 91.064L226.501 89.0722L226.493 89.0715L226.485 89.0708L226.32 91.064ZM202.656 81.952L201.312 83.4329L201.318 83.4386L201.324 83.4443L202.656 81.952ZM198.304 44.144L196.64 43.0346L196.632 43.046L196.625 43.0575L198.304 44.144ZM211.088 33.536L211.909 35.3598L211.921 35.3542L211.934 35.3484L211.088 33.536ZM250.392 33.808L249.509 35.6027L249.521 35.6083L250.392 33.808ZM263.312 45.232L261.605 46.2749L261.61 46.282L261.614 46.2891L263.312 45.232ZM267.8 62.096V64.096H269.8V62.096H267.8ZM246.04 62.096H244.04V64.096H246.04V62.096ZM242.096 52.576L243.534 51.1859L243.534 51.1859L242.096 52.576ZM219.248 52.168L220.635 53.6086L220.649 53.5956L220.662 53.5822L219.248 52.168ZM218.432 67.944L216.955 69.2925L216.971 69.3097L216.987 69.3264L218.432 67.944ZM228.36 71.616L228.538 69.6239L228.527 69.623L228.516 69.6221L228.36 71.616ZM235.976 72.296L235.798 74.2881L235.802 74.2884L235.976 72.296ZM255.152 77.056L254.318 78.8737L254.33 78.8793L254.342 78.8849L255.152 77.056ZM268.072 87.256L266.44 88.412L266.454 88.4314L266.468 88.4505L268.072 87.256ZM267.8 119.624L266.16 118.479L266.156 118.486L267.8 119.624ZM253.792 130.64L252.997 128.805L252.997 128.805L253.792 130.64ZM232.032 132.584C223.255 132.584 215.935 131.209 210.004 128.544L208.364 132.192C214.945 135.149 222.857 136.584 232.032 136.584V132.584ZM210.014 128.548C204.147 125.874 199.8 122.213 196.863 117.598L193.489 119.746C196.899 125.105 201.89 129.241 208.354 132.188L210.014 128.548ZM196.877 117.62C194.009 112.98 192.552 107.64 192.552 101.536H188.552C188.552 108.307 190.178 114.39 193.475 119.724L196.877 117.62ZM190.552 103.536H212.176V99.536H190.552V103.536ZM210.176 101.536C210.176 105.96 211.995 109.824 215.429 113.056L218.171 110.144C215.44 107.574 214.176 104.728 214.176 101.536H210.176ZM215.474 113.097C219.186 116.385 224.857 117.816 232.032 117.816V113.816C225.244 113.816 220.761 112.436 218.126 110.103L215.474 113.097ZM232.032 117.816C238.408 117.816 243.604 116.604 247.347 113.901L245.005 110.659C242.22 112.67 237.987 113.816 232.032 113.816V117.816ZM247.376 113.88C251.102 111.086 253.072 107.384 253.072 102.896H249.072C249.072 106.024 247.778 108.578 244.976 110.68L247.376 113.88ZM253.072 102.896C253.072 99.0301 251.358 95.9227 248.101 93.7519L245.883 97.0801C248.066 98.5359 249.072 100.415 249.072 102.896H253.072ZM248.139 93.7775C244.981 91.5672 240.154 90.305 233.978 89.752L233.622 93.736C239.595 94.271 243.563 95.4568 245.845 97.0545L248.139 93.7775ZM233.981 89.7522L226.501 89.0722L226.139 93.0558L233.619 93.7358L233.981 89.7522ZM226.485 89.0708C216.923 88.2813 209.482 85.3621 203.988 80.4597L201.324 83.4443C207.617 89.0592 215.952 92.2147 226.155 93.0572L226.485 89.0708ZM204 80.4711C198.576 75.5472 195.816 68.9943 195.816 60.6H191.816C191.816 69.9764 194.95 77.6581 201.312 83.4329L204 80.4711ZM195.816 60.6C195.816 54.5787 197.231 49.4838 199.983 45.2305L196.625 43.0575C193.393 48.0522 191.816 53.928 191.816 60.6H195.816ZM199.968 45.2534C202.827 40.9651 206.785 37.6654 211.909 35.3598L210.267 31.7122C204.511 34.3025 199.946 38.0749 196.64 43.0346L199.968 45.2534ZM211.934 35.3484C217.054 32.9591 223.19 31.728 230.4 31.728V27.728C222.741 27.728 216.002 29.0355 210.242 31.7236L211.934 35.3484ZM230.4 31.728C237.97 31.728 244.316 33.0487 249.509 35.6027L251.275 32.0133C245.406 29.1273 238.424 27.728 230.4 27.728V31.728ZM249.521 35.6083C254.829 38.1766 258.831 41.7351 261.605 46.2749L265.019 44.1891C261.809 38.9369 257.198 34.8794 251.263 32.0077L249.521 35.6083ZM261.614 46.2891C264.383 50.7354 265.8 55.9798 265.8 62.096H269.8C269.8 55.3375 268.225 49.3392 265.01 44.1749L261.614 46.2891ZM267.8 60.096H246.04V64.096H267.8V60.096ZM248.04 62.096C248.04 57.9263 246.507 54.2611 243.534 51.1859L240.658 53.966C242.944 56.3309 244.04 59.0123 244.04 62.096H248.04ZM243.534 51.1859C240.406 47.9503 235.906 46.496 230.4 46.496V50.496C235.23 50.496 238.527 51.7617 240.658 53.966L243.534 51.1859ZM230.4 46.496C225.117 46.496 220.795 47.7923 217.834 50.7538L220.662 53.5822C222.597 51.6477 225.709 50.496 230.4 50.496V46.496ZM217.861 50.7274C215.039 53.4443 213.576 56.7678 213.576 60.6H217.576C217.576 57.9041 218.561 55.6064 220.635 53.6086L217.861 50.7274ZM213.576 60.6C213.576 63.9123 214.716 66.8406 216.955 69.2925L219.909 66.5955C218.34 64.8767 217.576 62.9091 217.576 60.6H213.576ZM216.987 69.3264C219.476 71.9285 223.371 73.2308 228.204 73.6099L228.516 69.6221C224.101 69.2758 221.378 68.1301 219.877 66.5616L216.987 69.3264ZM228.182 73.6081L235.798 74.2881L236.154 70.3039L228.538 69.6239L228.182 73.6081ZM235.802 74.2884C242.87 74.9069 249.032 76.4473 254.318 78.8737L255.986 75.2383C250.211 72.5873 243.588 70.9544 236.15 70.3036L235.802 74.2884ZM254.342 78.8849C259.588 81.2068 263.593 84.3922 266.44 88.412L269.704 86.1C266.386 81.4158 261.777 77.8011 255.961 75.2271L254.342 78.8849ZM266.468 88.4505C269.344 92.3133 270.832 97.0894 270.832 102.896H274.832C274.832 96.3719 273.146 90.7214 269.676 86.0615L266.468 88.4505ZM270.832 102.896C270.832 108.869 269.261 114.038 266.16 118.479L269.44 120.769C273.049 115.6 274.832 109.616 274.832 102.896H270.832ZM266.156 118.486C263.135 122.848 258.783 126.3 252.997 128.805L254.586 132.475C260.95 129.721 265.937 125.829 269.444 120.762L266.156 118.486ZM252.997 128.805C247.232 131.3 240.263 132.584 232.032 132.584V136.584C240.665 136.584 248.202 135.239 254.586 132.475L252.997 128.805ZM288.471 132H286.471V134H288.471V132ZM288.471 32.72V30.72H286.471V32.72H288.471ZM310.775 32.72H312.775V30.72H310.775V32.72ZM310.775 132V134H312.775V132H310.775ZM290.471 132V32.72H286.471V132H290.471ZM288.471 34.72H310.775V30.72H288.471V34.72ZM308.775 32.72V132H312.775V32.72H308.775ZM310.775 130H288.471V134H310.775V130ZM357.155 130.232L356.331 132.054L356.342 132.059L356.352 132.064L357.155 130.232ZM340.699 118.264L339.179 119.563L339.185 119.571L339.192 119.579L340.699 118.264ZM331.179 101.808L329.287 102.457L329.291 102.466L331.179 101.808ZM331.179 62.096L333.068 62.7542L333.068 62.7542L331.179 62.096ZM340.563 45.776L339.055 44.463L339.048 44.471L339.041 44.4791L340.563 45.776ZM356.339 34.08L355.508 32.261L355.498 32.2656L356.339 34.08ZM401.899 34.76L401.024 36.5582L401.024 36.5582L401.899 34.76ZM418.491 48.632L416.859 49.7873L416.863 49.7933L416.867 49.7993L418.491 48.632ZM425.835 68.76V70.76H428.035L427.826 68.5704L425.835 68.76ZM403.531 68.76L401.558 69.0888L401.837 70.76H403.531V68.76ZM395.235 55.568L394.061 57.1868L394.061 57.1868L395.235 55.568ZM363.275 54.616L364.359 56.2972L364.368 56.2912L363.275 54.616ZM353.891 65.768L355.707 66.6061L355.71 66.5996L355.713 66.593L353.891 65.768ZM358.379 105.48L356.875 106.799L356.881 106.805L356.887 106.812L358.379 105.48ZM394.011 111.736L394.804 113.572L394.821 113.565L394.839 113.557L394.011 111.736ZM403.531 104.664L405.083 105.925L405.531 105.374V104.664H403.531ZM403.531 96.368H405.531V94.368H403.531V96.368ZM377.555 96.368H375.555V98.368H377.555V96.368ZM377.555 80.32V78.32H375.555V80.32H377.555ZM432.227 80.32H434.227V78.32H432.227V80.32ZM432.227 96.368V98.368H434.227V96.368H432.227ZM424.067 96.368V94.368H422.067V96.368H424.067ZM424.067 113.232L425.768 114.284L426.067 113.8V113.232H424.067ZM406.387 129.144L407.255 130.946L407.264 130.941L407.273 130.937L406.387 129.144ZM380.411 132.584C371.74 132.584 364.273 131.168 357.958 128.4L356.352 132.064C363.275 135.098 371.311 136.584 380.411 136.584V132.584ZM357.979 128.41C351.596 125.524 346.352 121.699 342.206 116.949L339.192 119.579C343.751 124.802 349.477 128.956 356.331 132.054L357.979 128.41ZM342.22 116.965C338.114 112.16 335.068 106.891 333.068 101.15L329.291 102.466C331.461 108.693 334.762 114.394 339.179 119.563L342.22 116.965ZM333.071 101.159C331.054 95.2841 330.051 89.3832 330.051 83.448H326.051C326.051 89.8434 327.133 96.1825 329.287 102.457L333.071 101.159ZM330.051 83.448V80.456H326.051V83.448H330.051ZM330.051 80.456C330.051 74.427 331.055 68.5293 333.068 62.7542L329.291 61.4378C327.132 67.6307 326.051 73.973 326.051 80.456H330.051ZM333.068 62.7542C335.07 57.0074 338.073 51.7834 342.086 47.0729L339.041 44.4791C334.712 49.5606 331.459 55.2166 329.291 61.4378L333.068 62.7542ZM342.072 47.089C346.137 42.4183 351.164 38.6849 357.181 35.8944L355.498 32.2656C349.003 35.2778 343.512 39.3417 339.055 44.463L342.072 47.089ZM357.171 35.8989C363.213 33.1367 370.22 31.728 378.235 31.728V27.728C369.749 27.728 362.159 29.2206 355.508 32.261L357.171 35.8989ZM378.235 31.728C386.865 31.728 394.446 33.356 401.024 36.5582L402.775 32.9618C395.571 29.4547 387.376 27.728 378.235 27.728V31.728ZM401.024 36.5582C407.631 39.775 412.894 44.1855 416.859 49.7873L420.124 47.4767C415.747 41.2919 409.948 36.4543 402.775 32.9618L401.024 36.5582ZM416.867 49.7993C420.816 55.294 423.15 61.6605 423.844 68.9496L427.826 68.5704C427.07 60.6275 424.507 53.5754 420.115 47.4647L416.867 49.7993ZM425.835 66.76H403.531V70.76H425.835V66.76ZM405.504 68.4312C404.507 62.4527 401.442 57.6 396.41 53.9492L394.061 57.1868C398.276 60.2453 400.741 64.1873 401.558 69.0888L405.504 68.4312ZM396.41 53.9492C391.387 50.3056 385.29 48.536 378.235 48.536V52.536C384.598 52.536 389.835 54.121 394.061 57.1868L396.41 53.9492ZM378.235 48.536C372.11 48.536 366.729 49.9757 362.183 52.9408L364.368 56.2912C368.162 53.8163 372.755 52.536 378.235 52.536V48.536ZM362.192 52.9349C357.76 55.7907 354.39 59.8189 352.069 64.943L355.713 66.593C357.745 62.1065 360.63 58.7 364.359 56.2971L362.192 52.9349ZM352.075 64.9299C349.757 69.9519 348.627 75.6868 348.627 82.088H352.627C352.627 76.1585 353.673 71.0134 355.707 66.6061L352.075 64.9299ZM348.627 82.088C348.627 92.1547 351.316 100.459 356.875 106.799L359.883 104.161C355.106 98.7138 352.627 91.424 352.627 82.088H348.627ZM356.887 106.812C362.599 113.213 370.532 116.32 380.411 116.32V112.32C371.431 112.32 364.677 109.534 359.871 104.148L356.887 106.812ZM380.411 116.32C385.716 116.32 390.526 115.42 394.804 113.572L393.218 109.9C389.518 111.498 385.261 112.32 380.411 112.32V116.32ZM394.839 113.557C399.061 111.637 402.5 109.105 405.083 105.925L401.979 103.403C399.848 106.026 396.94 108.208 393.184 109.915L394.839 113.557ZM405.531 104.664V96.368H401.531V104.664H405.531ZM403.531 94.368H377.555V98.368H403.531V94.368ZM379.555 96.368V80.32H375.555V96.368H379.555ZM377.555 82.32H432.227V78.32H377.555V82.32ZM430.227 80.32V96.368H434.227V80.32H430.227ZM432.227 94.368H424.067V98.368H432.227V94.368ZM422.067 96.368V113.232H426.067V96.368H422.067ZM422.366 112.18C418.309 118.74 412.704 123.793 405.501 127.351L407.273 130.937C415.121 127.06 421.302 121.505 425.768 114.284L422.366 112.18ZM405.519 127.342C398.307 130.818 389.954 132.584 380.411 132.584V136.584C390.452 136.584 399.416 134.724 407.255 130.946L405.519 127.342ZM446.644 132H444.644V134H446.644V132ZM446.644 32.72V30.72H444.644V32.72H446.644ZM483.228 32.72L485.045 31.8832L484.509 30.72H483.228V32.72ZM520.628 113.912L518.812 114.749L519.347 115.912H520.628V113.912ZM522.532 113.912V115.912H524.532V113.912H522.532ZM522.532 32.72V30.72H520.532V32.72H522.532ZM543.476 32.72H545.476V30.72H543.476V32.72ZM543.476 132V134H545.476V132H543.476ZM506.62 132L504.804 132.837L505.339 134H506.62V132ZM469.22 50.808L471.037 49.9712L470.501 48.808H469.22V50.808ZM467.316 50.808V48.808H465.316V50.808H467.316ZM467.316 132V134H469.316V132H467.316ZM448.644 132V32.72H444.644V132H448.644ZM446.644 34.72H483.228V30.72H446.644V34.72ZM481.412 33.5568L518.812 114.749L522.445 113.075L485.045 31.8832L481.412 33.5568ZM520.628 115.912H522.532V111.912H520.628V115.912ZM524.532 113.912V32.72H520.532V113.912H524.532ZM522.532 34.72H543.476V30.72H522.532V34.72ZM541.476 32.72V132H545.476V32.72H541.476ZM543.476 130H506.62V134H543.476V130ZM508.437 131.163L471.037 49.9712L467.404 51.6448L504.804 132.837L508.437 131.163ZM469.22 48.808H467.316V52.808H469.22V48.808ZM465.316 50.808V132H469.316V50.808H465.316ZM467.316 130H446.644V134H467.316V130Z" fill="white"/>
</svg>
