<svg width="124" height="35" viewBox="0 0 124 35" fill="none" xmlns="http://www.w3.org/2000/svg">
<g clip-path="url(#clip0_507_507)">
<path d="M11.3338 11.8333L5.66711 6.16675L0.000448572 11.8333L5.66711 17.4999L11.3338 11.8333Z" fill="white"/>
<path d="M11.3338 23.1661L5.66718 17.4995L0.000509411 23.1661L5.66717 28.8327L11.3338 23.1661Z" fill="white"/>
<path d="M11.3331 0.5L17.0002 6.16706L11.3331 11.8329V6.16706V0.5Z" fill="white"/>
<path d="M28.3337 17.4996L22.6671 11.833L17.0004 17.4996L22.6671 23.1662L28.3337 17.4996Z" fill="white"/>
<path d="M22.6667 11.8331L17.0001 6.1665L11.3334 11.8331L17.0001 17.4997L22.6667 11.8331Z" fill="white"/>
<path d="M11.3331 23.1658L17.0002 28.8328L11.3331 34.4999V28.8328V23.1658Z" fill="white"/>
<path d="M22.6668 23.1659L17.0001 17.4993L11.3335 23.1659L17.0001 28.8324L22.6668 23.1659Z" fill="white"/>
</g>
<path d="M44.3814 24.342C43.1934 24.342 42.1854 24.156 41.3574 23.784C40.5414 23.412 39.9234 22.896 39.5034 22.236C39.0954 21.576 38.8914 20.82 38.8914 19.968H41.7534C41.7534 20.472 41.9574 20.916 42.3654 21.3C42.7854 21.672 43.4574 21.858 44.3814 21.858C45.1974 21.858 45.8214 21.702 46.2534 21.39C46.6854 21.066 46.9014 20.652 46.9014 20.148C46.9014 19.728 46.7214 19.398 46.3614 19.158C46.0014 18.906 45.4194 18.744 44.6154 18.672L43.6254 18.582C42.3174 18.474 41.2734 18.072 40.4934 17.376C39.7134 16.668 39.3234 15.726 39.3234 14.55C39.3234 13.71 39.5214 12.984 39.9174 12.372C40.3254 11.76 40.8894 11.292 41.6094 10.968C42.3294 10.632 43.1814 10.464 44.1654 10.464C45.1974 10.464 46.0794 10.644 46.8114 11.004C47.5554 11.364 48.1254 11.868 48.5214 12.516C48.9174 13.152 49.1154 13.896 49.1154 14.748H46.2354C46.2354 14.268 46.0614 13.848 45.7134 13.488C45.3654 13.128 44.8494 12.948 44.1654 12.948C43.5054 12.948 43.0134 13.11 42.6894 13.434C42.3654 13.746 42.2034 14.118 42.2034 14.55C42.2034 14.922 42.3294 15.246 42.5814 15.522C42.8454 15.798 43.2834 15.96 43.8954 16.008L44.9034 16.098C45.8634 16.182 46.7094 16.392 47.4414 16.728C48.1734 17.052 48.7434 17.502 49.1514 18.078C49.5714 18.642 49.7814 19.332 49.7814 20.148C49.7814 20.988 49.5594 21.726 49.1154 22.362C48.6834 22.986 48.0654 23.472 47.2614 23.82C46.4574 24.168 45.4974 24.342 44.3814 24.342ZM51.8152 24V10.86H55.8832L58.8892 18.24H59.2312L62.2012 10.86H66.3412V24H63.4252V13.866L60.3652 21.336H57.5572L54.5152 13.938V24H51.8152ZM75.5879 24.342C74.3999 24.342 73.3619 24.138 72.4739 23.73C71.5979 23.31 70.8719 22.764 70.2959 22.092C69.7199 21.408 69.2879 20.676 68.9999 19.896C68.7239 19.104 68.5859 18.336 68.5859 17.592V17.196C68.5859 16.38 68.7299 15.576 69.0179 14.784C69.3179 13.992 69.7619 13.272 70.3499 12.624C70.9379 11.964 71.6699 11.442 72.5459 11.058C73.4219 10.662 74.4359 10.464 75.5879 10.464C76.7399 10.464 77.7539 10.662 78.6299 11.058C79.5059 11.442 80.2379 11.964 80.8259 12.624C81.4139 13.272 81.8579 13.992 82.1579 14.784C82.4579 15.576 82.6079 16.38 82.6079 17.196V17.592C82.6079 18.336 82.4639 19.104 82.1759 19.896C81.8879 20.676 81.4559 21.408 80.8799 22.092C80.3039 22.764 79.5719 23.31 78.6839 23.73C77.8079 24.138 76.7759 24.342 75.5879 24.342ZM75.5879 21.588C76.4159 21.588 77.1299 21.402 77.7299 21.03C78.3419 20.658 78.8099 20.154 79.1339 19.518C79.4579 18.882 79.6199 18.18 79.6199 17.412C79.6199 16.596 79.4519 15.876 79.1159 15.252C78.7919 14.616 78.3299 14.118 77.7299 13.758C77.1299 13.398 76.4159 13.218 75.5879 13.218C74.7599 13.218 74.0459 13.398 73.4459 13.758C72.8459 14.118 72.3839 14.616 72.0599 15.252C71.7359 15.876 71.5739 16.596 71.5739 17.412C71.5739 18.18 71.7359 18.882 72.0599 19.518C72.3839 20.154 72.8459 20.658 73.4459 21.03C74.0459 21.402 74.7599 21.588 75.5879 21.588ZM91.1445 24.342C89.9565 24.342 88.9185 24.138 88.0305 23.73C87.1545 23.31 86.4285 22.764 85.8525 22.092C85.2765 21.408 84.8445 20.676 84.5565 19.896C84.2805 19.104 84.1425 18.336 84.1425 17.592V17.196C84.1425 16.38 84.2865 15.576 84.5745 14.784C84.8745 13.992 85.3185 13.272 85.9065 12.624C86.4945 11.964 87.2265 11.442 88.1025 11.058C88.9785 10.662 89.9925 10.464 91.1445 10.464C92.2965 10.464 93.3105 10.662 94.1865 11.058C95.0625 11.442 95.7945 11.964 96.3825 12.624C96.9705 13.272 97.4145 13.992 97.7145 14.784C98.0145 15.576 98.1645 16.38 98.1645 17.196V17.592C98.1645 18.336 98.0205 19.104 97.7325 19.896C97.4445 20.676 97.0125 21.408 96.4365 22.092C95.8605 22.764 95.1285 23.31 94.2405 23.73C93.3645 24.138 92.3325 24.342 91.1445 24.342ZM91.1445 21.588C91.9725 21.588 92.6865 21.402 93.2865 21.03C93.8985 20.658 94.3665 20.154 94.6905 19.518C95.0145 18.882 95.1765 18.18 95.1765 17.412C95.1765 16.596 95.0085 15.876 94.6725 15.252C94.3485 14.616 93.8865 14.118 93.2865 13.758C92.6865 13.398 91.9725 13.218 91.1445 13.218C90.3165 13.218 89.6025 13.398 89.0025 13.758C88.4025 14.118 87.9405 14.616 87.6165 15.252C87.2925 15.876 87.1305 16.596 87.1305 17.412C87.1305 18.18 87.2925 18.882 87.6165 19.518C87.9405 20.154 88.4025 20.658 89.0025 21.03C89.6025 21.402 90.3165 21.588 91.1445 21.588ZM103.088 24L99.0922 10.86H102.134L105.194 21.606H105.824L108.668 10.86H111.62L107.894 24H103.088ZM113.514 24V10.86H121.65V13.308H116.394V16.098H121.362V18.546H116.394V21.552H121.776V24H113.514Z" fill="white"/>
<defs>
<clipPath id="clip0_507_507">
<rect width="28.3333" height="34" fill="white" transform="translate(0 0.5)"/>
</clipPath>
</defs>
</svg>
