<svg width="546" height="171" viewBox="0 0 546 171" fill="none" xmlns="http://www.w3.org/2000/svg">
<path d="M30.872 132H28.872V134H30.872V132ZM30.872 52.168H32.872V50.168H30.872V52.168ZM2.992 52.168H0.992V54.168H2.992V52.168ZM2.992 32.72V30.72H0.992V32.72H2.992ZM81.192 32.72H83.192V30.72H81.192V32.72ZM81.192 52.168V54.168H83.192V52.168H81.192ZM53.176 52.168V50.168H51.176V52.168H53.176ZM53.176 132V134H55.176V132H53.176ZM32.872 132V52.168H28.872V132H32.872ZM30.872 50.168H2.992V54.168H30.872V50.168ZM4.992 52.168V32.72H0.992V52.168H4.992ZM2.992 34.72H81.192V30.72H2.992V34.72ZM79.192 32.72V52.168H83.192V32.72H79.192ZM81.192 50.168H53.176V54.168H81.192V50.168ZM51.176 52.168V132H55.176V52.168H51.176ZM53.176 130H30.872V134H53.176V130ZM76.9399 132L75.0407 131.373L74.1734 134H76.9399V132ZM109.716 32.72V30.72H108.27L107.817 32.093L109.716 32.72ZM145.756 32.72L147.648 32.072L147.185 30.72H145.756V32.72ZM179.756 132V134H182.555L181.648 131.352L179.756 132ZM156.636 132L154.734 132.62L155.184 134H156.636V132ZM148.612 107.384L150.513 106.764L150.064 105.384H148.612V107.384ZM107.132 107.384V105.384H105.673L105.227 106.774L107.132 107.384ZM99.2439 132V134H100.703L101.148 132.61L99.2439 132ZM112.98 88.888L111.074 88.2802L110.243 90.888H112.98V88.888ZM142.492 88.888V90.888H145.248L144.393 88.2678L142.492 88.888ZM130.116 50.944L132.017 50.3238L131.567 48.944H130.116V50.944ZM125.084 50.944V48.944H123.623L123.178 50.3362L125.084 50.944ZM78.8391 132.627L111.615 33.347L107.817 32.093L75.0407 131.373L78.8391 132.627ZM109.716 34.72H145.756V30.72H109.716V34.72ZM143.864 33.368L177.864 132.648L181.648 131.352L147.648 32.072L143.864 33.368ZM179.756 130H156.636V134H179.756V130ZM158.537 131.38L150.513 106.764L146.71 108.004L154.734 132.62L158.537 131.38ZM148.612 105.384H107.132V109.384H148.612V105.384ZM105.227 106.774L97.3393 131.39L101.148 132.61L109.036 107.994L105.227 106.774ZM99.2439 130H76.9399V134H99.2439V130ZM112.98 90.888H142.492V86.888H112.98V90.888ZM144.393 88.2678L132.017 50.3238L128.214 51.5642L140.59 89.5082L144.393 88.2678ZM130.116 48.944H125.084V52.944H130.116V48.944ZM123.178 50.3362L111.074 88.2802L114.885 89.4958L126.989 51.5518L123.178 50.3362ZM211.03 129.96L210.145 131.754L210.155 131.759L210.166 131.764L211.03 129.96ZM195.118 117.584L193.548 118.823L193.56 118.839L193.572 118.853L195.118 117.584ZM186.142 100.992L184.236 101.598L184.238 101.607L186.142 100.992ZM186.278 62.368L188.175 63.0005L188.178 62.9919L186.278 62.368ZM195.389 45.912L193.867 44.6151L193.86 44.6233L193.853 44.6316L195.389 45.912ZM211.03 34.216L211.871 36.0304L211.882 36.025L211.03 34.216ZM257.134 34.76L256.249 36.5536L256.258 36.5582L257.134 34.76ZM273.59 48.768L271.937 49.8947L271.943 49.9032L271.949 49.9116L273.59 48.768ZM281.07 69.576V71.576H283.287L283.059 69.3702L281.07 69.576ZM258.63 69.576L256.658 69.9097L256.94 71.576H258.63V69.576ZM250.334 55.704L249.123 57.2963L249.134 57.3041L249.144 57.3117L250.334 55.704ZM212.934 59.376L211.383 58.1121L211.381 58.1148L212.934 59.376ZM209.126 98.816L207.304 99.641L207.307 99.6476L207.31 99.6541L209.126 98.816ZM218.646 109.832L217.579 111.524L217.587 111.529L217.595 111.534L218.646 109.832ZM251.558 108.744L250.413 107.104L250.405 107.109L250.398 107.114L251.558 108.744ZM260.262 94.872V92.872H258.572L258.29 94.5383L260.262 94.872ZM282.566 94.872L284.553 95.0929L284.8 92.872H282.566V94.872ZM275.222 114.864L273.569 113.737L273.563 113.746L273.557 113.755L275.222 114.864ZM258.766 129.28L259.679 131.059L259.687 131.055L258.766 129.28ZM234.15 132.584C225.398 132.584 218.001 131.081 211.893 128.156L210.166 131.764C216.933 135.004 224.949 136.584 234.15 136.584V132.584ZM211.914 128.166C205.708 125.107 200.637 121.152 196.663 116.315L193.572 118.853C197.939 124.17 203.476 128.466 210.145 131.754L211.914 128.166ZM196.687 116.345C192.745 111.351 189.871 106.03 188.045 100.377L184.238 101.607C186.22 107.74 189.33 113.481 193.548 118.823L196.687 116.345ZM188.047 100.386C186.199 94.575 185.286 88.977 185.286 83.584H181.286C181.286 89.4336 182.276 95.441 184.236 101.598L188.047 100.386ZM185.286 83.584V80.592H181.286V83.584H185.286ZM185.286 80.592C185.286 74.6466 186.247 68.7853 188.175 63.0005L184.38 61.7355C182.319 67.9187 181.286 74.2067 181.286 80.592H185.286ZM188.178 62.9919C190.094 57.1563 193.008 51.8938 196.926 47.1924L193.853 44.6316C189.611 49.7222 186.45 55.4304 184.377 61.7441L188.178 62.9919ZM196.912 47.2089C200.882 42.5481 205.857 38.8193 211.871 36.0304L210.188 32.4016C203.69 35.4154 198.238 39.4839 193.867 44.6151L196.912 47.2089ZM211.882 36.025C217.909 33.1841 225.085 31.728 233.47 31.728V27.728C224.627 27.728 216.844 29.2639 210.177 32.4069L211.882 36.025ZM233.47 31.728C242.195 31.728 249.77 33.3575 256.249 36.5536L258.018 32.9664C250.897 29.4532 242.696 27.728 233.47 27.728V31.728ZM256.258 36.5582C262.855 39.7697 268.065 44.2152 271.937 49.8947L275.242 47.6413C270.954 41.3528 265.194 36.4596 258.009 32.9618L256.258 36.5582ZM271.949 49.9116C275.909 55.5937 278.296 62.2007 279.08 69.7818L283.059 69.3702C282.211 61.1753 279.611 53.9103 275.23 47.6244L271.949 49.9116ZM281.07 67.576H258.63V71.576H281.07V67.576ZM260.601 69.2423C259.524 62.8728 256.499 57.7783 251.523 54.0963L249.144 57.3117C253.235 60.339 255.741 64.4925 256.658 69.9097L260.601 69.2423ZM251.544 54.1117C246.603 50.3568 240.535 48.536 233.47 48.536V52.536C239.822 52.536 244.997 54.1605 249.123 57.2963L251.544 54.1117ZM233.47 48.536C224.096 48.536 216.635 51.6719 211.383 58.1121L214.484 60.6399C218.843 55.2934 225.072 52.536 233.47 52.536V48.536ZM211.381 58.1148C206.308 64.3588 203.862 72.458 203.862 82.224H207.862C207.862 73.1314 210.13 65.9986 214.486 60.6372L211.381 58.1148ZM203.862 82.224C203.862 88.7123 204.99 94.5328 207.304 99.641L210.947 97.991C208.909 93.4885 207.862 88.2477 207.862 82.224H203.862ZM207.31 99.6541C209.639 104.7 213.063 108.677 217.579 111.524L219.712 108.14C215.886 105.728 212.964 102.361 210.941 97.9779L207.31 99.6541ZM217.595 111.534C222.234 114.396 227.783 115.776 234.15 115.776V111.776C228.366 111.776 223.58 110.527 219.696 108.13L217.595 111.534ZM234.15 115.776C241.375 115.776 247.603 114.012 252.717 110.374L250.398 107.114C246.083 110.185 240.706 111.776 234.15 111.776V115.776ZM252.702 110.384C257.957 106.716 261.149 101.616 262.233 95.2057L258.29 94.5383C257.38 99.9148 254.769 104.063 250.413 107.104L252.702 110.384ZM260.262 96.872H282.566V92.872H260.262V96.872ZM280.578 94.6511C279.797 101.677 277.461 108.029 273.569 113.737L276.874 115.991C281.142 109.731 283.702 102.755 284.553 95.0929L280.578 94.6511ZM273.557 113.755C269.773 119.432 264.554 124.019 257.844 127.505L259.687 131.055C266.94 127.287 272.692 122.264 276.886 115.973L273.557 113.755ZM257.852 127.501C251.302 130.862 243.424 132.584 234.15 132.584V136.584C243.915 136.584 252.448 134.77 259.679 131.059L257.852 127.501ZM297.363 132H295.363V134H297.363V132ZM297.363 32.72V30.72H295.363V32.72H297.363ZM319.667 32.72H321.667V30.72H319.667V32.72ZM319.667 79.096H317.667V84.8605L321.237 80.3347L319.667 79.096ZM356.251 32.72V30.72H355.281L354.681 31.4813L356.251 32.72ZM381.819 32.72L383.39 33.9578L385.941 30.72H381.819V32.72ZM347.955 75.696L346.384 74.4582L345.439 75.6572L346.347 76.8848L347.955 75.696ZM389.571 132V134H393.536L391.179 130.811L389.571 132ZM362.643 132L361.034 133.189L361.634 134H362.643V132ZM328.371 85.624L329.979 84.4353L329.38 83.624H328.371V85.624ZM319.667 85.624V83.624H317.667V85.624H319.667ZM319.667 132V134H321.667V132H319.667ZM299.363 132V32.72H295.363V132H299.363ZM297.363 34.72H319.667V30.72H297.363V34.72ZM317.667 32.72V79.096H321.667V32.72H317.667ZM321.237 80.3347L357.821 33.9587L354.681 31.4813L318.097 77.8573L321.237 80.3347ZM356.251 34.72H381.819V30.72H356.251V34.72ZM380.248 31.4822L346.384 74.4582L349.526 76.9338L383.39 33.9578L380.248 31.4822ZM346.347 76.8848L387.963 133.189L391.179 130.811L349.563 74.5072L346.347 76.8848ZM389.571 130H362.643V134H389.571V130ZM364.251 130.811L329.979 84.4353L326.762 86.8126L361.034 133.189L364.251 130.811ZM328.371 83.624H319.667V87.624H328.371V83.624ZM317.667 85.624V132H321.667V85.624H317.667ZM319.667 130H297.363V134H319.667V130ZM399.629 132H397.629V134H399.629V132ZM399.629 32.72V30.72H397.629V32.72H399.629ZM421.933 32.72H423.933V30.72H421.933V32.72ZM421.933 112.416H419.933V114.416H421.933V112.416ZM460.829 112.416H462.829V110.416H460.829V112.416ZM460.829 132V134H462.829V132H460.829ZM401.629 132V32.72H397.629V132H401.629ZM399.629 34.72H421.933V30.72H399.629V34.72ZM419.933 32.72V112.416H423.933V32.72H419.933ZM421.933 114.416H460.829V110.416H421.933V114.416ZM458.829 112.416V132H462.829V112.416H458.829ZM460.829 130H399.629V134H460.829V130ZM475.465 132H473.465V134H475.465V132ZM475.465 32.72V30.72H473.465V32.72H475.465ZM536.937 32.72H538.937V30.72H536.937V32.72ZM536.937 51.216V53.216H538.937V51.216H536.937ZM497.225 51.216V49.216H495.225V51.216H497.225ZM497.225 72.296H495.225V74.296H497.225V72.296ZM534.761 72.296H536.761V70.296H534.761V72.296ZM534.761 90.792V92.792H536.761V90.792H534.761ZM497.225 90.792V88.792H495.225V90.792H497.225ZM497.225 113.504H495.225V115.504H497.225V113.504ZM537.889 113.504H539.889V111.504H537.889V113.504ZM537.889 132V134H539.889V132H537.889ZM477.465 132V32.72H473.465V132H477.465ZM475.465 34.72H536.937V30.72H475.465V34.72ZM534.937 32.72V51.216H538.937V32.72H534.937ZM536.937 49.216H497.225V53.216H536.937V49.216ZM495.225 51.216V72.296H499.225V51.216H495.225ZM497.225 74.296H534.761V70.296H497.225V74.296ZM532.761 72.296V90.792H536.761V72.296H532.761ZM534.761 88.792H497.225V92.792H534.761V88.792ZM495.225 90.792V113.504H499.225V90.792H495.225ZM497.225 115.504H537.889V111.504H497.225V115.504ZM535.889 113.504V132H539.889V113.504H535.889ZM537.889 130H475.465V134H537.889V130Z" fill="white"/>
</svg>
