<svg width="456" height="106" viewBox="0 0 456 106" fill="none" xmlns="http://www.w3.org/2000/svg">
<path d="M18.848 101.368L17.1888 105.008L17.1987 105.012L17.2087 105.017L18.848 101.368ZM4.84 89.672L1.43762 91.7753L1.45134 91.7975L1.46535 91.8195L4.84 89.672ZM0.216 72.536V68.536H-3.784V72.536H0.216ZM21.84 72.536H25.84V68.536H21.84V72.536ZM26.464 82.6L23.7225 85.5128L23.7666 85.5543L23.8119 85.5944L26.464 82.6ZM55.84 83.28L58.182 86.5227L58.2112 86.5016L58.24 86.48L55.84 83.28ZM56.656 66.416L54.3622 69.6929L54.3994 69.719L54.4372 69.7442L56.656 66.416ZM43.464 62.744L43.1019 66.7276L43.1072 66.7281L43.464 62.744ZM35.984 62.064L36.3461 58.0804L36.3297 58.0789L36.3132 58.0776L35.984 62.064ZM12.32 52.952L9.63158 55.9138L9.64417 55.9252L9.65685 55.9366L12.32 52.952ZM7.968 15.144L4.6398 12.9252L4.6246 12.948L4.60972 12.971L7.968 15.144ZM20.752 4.536L22.3935 8.18368L22.4186 8.17238L22.4435 8.16073L20.752 4.536ZM60.056 4.80799L58.2907 8.39739L58.3022 8.40305L58.3138 8.40863L60.056 4.80799ZM72.976 16.232L69.5629 18.3178L69.5716 18.3321L69.5804 18.3462L72.976 16.232ZM77.464 33.096V37.096H81.464V33.096H77.464ZM55.704 33.096H51.704V37.096H55.704V33.096ZM51.76 23.576L54.636 20.7959L54.636 20.7959L51.76 23.576ZM28.912 23.168L31.6866 26.0493L31.7137 26.0231L31.7404 25.9964L28.912 23.168ZM28.096 38.944L25.1421 41.6411L25.1734 41.6753L25.2054 41.7089L28.096 38.944ZM38.024 42.616L38.3797 38.6318L38.3583 38.6299L38.3368 38.6282L38.024 42.616ZM45.64 43.296L45.2843 47.2802L45.2913 47.2808L45.64 43.296ZM64.816 48.056L63.1473 51.6913L63.1721 51.7027L63.197 51.7137L64.816 48.056ZM77.736 58.256L74.4719 60.5681L74.4994 60.6069L74.5278 60.6451L77.736 58.256ZM77.464 90.624L74.1842 88.3343L74.1797 88.3407L74.1752 88.3472L77.464 90.624ZM63.456 101.64L61.8671 97.9691L61.8671 97.9691L63.456 101.64ZM41.696 101.584C33.1184 101.584 26.0948 100.239 20.4873 97.7193L17.2087 105.017C24.1132 108.119 32.3216 109.584 41.696 109.584V101.584ZM20.5072 97.7284C14.9402 95.1905 10.9143 91.7667 8.21465 87.5245L1.46535 91.8195C5.11242 97.5506 10.4251 101.924 17.1888 105.008L20.5072 97.7284ZM8.24238 87.5687C5.5882 83.2752 4.216 78.3057 4.216 72.536H-3.784C-3.784 79.641 -2.07353 86.0955 1.43762 91.7753L8.24238 87.5687ZM0.216 76.536H21.84V68.536H0.216V76.536ZM17.84 72.536C17.84 77.5761 19.9359 81.9489 23.7225 85.5128L29.2055 79.6872C26.8267 77.4484 25.84 75.1119 25.84 72.536H17.84ZM23.8119 85.5944C28.0627 89.3594 34.328 90.816 41.696 90.816V82.816C35.1014 82.816 31.212 81.462 29.1161 79.6056L23.8119 85.5944ZM41.696 90.816C48.2829 90.816 53.9609 89.5713 58.182 86.5227L53.498 80.0373C51.1911 81.7034 47.4398 82.816 41.696 82.816V90.816ZM58.24 86.48C62.4276 83.3393 64.736 79.064 64.736 73.896H56.736C56.736 76.344 55.7804 78.3247 53.44 80.08L58.24 86.48ZM64.736 73.896C64.736 69.3375 62.6673 65.6161 58.8748 63.0878L54.4372 69.7442C56.0847 70.8425 56.736 72.1078 56.736 73.896H64.736ZM58.9499 63.1391C55.3545 60.6223 50.0969 59.322 43.8208 58.7599L43.1072 66.7281C48.9804 67.254 52.5175 68.4017 54.3622 69.6929L58.9499 63.1391ZM43.8261 58.7604L36.3461 58.0804L35.6219 66.0476L43.1019 66.7276L43.8261 58.7604ZM36.3132 58.0776C27.0722 57.3146 20.078 54.5136 14.9832 49.9674L9.65685 55.9366C16.3487 61.9078 25.1304 65.1814 35.6548 66.0504L36.3132 58.0776ZM15.0084 49.9902C10.0526 45.4918 7.48 39.5032 7.48 31.6H-0.52C-0.52 41.4675 2.80073 49.7135 9.63158 55.9138L15.0084 49.9902ZM7.48 31.6C7.48 25.904 8.81405 21.1995 11.3263 17.317L4.60972 12.971C1.13795 18.3365 -0.52 24.6026 -0.52 31.6H7.48ZM11.2962 17.3628C13.9312 13.4103 17.5863 10.3469 22.3935 8.18368L19.1105 0.888309C13.0377 3.6211 8.17011 7.62973 4.6398 12.9252L11.2962 17.3628ZM22.4435 8.16073C27.2432 5.92091 33.0779 4.728 40.064 4.728V-3.272C32.1808 -3.272 25.1408 -1.92625 19.0605 0.911262L22.4435 8.16073ZM40.064 4.728C47.407 4.728 53.4352 6.00944 58.2907 8.39739L61.8213 1.21859C55.6155 -1.83345 48.3157 -3.272 40.064 -3.272V4.728ZM58.3138 8.40863C63.3079 10.8251 67.0063 14.1343 69.5629 18.3178L76.3891 14.1462C72.9617 8.53772 68.0468 4.23085 61.7982 1.20735L58.3138 8.40863ZM69.5804 18.3462C72.1253 22.4335 73.464 27.301 73.464 33.096H81.464C81.464 26.0163 79.8107 19.6412 76.3716 14.1178L69.5804 18.3462ZM77.464 29.096H55.704V37.096H77.464V29.096ZM59.704 33.096C59.704 28.3834 57.9518 24.2261 54.636 20.7959L48.884 26.3561C50.8269 28.3659 51.704 30.5553 51.704 33.096H59.704ZM54.636 20.7959C51.0096 17.0446 45.9077 15.496 40.064 15.496V23.496C44.5563 23.496 47.2517 24.6674 48.8841 26.3561L54.636 20.7959ZM40.064 15.496C34.4856 15.496 29.5586 16.8646 26.0836 20.3396L31.7404 25.9964C33.1614 24.5754 35.6691 23.496 40.064 23.496V15.496ZM26.1374 20.2867C22.9426 23.3632 21.24 27.1997 21.24 31.6H29.24C29.24 29.4723 29.9854 27.6875 31.6866 26.0493L26.1374 20.2867ZM21.24 31.6C21.24 35.4139 22.5686 38.8225 25.1421 41.6411L31.0499 36.2469C29.8154 34.8948 29.24 33.4075 29.24 31.6H21.24ZM25.2054 41.7089C28.1887 44.8278 32.6695 46.2083 37.7112 46.6037L38.3368 38.6282C34.1305 38.2983 31.9926 37.2309 30.9866 36.1791L25.2054 41.7089ZM37.6683 46.6001L45.2843 47.2801L45.9957 39.3118L38.3797 38.6318L37.6683 46.6001ZM45.2913 47.2808C52.1752 47.8831 58.1062 49.3773 63.1473 51.6913L66.4847 44.4207C60.4645 41.6573 53.6115 39.9782 45.9887 39.3112L45.2913 47.2808ZM63.197 51.7137C68.1583 53.9097 71.8598 56.8805 74.4719 60.5681L81.0001 55.9439C77.4468 50.9275 72.535 47.0983 66.435 44.3983L63.197 51.7137ZM74.5278 60.6451C77.1075 64.1092 78.496 68.4481 78.496 73.896H86.496C86.496 67.0132 84.7111 60.9254 80.9442 55.8669L74.5278 60.6451ZM78.496 73.896C78.496 79.4951 77.0308 84.2568 74.1842 88.3343L80.7438 92.9137C84.6066 87.3806 86.496 80.9902 86.496 73.896H78.496ZM74.1752 88.3472C71.3989 92.3575 67.364 95.5899 61.8671 97.9691L65.0449 105.311C71.6973 102.431 77.0012 98.3198 80.7528 92.9008L74.1752 88.3472ZM61.8671 97.9691C56.4112 100.331 49.7255 101.584 41.696 101.584V109.584C50.5306 109.584 58.3515 108.208 65.0449 105.311L61.8671 97.9691ZM114.661 103H110.661V107H114.661V103ZM114.661 23.168H118.661V19.168H114.661V23.168ZM86.7811 23.168H82.7811V27.168H86.7811V23.168ZM86.7811 3.72V-0.280003H82.7811V3.72H86.7811ZM164.981 3.72H168.981V-0.280003H164.981V3.72ZM164.981 23.168V27.168H168.981V23.168H164.981ZM136.965 23.168V19.168H132.965V23.168H136.965ZM136.965 103V107H140.965V103H136.965ZM118.661 103V23.168H110.661V103H118.661ZM114.661 19.168H86.7811V27.168H114.661V19.168ZM90.7811 23.168V3.72H82.7811V23.168H90.7811ZM86.7811 7.72H164.981V-0.280003H86.7811V7.72ZM160.981 3.72V23.168H168.981V3.72H160.981ZM164.981 19.168H136.965V27.168H164.981V19.168ZM132.965 23.168V103H140.965V23.168H132.965ZM136.965 99H114.661V107H136.965V99ZM200.427 100.96L198.698 104.567L198.727 104.581L198.757 104.595L200.427 100.96ZM183.971 88.584L180.911 91.1605L180.923 91.1739L180.934 91.1872L183.971 88.584ZM174.179 71.992L170.402 73.3083L170.414 73.343L170.427 73.3775L174.179 71.992ZM174.315 33.368L170.574 31.9511L170.565 31.976L170.556 32.001L174.315 33.368ZM184.379 17.048L187.341 19.736L187.354 19.7224L187.366 19.7088L184.379 17.048ZM200.971 5.21599L202.577 8.87947L202.598 8.87029L202.619 8.86087L200.971 5.21599ZM246.939 5.21599L245.291 8.86087L245.312 8.87029L245.333 8.87947L246.939 5.21599ZM263.531 17.048L260.544 19.7088L260.557 19.7224L260.569 19.736L263.531 17.048ZM273.595 33.368L277.336 31.9511L277.336 31.9511L273.595 33.368ZM273.731 71.992L277.484 73.3775L277.487 73.3682L277.49 73.359L273.731 71.992ZM263.939 88.584L266.976 91.1872L266.988 91.1739L266.999 91.1605L263.939 88.584ZM247.347 100.96L249.036 104.586L249.047 104.581L249.057 104.576L247.347 100.96ZM240.139 80.56L238.061 77.1419L238.046 77.1511L238.031 77.1604L240.139 80.56ZM250.747 69.136L247.183 67.3203L247.183 67.3203L250.747 69.136ZM250.611 36.904L247.047 38.7197L247.068 38.7603L247.089 38.8004L250.611 36.904ZM240.139 25.616L238.081 29.046L238.081 29.046L240.139 25.616ZM207.771 25.616L209.829 29.046L209.829 29.046L207.771 25.616ZM197.299 36.904L200.849 38.7473L200.856 38.7335L200.863 38.7197L197.299 36.904ZM197.299 69.136L200.863 67.3203L200.863 67.3203L197.299 69.136ZM207.771 80.56L209.879 77.1604L209.879 77.1604L207.771 80.56ZM223.955 101.584C215.434 101.584 208.182 100.121 202.097 97.3253L198.757 104.595C206.091 107.964 214.525 109.584 223.955 109.584V101.584ZM202.156 97.3531C195.989 94.3963 190.965 90.5968 187.008 85.9808L180.934 91.1872C185.682 96.7258 191.628 101.177 198.698 104.567L202.156 97.3531ZM187.031 86.0075C182.954 81.1666 179.936 76.034 177.932 70.6065L170.427 73.3775C172.775 79.7366 176.284 85.6654 180.911 91.1605L187.031 86.0075ZM177.956 70.6757C176 65.0616 175.051 59.704 175.051 54.584H167.051C167.051 60.7066 168.188 66.9544 170.402 73.3083L177.956 70.6757ZM175.051 54.584V51.592H167.051V54.584H175.051ZM175.051 51.592C175.051 45.9081 176.052 40.2954 178.074 34.735L170.556 32.001C168.226 38.4086 167.051 44.9452 167.051 51.592H175.051ZM178.056 34.7849C180.139 29.2852 183.224 24.2733 187.341 19.736L181.417 14.36C176.649 19.6147 173.025 25.4828 170.574 31.9511L178.056 34.7849ZM187.366 19.7088C191.395 15.1862 196.442 11.569 202.577 8.87947L199.365 1.55252C192.263 4.66564 186.249 8.93649 181.392 14.3872L187.366 19.7088ZM202.619 8.86087C208.627 6.14465 215.709 4.728 223.955 4.728V-3.272C214.794 -3.272 206.552 -1.69666 199.323 1.57112L202.619 8.86087ZM223.955 4.728C232.202 4.728 239.283 6.14465 245.291 8.86087L248.587 1.57112C241.358 -1.69666 233.116 -3.272 223.955 -3.272V4.728ZM245.333 8.87947C251.469 11.569 256.515 15.1862 260.544 19.7088L266.518 14.3872C261.662 8.93649 255.647 4.66564 248.545 1.55252L245.333 8.87947ZM260.569 19.736C264.686 24.2733 267.771 29.2852 269.854 34.7849L277.336 31.9511C274.886 25.4828 271.261 19.6147 266.493 14.36L260.569 19.736ZM269.854 34.7849C271.956 40.3336 272.995 45.929 272.995 51.592H280.995C280.995 44.9243 279.767 38.3704 277.336 31.9511L269.854 34.7849ZM272.995 51.592V54.584H280.995V51.592H272.995ZM272.995 54.584C272.995 59.6816 272.01 65.0216 269.972 70.625L277.49 73.359C279.805 66.9944 280.995 60.7291 280.995 54.584H272.995ZM269.979 70.6065C267.975 76.034 264.956 81.1666 260.879 86.0075L266.999 91.1605C271.626 85.6654 275.136 79.7366 277.484 73.3775L269.979 70.6065ZM260.902 85.9808C256.955 90.5862 251.894 94.3847 245.637 97.3441L249.057 104.576C256.219 101.189 262.22 96.7364 266.976 91.1872L260.902 85.9808ZM245.658 97.334C239.676 100.12 232.478 101.584 223.955 101.584V109.584C233.384 109.584 241.781 107.965 249.036 104.586L245.658 97.334ZM223.955 88.776C230.825 88.776 236.978 87.2263 242.247 83.9596L238.031 77.1604C234.234 79.515 229.597 80.776 223.955 80.776V88.776ZM242.217 83.9781C247.473 80.783 251.525 76.4212 254.311 70.9517L247.183 67.3203C245.073 71.4615 242.053 74.7156 238.061 77.1419L242.217 83.9781ZM254.311 70.9517C257.067 65.5418 258.419 59.6087 258.419 53.224H250.419C250.419 58.4446 249.323 63.1195 247.183 67.3203L254.311 70.9517ZM258.419 53.224C258.419 46.4977 257.03 40.388 254.133 35.0076L247.089 38.8004C249.269 42.8494 250.419 47.6196 250.419 53.224H258.419ZM254.175 35.0883C251.394 29.6284 247.388 25.3003 242.197 22.186L238.081 29.046C241.957 31.3717 244.932 34.5689 247.047 38.7197L254.175 35.0883ZM242.197 22.186C236.936 19.0296 230.802 17.536 223.955 17.536V25.536C229.62 25.536 234.275 26.7624 238.081 29.046L242.197 22.186ZM223.955 17.536C217.108 17.536 210.974 19.0296 205.713 22.186L209.829 29.046C213.635 26.7624 218.29 25.536 223.955 25.536V17.536ZM205.713 22.186C200.523 25.3003 196.516 29.6284 193.735 35.0883L200.863 38.7197C202.978 34.5689 205.953 31.3717 209.829 29.046L205.713 22.186ZM193.749 35.0607C190.961 40.4299 189.627 46.5203 189.627 53.224H197.627C197.627 47.597 198.741 42.8074 200.849 38.7473L193.749 35.0607ZM189.627 53.224C189.627 59.6087 190.979 65.5418 193.735 70.9517L200.863 67.3203C198.723 63.1195 197.627 58.4446 197.627 53.224H189.627ZM193.735 70.9517C196.511 76.4005 200.502 80.7594 205.663 83.9596L209.879 77.1604C205.974 74.7392 202.983 71.4821 200.863 67.3203L193.735 70.9517ZM205.663 83.9596C210.932 87.2263 217.085 88.776 223.955 88.776V80.776C218.313 80.776 213.677 79.515 209.879 77.1604L205.663 83.9596ZM293.894 103H289.894V107H293.894V103ZM293.894 2.90399V-1.09601H289.894V2.90399H293.894ZM362.438 11.336L359.988 14.4977L360 14.5073L360.013 14.5168L362.438 11.336ZM368.286 56.624L364.986 54.3631L364.982 54.3698L364.977 54.3765L368.286 56.624ZM354.55 67.504L353.016 63.81L348.367 65.7412L351.299 69.8337L354.55 67.504ZM379.982 103V107H387.769L383.234 100.67L379.982 103ZM354.142 103L350.84 105.258L352.032 107H354.142V103ZM332.382 71.176L335.684 68.9183L334.493 67.176H332.382V71.176ZM316.198 71.176V67.176H312.198V71.176H316.198ZM316.198 103V107H320.198V103H316.198ZM316.198 21.808V17.808H312.198V21.808H316.198ZM316.198 53.632H312.198V57.632H316.198V53.632ZM346.254 49.28L343.47 46.4084L343.448 46.4298L343.426 46.4516L346.254 49.28ZM346.254 26.296L343.383 29.0806L343.425 29.1248L343.47 29.1676L346.254 26.296ZM297.894 103V2.90399H289.894V103H297.894ZM293.894 6.90399H332.926V-1.09601H293.894V6.90399ZM332.926 6.90399C344.771 6.90399 353.647 9.5837 359.988 14.4977L364.888 8.17434C356.722 1.84562 345.924 -1.09601 332.926 -1.09601V6.90399ZM360.013 14.5168C366.06 19.1276 369.318 26.1141 369.318 36.224H377.318C377.318 24.2113 373.323 14.6057 364.864 8.15518L360.013 14.5168ZM369.318 36.224V38.4H377.318V36.224H369.318ZM369.318 38.4C369.318 45.0277 367.792 50.2682 364.986 54.3631L371.586 58.8849C375.49 53.1878 377.318 46.2789 377.318 38.4H369.318ZM364.977 54.3765C362.194 58.474 358.263 61.6303 353.016 63.81L356.085 71.198C362.624 68.4817 367.85 64.3846 371.595 58.8715L364.977 54.3765ZM351.299 69.8337L376.731 105.33L383.234 100.67L357.802 65.1743L351.299 69.8337ZM379.982 99H354.142V107H379.982V99ZM357.444 100.742L335.684 68.9183L329.08 73.4337L350.84 105.258L357.444 100.742ZM332.382 67.176H316.198V75.176H332.382V67.176ZM312.198 71.176V103H320.198V71.176H312.198ZM316.198 99H293.894V107H316.198V99ZM334.694 17.808H316.198V25.808H334.694V17.808ZM312.198 21.808V53.632H320.198V21.808H312.198ZM316.198 57.632H334.694V49.632H316.198V57.632ZM334.694 57.632C340.365 57.632 345.303 55.8879 349.083 52.1084L343.426 46.4516C341.403 48.4748 338.634 49.632 334.694 49.632V57.632ZM349.039 52.1516C352.928 48.38 354.742 43.4272 354.742 37.72H346.742C346.742 41.6234 345.564 44.3773 343.47 46.4084L349.039 52.1516ZM354.742 37.72C354.742 32.0787 352.913 27.1809 349.039 23.4244L343.47 29.1676C345.58 31.2138 346.742 33.932 346.742 37.72H354.742ZM349.126 23.5114C345.354 19.6219 340.401 17.808 334.694 17.808V25.808C338.598 25.808 341.352 26.986 343.383 29.0806L349.126 23.5114ZM393.238 103H389.238V107H393.238V103ZM393.238 3.72V-0.280003H389.238V3.72H393.238ZM454.71 3.72H458.71V-0.280003H454.71V3.72ZM454.71 22.216V26.216H458.71V22.216H454.71ZM414.998 22.216V18.216H410.998V22.216H414.998ZM414.998 43.296H410.998V47.296H414.998V43.296ZM452.534 43.296H456.534V39.296H452.534V43.296ZM452.534 61.792V65.792H456.534V61.792H452.534ZM414.998 61.792V57.792H410.998V61.792H414.998ZM414.998 84.504H410.998V88.504H414.998V84.504ZM455.662 84.504H459.662V80.504H455.662V84.504ZM455.662 103V107H459.662V103H455.662ZM397.238 103V3.72H389.238V103H397.238ZM393.238 7.72H454.71V-0.280003H393.238V7.72ZM450.71 3.72V22.216H458.71V3.72H450.71ZM454.71 18.216H414.998V26.216H454.71V18.216ZM410.998 22.216V43.296H418.998V22.216H410.998ZM414.998 47.296H452.534V39.296H414.998V47.296ZM448.534 43.296V61.792H456.534V43.296H448.534ZM452.534 57.792H414.998V65.792H452.534V57.792ZM410.998 61.792V84.504H418.998V61.792H410.998ZM414.998 88.504H455.662V80.504H414.998V88.504ZM451.662 84.504V103H459.662V84.504H451.662ZM455.662 99H393.238V107H455.662V99Z" fill="white"/>
</svg>
