<svg width="467" height="171" viewBox="0 0 467 171" fill="none" xmlns="http://www.w3.org/2000/svg">
<path d="M22.848 130.368L22.0184 132.188L22.0284 132.192L22.848 130.368ZM8.84 118.672L7.13881 119.724L7.14567 119.735L7.15268 119.746L8.84 118.672ZM4.216 101.536V99.536H2.216V101.536H4.216ZM25.84 101.536H27.84V99.536H25.84V101.536ZM30.464 111.6L29.0933 113.056L29.1153 113.077L29.1379 113.097L30.464 111.6ZM59.84 112.28L61.011 113.901L61.0256 113.891L61.04 113.88L59.84 112.28ZM60.656 95.416L59.5091 97.0545L59.5277 97.0675L59.5466 97.0801L60.656 95.416ZM47.464 91.744L47.2829 93.7358L47.2856 93.736L47.464 91.744ZM39.984 91.064L40.1651 89.0722L40.1568 89.0715L40.1486 89.0708L39.984 91.064ZM16.32 81.952L14.9758 83.4329L14.9821 83.4386L14.9884 83.4443L16.32 81.952ZM11.968 44.144L10.3039 43.0346L10.2963 43.046L10.2889 43.0575L11.968 44.144ZM24.752 33.536L25.5727 35.3598L25.5853 35.3542L25.5978 35.3484L24.752 33.536ZM64.056 33.808L63.1733 35.6027L63.1849 35.6083L64.056 33.808ZM76.976 45.232L75.2694 46.2749L75.2738 46.282L75.2782 46.2891L76.976 45.232ZM81.464 62.096V64.096H83.464V62.096H81.464ZM59.704 62.096H57.704V64.096H59.704V62.096ZM55.76 52.576L57.198 51.1859L57.198 51.1859L55.76 52.576ZM32.912 52.168L34.2993 53.6086L34.3129 53.5956L34.3262 53.5822L32.912 52.168ZM32.096 67.944L30.619 69.2925L30.6347 69.3097L30.6507 69.3264L32.096 67.944ZM42.024 71.616L42.2019 69.6239L42.1911 69.623L42.1804 69.6221L42.024 71.616ZM49.64 72.296L49.4621 74.2881L49.4657 74.2884L49.64 72.296ZM68.816 77.056L67.9817 78.8737L67.9941 78.8793L68.0065 78.8849L68.816 77.056ZM81.736 87.256L80.104 88.412L80.1177 88.4314L80.1319 88.4505L81.736 87.256ZM81.464 119.624L79.8241 118.479L79.8196 118.486L81.464 119.624ZM67.456 130.64L66.6616 128.805L66.6616 128.805L67.456 130.64ZM45.696 132.584C36.9192 132.584 29.5994 131.209 23.6676 128.544L22.0284 132.192C28.6086 135.149 36.5208 136.584 45.696 136.584V132.584ZM23.6776 128.548C17.8115 125.874 13.4638 122.213 10.5273 117.598L7.15268 119.746C10.5629 125.105 15.5539 129.241 22.0184 132.188L23.6776 128.548ZM10.5412 117.62C7.67276 112.98 6.216 107.64 6.216 101.536H2.216C2.216 108.307 3.8419 114.39 7.13881 119.724L10.5412 117.62ZM4.216 103.536H25.84V99.536H4.216V103.536ZM23.84 101.536C23.84 105.96 25.6586 109.824 29.0933 113.056L31.8347 110.144C29.104 107.574 27.84 104.728 27.84 101.536H23.84ZM29.1379 113.097C32.85 116.385 38.5213 117.816 45.696 117.816V113.816C38.908 113.816 34.4247 112.436 31.7901 110.103L29.1379 113.097ZM45.696 117.816C52.0721 117.816 57.2684 116.604 61.011 113.901L58.669 110.659C55.8836 112.67 51.6506 113.816 45.696 113.816V117.816ZM61.04 113.88C64.7658 111.086 66.736 107.384 66.736 102.896H62.736C62.736 106.024 61.4422 108.578 58.64 110.68L61.04 113.88ZM66.736 102.896C66.736 99.0301 65.0216 95.9227 61.7654 93.7519L59.5466 97.0801C61.7304 98.5359 62.736 100.415 62.736 102.896H66.736ZM61.8029 93.7775C58.6453 91.5672 53.8178 90.305 47.6424 89.752L47.2856 93.736C53.2595 94.271 57.2267 95.4568 59.5091 97.0545L61.8029 93.7775ZM47.6451 89.7522L40.1651 89.0722L39.8029 93.0558L47.2829 93.7358L47.6451 89.7522ZM40.1486 89.0708C30.5868 88.2813 23.1456 85.3621 17.6516 80.4597L14.9884 83.4443C21.281 89.0592 29.6159 92.2147 39.8194 93.0572L40.1486 89.0708ZM17.6642 80.4711C12.2396 75.5472 9.48 68.9943 9.48 60.6H5.48C5.48 69.9764 8.6137 77.6581 14.9758 83.4329L17.6642 80.4711ZM9.48 60.6C9.48 54.5787 10.895 49.4838 13.6471 45.2305L10.2889 43.0575C7.05697 48.0522 5.48 53.928 5.48 60.6H9.48ZM13.6321 45.2534C16.4909 40.9651 20.4492 37.6654 25.5727 35.3598L23.9313 31.7122C18.1748 34.3025 13.6104 38.0749 10.3039 43.0346L13.6321 45.2534ZM25.5978 35.3484C30.7176 32.9591 36.8536 31.728 44.064 31.728V27.728C36.4051 27.728 29.6664 29.0355 23.9062 31.7236L25.5978 35.3484ZM44.064 31.728C51.6342 31.728 57.9803 33.0487 63.1734 35.6027L64.9386 32.0133C59.0704 29.1273 52.0885 27.728 44.064 27.728V31.728ZM63.1849 35.6083C68.4926 38.1766 72.4951 41.7351 75.2694 46.2749L78.6826 44.1891C75.4729 38.9369 70.8621 34.8794 64.9271 32.0077L63.1849 35.6083ZM75.2782 46.2891C78.0467 50.7354 79.464 55.9798 79.464 62.096H83.464C83.464 55.3375 81.8893 49.3392 78.6738 44.1749L75.2782 46.2891ZM81.464 60.096H59.704V64.096H81.464V60.096ZM61.704 62.096C61.704 57.9263 60.1706 54.2611 57.198 51.1859L54.322 53.966C56.6081 56.3309 57.704 59.0123 57.704 62.096H61.704ZM57.198 51.1859C54.0702 47.9503 49.5698 46.496 44.064 46.496V50.496C48.8942 50.496 52.1912 51.7617 54.322 53.966L57.198 51.1859ZM44.064 46.496C38.7814 46.496 34.4593 47.7923 31.4978 50.7538L34.3262 53.5822C36.2607 51.6477 39.3732 50.496 44.064 50.496V46.496ZM31.5247 50.7274C28.7033 53.4443 27.24 56.7678 27.24 60.6H31.24C31.24 57.9041 32.2247 55.6064 34.2993 53.6086L31.5247 50.7274ZM27.24 60.6C27.24 63.9123 28.3803 66.8406 30.619 69.2925L33.573 66.5955C32.0037 64.8767 31.24 62.9091 31.24 60.6H27.24ZM30.6507 69.3264C33.1397 71.9285 37.0348 73.2308 41.8676 73.6099L42.1804 69.6221C37.7652 69.2758 35.0416 68.1301 33.5413 66.5616L30.6507 69.3264ZM41.8461 73.6081L49.4621 74.2881L49.8179 70.3039L42.2019 69.6239L41.8461 73.6081ZM49.4657 74.2884C56.5342 74.9069 62.6958 76.4473 67.9817 78.8737L69.6503 75.2383C63.8749 72.5873 57.2524 70.9544 49.8143 70.3036L49.4657 74.2884ZM68.0065 78.8849C73.2525 81.2068 77.2566 84.3922 80.104 88.412L83.3681 86.1C80.0501 81.4158 75.4408 77.8011 69.6255 75.2271L68.0065 78.8849ZM80.1319 88.4505C83.0084 92.3133 84.496 97.0894 84.496 102.896H88.496C88.496 96.3719 86.8102 90.7214 83.3401 86.0615L80.1319 88.4505ZM84.496 102.896C84.496 108.869 82.9247 114.038 79.8241 118.479L83.1039 120.769C86.7126 115.6 88.496 109.616 88.496 102.896H84.496ZM79.8196 118.486C76.7994 122.848 72.4473 126.3 66.6616 128.805L68.2504 132.475C74.614 129.721 79.6006 125.829 83.1084 120.762L79.8196 118.486ZM66.6616 128.805C60.8963 131.3 53.9267 132.584 45.696 132.584V136.584C54.3293 136.584 61.8664 135.239 68.2504 132.475L66.6616 128.805ZM118.661 132H116.661V134H118.661V132ZM118.661 52.168H120.661V50.168H118.661V52.168ZM90.7811 52.168H88.7811V54.168H90.7811V52.168ZM90.7811 32.72V30.72H88.7811V32.72H90.7811ZM168.981 32.72H170.981V30.72H168.981V32.72ZM168.981 52.168V54.168H170.981V52.168H168.981ZM140.965 52.168V50.168H138.965V52.168H140.965ZM140.965 132V134H142.965V132H140.965ZM120.661 132V52.168H116.661V132H120.661ZM118.661 50.168H90.7811V54.168H118.661V50.168ZM92.7811 52.168V32.72H88.7811V52.168H92.7811ZM90.7811 34.72H168.981V30.72H90.7811V34.72ZM166.981 32.72V52.168H170.981V32.72H166.981ZM168.981 50.168H140.965V54.168H168.981V50.168ZM138.965 52.168V132H142.965V52.168H138.965ZM140.965 130H118.661V134H140.965V130ZM204.427 129.96L203.562 131.763L203.577 131.771L203.592 131.777L204.427 129.96ZM187.971 117.584L186.441 118.872L186.447 118.879L186.453 118.886L187.971 117.584ZM178.179 100.992L176.291 101.65L176.297 101.668L176.303 101.685L178.179 100.992ZM178.315 62.368L176.445 61.6595L176.44 61.672L176.436 61.6845L178.315 62.368ZM188.379 46.048L189.86 47.392L189.866 47.3852L189.872 47.3784L188.379 46.048ZM204.971 34.216L205.774 36.0477L205.785 36.0431L205.795 36.0384L204.971 34.216ZM250.939 34.216L250.115 36.0384L250.126 36.0431L250.136 36.0477L250.939 34.216ZM267.531 46.048L266.038 47.3784L266.044 47.3852L266.05 47.392L267.531 46.048ZM277.595 62.368L279.465 61.6595L279.465 61.6595L277.595 62.368ZM277.731 100.992L279.607 101.685L279.611 101.675L277.731 100.992ZM267.939 117.584L269.458 118.886L269.463 118.879L269.469 118.872L267.939 117.584ZM251.347 129.96L252.192 131.773L252.202 131.768L251.347 129.96ZM244.139 109.56L243.1 107.851L243.093 107.856L243.085 107.86L244.139 109.56ZM254.747 98.136L252.965 97.2281L252.965 97.2281L254.747 98.136ZM254.611 65.904L252.829 66.8118L252.839 66.8321L252.85 66.8522L254.611 65.904ZM244.139 54.616L243.11 56.331L243.11 56.331L244.139 54.616ZM211.771 54.616L212.8 56.331L212.8 56.331L211.771 54.616ZM201.299 65.904L203.074 66.8256L203.078 66.8188L203.081 66.8118L201.299 65.904ZM201.299 98.136L203.081 97.2281L203.081 97.2281L201.299 98.136ZM211.771 109.56L212.825 107.86L212.825 107.86L211.771 109.56ZM227.955 132.584C219.206 132.584 211.659 131.082 205.262 128.143L203.592 131.777C210.614 135.003 218.752 136.584 227.955 136.584V132.584ZM205.292 128.157C198.899 125.091 193.644 121.129 189.49 116.282L186.453 118.886C191.002 124.194 196.718 128.482 203.562 131.763L205.292 128.157ZM189.501 116.296C185.287 111.291 182.145 105.96 180.055 100.299L176.303 101.685C178.565 107.811 181.952 113.541 186.441 118.872L189.501 116.296ZM180.068 100.334C178.047 94.5348 177.051 88.9547 177.051 83.584H173.051C173.051 89.456 174.141 95.4812 176.291 101.65L180.068 100.334ZM177.051 83.584V80.592H173.051V83.584H177.051ZM177.051 80.592C177.051 74.6674 178.096 68.8237 180.195 63.0515L176.436 61.6845C174.183 67.8803 173.051 74.1859 173.051 80.592H177.051ZM180.185 63.0765C182.36 57.3346 185.58 52.1087 189.86 47.392L186.898 44.704C182.293 49.7793 178.803 55.4334 176.445 61.6595L180.185 63.0765ZM189.872 47.3784C194.108 42.6237 199.397 38.8432 205.774 36.0477L204.168 32.3843C197.308 35.3915 191.535 39.4989 186.886 44.7176L189.872 47.3784ZM205.795 36.0384C212.109 33.1843 219.48 31.728 227.955 31.728V27.728C219.022 27.728 211.071 29.2637 204.147 32.3936L205.795 36.0384ZM227.955 31.728C236.43 31.728 243.802 33.1843 250.115 36.0384L251.763 32.3936C244.839 29.2637 236.888 27.728 227.955 27.728V31.728ZM250.136 36.0477C256.513 38.8432 261.802 42.6237 266.038 47.3784L269.024 44.7176C264.375 39.4989 258.602 35.3915 251.742 32.3843L250.136 36.0477ZM266.05 47.392C270.33 52.1087 273.55 57.3346 275.725 63.0765L279.465 61.6595C277.107 55.4334 273.618 49.7793 269.012 44.704L266.05 47.392ZM275.725 63.0765C277.909 68.8428 278.995 74.6779 278.995 80.592H282.995C282.995 74.1755 281.815 67.8612 279.465 61.6595L275.725 63.0765ZM278.995 80.592V83.584H282.995V80.592H278.995ZM278.995 83.584C278.995 88.9435 277.958 94.5148 275.852 100.309L279.611 101.675C281.856 95.5012 282.995 89.4672 282.995 83.584H278.995ZM275.855 100.299C273.765 105.96 270.624 111.291 266.409 116.296L269.469 118.872C273.959 113.541 277.345 107.811 279.607 101.685L275.855 100.299ZM266.421 116.282C262.271 121.124 256.975 125.086 250.492 128.152L252.202 131.768C259.138 128.488 264.903 124.199 269.458 118.886L266.421 116.282ZM250.503 128.147C244.202 131.082 236.705 132.584 227.955 132.584V136.584C237.157 136.584 245.255 135.004 252.192 131.773L250.503 128.147ZM227.955 115.776C234.518 115.776 240.292 114.298 245.193 111.26L243.085 107.86C238.92 110.443 233.904 111.776 227.955 111.776V115.776ZM245.178 111.269C250.118 108.266 253.912 104.181 256.529 99.0438L252.965 97.2281C250.686 101.701 247.408 105.232 243.1 107.851L245.178 111.269ZM256.529 99.0439C259.131 93.9363 260.419 88.3177 260.419 82.224H256.419C256.419 87.7356 255.259 92.7251 252.965 97.2281L256.529 99.0439ZM260.419 82.224C260.419 75.7782 259.09 70.0033 256.372 64.9558L252.85 66.8522C255.21 71.234 256.419 76.3391 256.419 82.224H260.419ZM256.393 64.9961C253.778 59.8635 250.03 55.8181 245.168 52.901L243.11 56.331C247.315 58.8539 250.548 62.3338 252.829 66.8118L256.393 64.9961ZM245.168 52.901C240.271 49.9628 234.507 48.536 227.955 48.536V52.536C233.916 52.536 238.94 53.8292 243.11 56.331L245.168 52.901ZM227.955 48.536C221.404 48.536 215.639 49.9628 210.742 52.901L212.8 56.331C216.97 53.8292 221.995 52.536 227.955 52.536V48.536ZM210.742 52.901C205.88 55.8181 202.132 59.8635 199.517 64.9961L203.081 66.8118C205.362 62.3338 208.595 58.8539 212.8 56.331L210.742 52.901ZM199.524 64.9824C196.906 70.0243 195.627 75.7895 195.627 82.224H199.627C199.627 76.3278 200.796 71.213 203.074 66.8256L199.524 64.9824ZM195.627 82.224C195.627 88.3177 196.915 93.9363 199.517 99.0439L203.081 97.2281C200.787 92.7251 199.627 87.7356 199.627 82.224H195.627ZM199.517 99.0438C202.129 104.171 205.87 108.254 210.717 111.26L212.825 107.86C208.606 105.244 205.365 101.712 203.081 97.2281L199.517 99.0438ZM210.717 111.26C215.618 114.298 221.392 115.776 227.955 115.776V111.776C222.006 111.776 216.991 110.443 212.825 107.86L210.717 111.26ZM297.894 132H295.894V134H297.894V132ZM297.894 31.904V29.904H295.894V31.904H297.894ZM366.438 40.336L365.213 41.9168L365.219 41.9216L365.226 41.9264L366.438 40.336ZM372.286 85.624L370.636 84.4935L370.632 84.5002L372.286 85.624ZM358.55 96.504L357.783 94.657L355.458 95.6226L356.924 97.6688L358.55 96.504ZM383.982 132V134H387.875L385.608 130.835L383.982 132ZM358.142 132L356.491 133.129L357.087 134H358.142V132ZM336.382 100.176L338.033 99.0471L337.437 98.176H336.382V100.176ZM320.198 100.176V98.176H318.198V100.176H320.198ZM320.198 132V134H322.198V132H320.198ZM320.198 50.808V48.808H318.198V50.808H320.198ZM320.198 82.632H318.198V84.632H320.198V82.632ZM350.254 78.28L348.862 76.8442L348.851 76.8549L348.84 76.8658L350.254 78.28ZM350.254 55.296L348.818 56.6883L348.84 56.7104L348.862 56.7318L350.254 55.296ZM299.894 132V31.904H295.894V132H299.894ZM297.894 33.904H336.926V29.904H297.894V33.904ZM336.926 33.904C349.059 33.904 358.416 36.6492 365.213 41.9168L367.663 38.7552C359.954 32.7801 349.636 29.904 336.926 29.904V33.904ZM365.226 41.9264C371.876 46.9971 375.318 54.6384 375.318 65.224H379.318C379.318 53.687 375.507 44.7362 367.651 38.7456L365.226 41.9264ZM375.318 65.224V67.4H379.318V65.224H375.318ZM375.318 67.4C375.318 74.3405 373.717 79.9981 370.636 84.4935L373.936 86.7545C377.565 81.4579 379.318 74.9661 379.318 67.4H375.318ZM370.632 84.5002C367.608 88.9517 363.353 92.3432 357.783 94.657L359.317 98.351C365.534 95.7688 370.436 91.907 373.941 86.7478L370.632 84.5002ZM356.924 97.6688L382.356 133.165L385.608 130.835L360.176 95.3392L356.924 97.6688ZM383.982 130H358.142V134H383.982V130ZM359.793 130.871L338.033 99.0471L334.731 101.305L356.491 133.129L359.793 130.871ZM336.382 98.176H320.198V102.176H336.382V98.176ZM318.198 100.176V132H322.198V100.176H318.198ZM320.198 130H297.894V134H320.198V130ZM338.694 48.808H320.198V52.808H338.694V48.808ZM318.198 50.808V82.632H322.198V50.808H318.198ZM320.198 84.632H338.694V80.632H320.198V84.632ZM338.694 84.632C343.932 84.632 348.328 83.0346 351.668 79.6942L348.84 76.8658C346.378 79.3281 343.067 80.632 338.694 80.632V84.632ZM351.646 79.7158C355.087 76.3793 356.742 71.9763 356.742 66.72H352.742C352.742 71.0744 351.405 74.378 348.862 76.8442L351.646 79.7158ZM356.742 66.72C356.742 61.542 355.079 57.1891 351.646 53.8602L348.862 56.7318C351.413 59.2055 352.742 62.4687 352.742 66.72H356.742ZM351.69 53.9037C348.354 50.463 343.95 48.808 338.694 48.808V52.808C343.049 52.808 346.352 54.145 348.818 56.6883L351.69 53.9037ZM397.238 132H395.238V134H397.238V132ZM397.238 32.72V30.72H395.238V32.72H397.238ZM458.71 32.72H460.71V30.72H458.71V32.72ZM458.71 51.216V53.216H460.71V51.216H458.71ZM418.998 51.216V49.216H416.998V51.216H418.998ZM418.998 72.296H416.998V74.296H418.998V72.296ZM456.534 72.296H458.534V70.296H456.534V72.296ZM456.534 90.792V92.792H458.534V90.792H456.534ZM418.998 90.792V88.792H416.998V90.792H418.998ZM418.998 113.504H416.998V115.504H418.998V113.504ZM459.662 113.504H461.662V111.504H459.662V113.504ZM459.662 132V134H461.662V132H459.662ZM399.238 132V32.72H395.238V132H399.238ZM397.238 34.72H458.71V30.72H397.238V34.72ZM456.71 32.72V51.216H460.71V32.72H456.71ZM458.71 49.216H418.998V53.216H458.71V49.216ZM416.998 51.216V72.296H420.998V51.216H416.998ZM418.998 74.296H456.534V70.296H418.998V74.296ZM454.534 72.296V90.792H458.534V72.296H454.534ZM456.534 88.792H418.998V92.792H456.534V88.792ZM416.998 90.792V113.504H420.998V90.792H416.998ZM418.998 115.504H459.662V111.504H418.998V115.504ZM457.662 113.504V132H461.662V113.504H457.662ZM459.662 130H397.238V134H459.662V130Z" fill="white"/>
</svg>
