<svg width="897" height="171" viewBox="0 0 897 171" fill="none" xmlns="http://www.w3.org/2000/svg">
<path d="M446.04 109L465.32 50.6H486.52L506.52 109H492.92L488.2 94.52H463.8L459.16 109H446.04ZM467.24 83.64H484.6L477.32 61.32H474.36L467.24 83.64ZM514.138 109V50.6H535.658L557.658 98.36H558.778V50.6H571.098V109H549.418L527.418 61.24H526.298V109H514.138ZM598.136 109V86.84H595.256L578.216 50.6H591.656L603.576 77H606.136L616.856 50.6H629.576L613.896 86.84H611.016V109H598.136Z" fill="#22CF7A"/>
<path d="M653.591 109V50.12H676.551C683.858 50.12 689.645 51.7733 693.911 55.08C698.178 58.3333 700.311 63.2133 700.311 69.72V71C700.311 75.2667 699.325 78.84 697.351 81.72C695.431 84.5467 692.738 86.68 689.271 88.12L704.231 109H689.031L676.231 90.28H666.711V109H653.591ZM677.591 61.24H666.711V79.96H677.591C680.418 79.96 682.685 79.1067 684.391 77.4C686.151 75.6933 687.031 73.4267 687.031 70.6C687.031 67.8267 686.151 65.5867 684.391 63.88C682.685 62.12 680.418 61.24 677.591 61.24ZM739.326 110.52C734.046 110.52 729.432 109.613 725.486 107.8C721.592 105.933 718.366 103.507 715.806 100.52C713.246 97.48 711.326 94.2267 710.046 90.76C708.819 87.24 708.206 83.8267 708.206 80.52V78.76C708.206 75.1333 708.846 71.56 710.126 68.04C711.459 64.52 713.432 61.32 716.046 58.44C718.659 55.5067 721.912 53.1867 725.806 51.48C729.699 49.72 734.206 48.84 739.326 48.84C744.446 48.84 748.952 49.72 752.846 51.48C756.739 53.1867 759.992 55.5067 762.606 58.44C765.219 61.32 767.192 64.52 768.526 68.04C769.859 71.56 770.526 75.1333 770.526 78.76V80.52C770.526 83.8267 769.886 87.24 768.606 90.76C767.326 94.2267 765.406 97.48 762.846 100.52C760.286 103.507 757.032 105.933 753.086 107.8C749.192 109.613 744.606 110.52 739.326 110.52ZM739.326 98.28C743.006 98.28 746.179 97.4533 748.846 95.8C751.566 94.1467 753.646 91.9067 755.086 89.08C756.526 86.2533 757.246 83.1333 757.246 79.72C757.246 76.0933 756.499 72.8933 755.006 70.12C753.566 67.2933 751.512 65.08 748.846 63.48C746.179 61.88 743.006 61.08 739.326 61.08C735.646 61.08 732.472 61.88 729.806 63.48C727.139 65.08 725.086 67.2933 723.646 70.12C722.206 72.8933 721.486 76.0933 721.486 79.72C721.486 83.1333 722.206 86.2533 723.646 89.08C725.086 91.9067 727.139 94.1467 729.806 95.8C732.472 97.4533 735.646 98.28 739.326 98.28ZM772.524 109L791.804 50.6H813.004L833.004 109H819.404L814.684 94.52H790.284L785.644 109H772.524ZM793.724 83.64H811.084L803.804 61.32H800.844L793.724 83.64ZM840.623 109.32V50.12H862.303C867.583 50.12 872.196 50.8933 876.143 52.44C880.089 53.9867 883.369 56.0933 885.983 58.76C888.649 61.4267 890.649 64.4933 891.983 67.96C893.316 71.3733 893.983 74.9733 893.983 78.76V80.52C893.983 84.0933 893.316 87.5867 891.983 91C890.649 94.4133 888.649 97.5067 885.983 100.28C883.369 103.053 880.089 105.267 876.143 106.92C872.196 108.52 867.583 109.32 862.303 109.32H840.623ZM863.023 62.36H853.743V97.08H863.023C868.516 97.08 872.836 95.48 875.983 92.28C879.129 89.08 880.703 84.8667 880.703 79.64C880.703 74.1467 879.129 69.9067 875.983 66.92C872.836 63.88 868.516 62.36 863.023 62.36Z" fill="white"/>
<path d="M30.872 132H26.872V136H30.872V132ZM30.872 52.168H34.872V48.168H30.872V52.168ZM2.992 52.168H-1.008V56.168H2.992V52.168ZM2.992 32.72V28.72H-1.008V32.72H2.992ZM81.192 32.72H85.192V28.72H81.192V32.72ZM81.192 52.168V56.168H85.192V52.168H81.192ZM53.176 52.168V48.168H49.176V52.168H53.176ZM53.176 132V136H57.176V132H53.176ZM34.872 132V52.168H26.872V132H34.872ZM30.872 48.168H2.992V56.168H30.872V48.168ZM6.992 52.168V32.72H-1.008V52.168H6.992ZM2.992 36.72H81.192V28.72H2.992V36.72ZM77.192 32.72V52.168H85.192V32.72H77.192ZM81.192 48.168H53.176V56.168H81.192V48.168ZM49.176 52.168V132H57.176V52.168H49.176ZM53.176 128H30.872V136H53.176V128ZM76.9399 132L73.1415 130.746L71.407 136H76.9399V132ZM109.716 32.72V28.72H106.824L105.918 31.466L109.716 32.72ZM145.756 32.72L149.54 31.424L148.614 28.72H145.756V32.72ZM179.756 132V136H185.354L183.54 130.704L179.756 132ZM156.636 132L152.833 133.24L153.733 136H156.636V132ZM148.612 107.384L152.415 106.144L151.515 103.384H148.612V107.384ZM107.132 107.384V103.384H104.213L103.323 106.163L107.132 107.384ZM99.2439 132V136H102.162L103.053 133.221L99.2439 132ZM112.98 88.888L109.169 87.6724L107.505 92.888H112.98V88.888ZM142.492 88.888V92.888H148.004L146.295 87.6476L142.492 88.888ZM130.116 50.944L133.919 49.7036L133.019 46.944H130.116V50.944ZM125.084 50.944V46.944H122.161L121.273 49.7284L125.084 50.944ZM80.7382 133.254L113.514 33.974L105.918 31.466L73.1415 130.746L80.7382 133.254ZM109.716 36.72H145.756V28.72H109.716V36.72ZM141.972 34.016L175.972 133.296L183.54 130.704L149.54 31.424L141.972 34.016ZM179.756 128H156.636V136H179.756V128ZM160.439 130.76L152.415 106.144L144.809 108.624L152.833 133.24L160.439 130.76ZM148.612 103.384H107.132V111.384H148.612V103.384ZM103.323 106.163L95.4347 130.779L103.053 133.221L110.941 108.605L103.323 106.163ZM99.2439 128H76.9399V136H99.2439V128ZM112.98 92.888H142.492V84.888H112.98V92.888ZM146.295 87.6476L133.919 49.7036L126.313 52.1843L138.689 90.1284L146.295 87.6476ZM130.116 46.944H125.084V54.944H130.116V46.944ZM121.273 49.7284L109.169 87.6724L116.791 90.1036L128.895 52.1596L121.273 49.7284ZM211.03 129.96L209.261 133.548L209.281 133.558L209.302 133.568L211.03 129.96ZM195.118 117.584L191.978 120.063L192.002 120.093L192.027 120.123L195.118 117.584ZM186.142 100.992L182.33 102.205L182.332 102.213L182.335 102.222L186.142 100.992ZM186.278 62.368L190.072 63.6329L190.075 63.6244L190.078 63.6159L186.278 62.368ZM195.389 45.912L192.345 43.3181L192.33 43.3346L192.317 43.3513L195.389 45.912ZM211.03 34.216L212.712 37.8447L212.724 37.8395L212.735 37.8341L211.03 34.216ZM257.134 34.76L255.364 38.3472L255.373 38.3519L255.383 38.3564L257.134 34.76ZM273.59 48.768L270.285 51.0213L270.296 51.0383L270.308 51.0552L273.59 48.768ZM281.07 69.576V73.576H285.505L285.048 69.1644L281.07 69.576ZM258.63 69.576L254.686 70.2434L255.25 73.576H258.63V69.576ZM250.334 55.704L247.913 58.8886L247.934 58.9041L247.954 58.9194L250.334 55.704ZM212.934 59.376L209.833 56.8482L209.829 56.8536L212.934 59.376ZM209.126 98.816L205.482 100.466L205.488 100.479L205.494 100.492L209.126 98.816ZM218.646 109.832L216.512 113.216L216.529 113.226L216.545 113.236L218.646 109.832ZM251.558 108.744L249.268 105.464L249.253 105.474L249.238 105.485L251.558 108.744ZM260.262 94.872V90.872H256.882L256.318 94.2046L260.262 94.872ZM282.566 94.872L286.541 95.3137L287.035 90.872H282.566V94.872ZM275.222 114.864L271.917 112.611L271.905 112.628L271.893 112.645L275.222 114.864ZM258.766 129.28L260.592 132.839L260.601 132.834L260.609 132.83L258.766 129.28ZM234.15 130.584C225.622 130.584 218.535 129.119 212.757 126.352L209.302 133.568C216.399 136.966 224.725 138.584 234.15 138.584V130.584ZM212.798 126.372C206.824 123.427 201.986 119.643 198.208 115.045L192.027 120.123C196.591 125.679 202.361 130.146 209.261 133.548L212.798 126.372ZM198.257 115.105C194.453 110.287 191.697 105.175 189.948 99.7623L182.335 102.222C184.394 108.596 187.622 114.545 191.978 120.063L198.257 115.105ZM189.953 99.7792C188.16 94.142 187.286 88.7487 187.286 83.584H179.286C179.286 89.662 180.315 95.874 182.33 102.205L189.953 99.7792ZM187.286 83.584V80.592H179.286V83.584H187.286ZM187.286 80.592C187.286 74.8665 188.21 69.2186 190.072 63.6329L182.483 61.1031C180.355 67.4854 179.286 73.9868 179.286 80.592H187.286ZM190.078 63.6159C191.916 58.0192 194.707 52.9797 198.462 48.4727L192.317 43.3513C187.912 48.6363 184.629 54.5674 182.477 61.1201L190.078 63.6159ZM198.434 48.5059C202.205 44.0802 206.941 40.5212 212.712 37.8447L209.347 30.5872C202.606 33.7135 196.916 37.9518 192.345 43.3181L198.434 48.5059ZM212.735 37.8341C218.441 35.1442 225.315 33.728 233.47 33.728V25.728C224.398 25.728 216.311 27.3038 209.324 30.5979L212.735 37.8341ZM233.47 33.728C241.944 33.728 249.207 35.3096 255.364 38.3472L258.903 31.1728C251.46 27.501 242.947 25.728 233.47 25.728V33.728ZM255.383 38.3564C261.685 41.4247 266.62 45.6464 270.285 51.0213L276.894 46.5146C272.399 39.9216 266.363 34.8046 258.884 31.1636L255.383 38.3564ZM270.308 51.0552C274.058 56.4354 276.338 62.7134 277.091 69.9876L285.048 69.1644C284.169 60.6626 281.463 53.0686 276.871 46.4808L270.308 51.0552ZM281.07 65.576H258.63V73.576H281.07V65.576ZM262.573 68.9086C261.415 62.0629 258.131 56.4979 252.713 52.4886L247.954 58.9194C251.603 61.6194 253.849 65.3024 254.686 70.2434L262.573 68.9086ZM252.754 52.5193C247.406 48.455 240.892 46.536 233.47 46.536V54.536C239.466 54.536 244.194 56.0623 247.913 58.8886L252.754 52.5193ZM233.47 46.536C223.608 46.536 215.531 49.8611 209.833 56.8482L216.034 61.9037C219.947 57.1042 225.56 54.536 233.47 54.536V46.536ZM209.829 56.8536C204.397 63.5389 201.862 72.1213 201.862 82.224H209.862C209.862 73.4681 212.04 66.8184 216.038 61.8984L209.829 56.8536ZM201.862 82.224C201.862 88.9446 203.031 95.0549 205.482 100.466L212.769 97.166C210.868 92.9664 209.862 88.0154 209.862 82.224H201.862ZM205.494 100.492C207.976 105.87 211.652 110.152 216.512 113.216L220.779 106.448C217.298 104.254 214.627 101.192 212.757 97.1398L205.494 100.492ZM216.545 113.236C221.56 116.331 227.492 117.776 234.15 117.776V109.776C228.658 109.776 224.253 108.592 220.746 106.428L216.545 113.236ZM234.15 117.776C241.709 117.776 248.363 115.926 253.877 112.003L249.238 105.485C245.322 108.271 240.371 109.776 234.15 109.776V117.776ZM253.847 112.024C259.551 108.042 263.033 102.466 264.205 95.5394L256.318 94.2046C255.495 99.0642 253.174 102.737 249.268 105.464L253.847 112.024ZM260.262 98.872H282.566V90.872H260.262V98.872ZM278.59 94.4303C277.845 101.138 275.621 107.178 271.917 112.611L278.526 117.117C282.982 110.582 285.654 103.294 286.541 95.3137L278.59 94.4303ZM271.893 112.645C268.313 118.016 263.361 122.385 256.922 125.73L260.609 132.83C268.132 128.922 274.151 123.68 278.55 117.083L271.893 112.645ZM256.939 125.721C250.729 128.908 243.178 130.584 234.15 130.584V138.584C244.161 138.584 253.021 136.724 260.592 132.839L256.939 125.721ZM297.363 132H293.363V136H297.363V132ZM297.363 32.72V28.72H293.363V32.72H297.363ZM319.667 32.72H323.667V28.72H319.667V32.72ZM319.667 79.096H315.667V90.6251L322.807 81.5734L319.667 79.096ZM356.251 32.72V28.72H354.312L353.11 30.2426L356.251 32.72ZM381.819 32.72L384.961 35.1957L390.063 28.72H381.819V32.72ZM347.955 75.696L344.813 73.2203L342.924 75.6184L344.738 78.0736L347.955 75.696ZM389.571 132V136H397.502L392.788 129.622L389.571 132ZM362.643 132L359.426 134.377L360.625 136H362.643V132ZM328.371 85.624L331.588 83.2467L330.389 81.624H328.371V85.624ZM319.667 85.624V81.624H315.667V85.624H319.667ZM319.667 132V136H323.667V132H319.667ZM301.363 132V32.72H293.363V132H301.363ZM297.363 36.72H319.667V28.72H297.363V36.72ZM315.667 32.72V79.096H323.667V32.72H315.667ZM322.807 81.5734L359.391 35.1974L353.11 30.2426L316.526 76.6186L322.807 81.5734ZM356.251 36.72H381.819V28.72H356.251V36.72ZM378.677 30.2443L344.813 73.2203L351.097 78.1717L384.961 35.1957L378.677 30.2443ZM344.738 78.0736L386.354 134.378L392.788 129.622L351.172 73.3184L344.738 78.0736ZM389.571 128H362.643V136H389.571V128ZM365.86 129.623L331.588 83.2467L325.154 88.0013L359.426 134.377L365.86 129.623ZM328.371 81.624H319.667V89.624H328.371V81.624ZM315.667 85.624V132H323.667V85.624H315.667ZM319.667 128H297.363V136H319.667V128ZM399.629 132H395.629V136H399.629V132ZM399.629 32.72V28.72H395.629V32.72H399.629ZM421.933 32.72H425.933V28.72H421.933V32.72ZM421.933 112.416H417.933V116.416H421.933V112.416ZM460.829 112.416H464.829V108.416H460.829V112.416ZM460.829 132V136H464.829V132H460.829ZM403.629 132V32.72H395.629V132H403.629ZM399.629 36.72H421.933V28.72H399.629V36.72ZM417.933 32.72V112.416H425.933V32.72H417.933ZM421.933 116.416H460.829V108.416H421.933V116.416ZM456.829 112.416V132H464.829V112.416H456.829ZM460.829 128H399.629V136H460.829V128ZM475.465 132H471.465V136H475.465V132ZM475.465 32.72V28.72H471.465V32.72H475.465ZM536.937 32.72H540.937V28.72H536.937V32.72ZM536.937 51.216V55.216H540.937V51.216H536.937ZM497.225 51.216V47.216H493.225V51.216H497.225ZM497.225 72.296H493.225V76.296H497.225V72.296ZM534.761 72.296H538.761V68.296H534.761V72.296ZM534.761 90.792V94.792H538.761V90.792H534.761ZM497.225 90.792V86.792H493.225V90.792H497.225ZM497.225 113.504H493.225V117.504H497.225V113.504ZM537.889 113.504H541.889V109.504H537.889V113.504ZM537.889 132V136H541.889V132H537.889ZM479.465 132V32.72H471.465V132H479.465ZM475.465 36.72H536.937V28.72H475.465V36.72ZM532.937 32.72V51.216H540.937V32.72H532.937ZM536.937 47.216H497.225V55.216H536.937V47.216ZM493.225 51.216V72.296H501.225V51.216H493.225ZM497.225 76.296H534.761V68.296H497.225V76.296ZM530.761 72.296V90.792H538.761V72.296H530.761ZM534.761 86.792H497.225V94.792H534.761V86.792ZM493.225 90.792V113.504H501.225V90.792H493.225ZM497.225 117.504H537.889V109.504H497.225V117.504ZM533.889 113.504V132H541.889V113.504H533.889ZM537.889 128H475.465V136H537.889V128Z" fill="white"/>
</svg>
