<svg width="221" height="45" viewBox="0 0 221 45" fill="none" xmlns="http://www.w3.org/2000/svg">
<path d="M11.712 43H9.712V45H11.712V43ZM11.712 10.128H13.712V8.128H11.712V10.128ZM0.232 10.128H-1.768V12.128H0.232V10.128ZM0.232 2.12V0.119999H-1.768V2.12H0.232ZM32.432 2.12H34.432V0.119999H32.432V2.12ZM32.432 10.128V12.128H34.432V10.128H32.432ZM20.896 10.128V8.128H18.896V10.128H20.896ZM20.896 43V45H22.896V43H20.896ZM13.712 43V10.128H9.712V43H13.712ZM11.712 8.128H0.232V12.128H11.712V8.128ZM2.232 10.128V2.12H-1.768V10.128H2.232ZM0.232 4.12H32.432V0.119999H0.232V4.12ZM30.432 2.12V10.128H34.432V2.12H30.432ZM32.432 8.128H20.896V12.128H32.432V8.128ZM18.896 10.128V43H22.896V10.128H18.896ZM20.896 41H11.712V45H20.896V41ZM30.6811 43L28.7819 42.373L27.9147 45H30.6811V43ZM44.1771 2.12V0.119999H42.7312L42.2779 1.49301L44.1771 2.12ZM59.0171 2.12L60.9092 1.47201L60.4462 0.119999H59.0171V2.12ZM73.0171 43V45H75.8161L74.9092 42.352L73.0171 43ZM63.4971 43L61.5956 43.6198L62.0455 45H63.4971V43ZM60.1931 32.864L62.0947 32.2442L61.6448 30.864H60.1931V32.864ZM43.1131 32.864V30.864H41.6538L41.2085 32.2537L43.1131 32.864ZM39.8651 43V45H41.3244L41.7697 43.6103L39.8651 43ZM45.5211 25.248L43.6157 24.6402L42.7838 27.248H45.5211V25.248ZM57.6731 25.248V27.248H60.4292L59.5745 24.6278L57.6731 25.248ZM52.5771 9.624L54.4785 9.00382L54.0285 7.624H52.5771V9.624ZM50.5051 9.624V7.624H49.0438L48.5997 9.01618L50.5051 9.624ZM32.5803 43.627L46.0763 2.74699L42.2779 1.49301L28.7819 42.373L32.5803 43.627ZM44.1771 4.12H59.0171V0.119999H44.1771V4.12ZM57.125 2.76798L71.125 43.648L74.9092 42.352L60.9092 1.47201L57.125 2.76798ZM73.0171 41H63.4971V45H73.0171V41ZM65.3987 42.3802L62.0947 32.2442L58.2916 33.4838L61.5956 43.6198L65.3987 42.3802ZM60.1931 30.864H43.1131V34.864H60.1931V30.864ZM41.2085 32.2537L37.9605 42.3897L41.7697 43.6103L45.0177 33.4743L41.2085 32.2537ZM39.8651 41H30.6811V45H39.8651V41ZM45.5211 27.248H57.6731V23.248H45.5211V27.248ZM59.5745 24.6278L54.4785 9.00382L50.6757 10.2442L55.7717 25.8682L59.5745 24.6278ZM52.5771 7.624H50.5051V11.624H52.5771V7.624ZM48.5997 9.01618L43.6157 24.6402L47.4265 25.8558L52.4105 10.2318L48.5997 9.01618ZM85.8945 42.16L85.0102 43.9539L85.0204 43.9589L85.0307 43.9638L85.8945 42.16ZM79.3425 37.064L77.7727 38.3033L77.7847 38.3185L77.797 38.3335L79.3425 37.064ZM75.6465 30.232L73.7406 30.8384L73.7434 30.8469L75.6465 30.232ZM75.7025 14.328L77.5999 14.9605L77.6027 14.9519L75.7025 14.328ZM79.4545 7.552L77.932 6.25507L77.925 6.26331L77.9181 6.27163L79.4545 7.552ZM85.8945 2.736L86.736 4.55041L86.7473 4.54505L85.8945 2.736ZM104.879 2.96L103.994 4.75363L104.003 4.75822L104.879 2.96ZM111.655 8.728L110.002 9.85467L110.008 9.86316L110.014 9.87158L111.655 8.728ZM114.735 17.296V19.296H116.952L116.724 17.0902L114.735 17.296ZM105.495 17.296L103.523 17.6297L103.805 19.296H105.495V17.296ZM102.079 11.584L100.868 13.1763L100.879 13.1841L100.889 13.1917L102.079 11.584ZM86.6785 13.096L85.1285 11.8321L85.1263 11.8348L86.6785 13.096ZM85.1105 29.336L83.2886 30.161L83.2916 30.1676L83.2946 30.1741L85.1105 29.336ZM89.0305 33.872L87.9639 35.5639L87.9721 35.569L87.9803 35.5741L89.0305 33.872ZM102.583 33.424L101.438 31.7841L101.43 31.7892L101.423 31.7944L102.583 33.424ZM106.167 27.712V25.712H104.477L104.195 27.3783L106.167 27.712ZM115.351 27.712L117.338 27.9329L117.585 25.712H115.351V27.712ZM112.327 35.944L110.674 34.8173L110.668 34.8259L110.662 34.8346L112.327 35.944ZM105.551 41.88L106.464 43.6594L106.472 43.6548L105.551 41.88ZM95.4145 42.064C91.9426 42.064 89.0791 41.4675 86.7583 40.3562L85.0307 43.9638C88.0113 45.3912 91.4944 46.064 95.4145 46.064V42.064ZM86.7788 40.3661C84.3595 39.1735 82.4086 37.6457 80.888 35.7945L77.797 38.3335C79.7111 40.6636 82.1282 42.5332 85.0102 43.9539L86.7788 40.3661ZM80.9123 35.8247C79.3703 33.8715 78.256 31.8035 77.5496 29.6171L73.7434 30.8469C74.605 33.5138 75.9547 36.0005 77.7727 38.3033L80.9123 35.8247ZM77.5524 29.6256C76.8235 27.335 76.4705 25.1504 76.4705 23.064H72.4705C72.4705 25.607 72.9015 28.201 73.7406 30.8384L77.5524 29.6256ZM76.4705 23.064V21.832H72.4705V23.064H76.4705ZM76.4705 21.832C76.4705 19.5133 76.8449 17.2253 77.5999 14.9605L73.8051 13.6955C72.9174 16.3587 72.4705 19.0734 72.4705 21.832H76.4705ZM77.6027 14.9519C78.3455 12.6896 79.4731 10.6538 80.9909 8.83237L77.9181 6.27163C76.0759 8.48217 74.7021 10.9637 73.8023 13.7041L77.6027 14.9519ZM80.977 8.84893C82.494 7.06808 84.4024 5.6326 86.736 4.55037L85.0531 0.921621C82.2346 2.22873 79.8497 4.00392 77.932 6.25507L80.977 8.84893ZM86.7473 4.54505C89.0403 3.46408 91.817 2.888 95.1345 2.888V-1.112C91.3586 -1.112 87.9754 -0.456082 85.0417 0.926946L86.7473 4.54505ZM95.1345 2.888C98.5796 2.888 101.515 3.53082 103.994 4.75361L105.763 1.16639C102.642 -0.373493 99.0814 -1.112 95.1345 -1.112V2.888ZM104.003 4.75822C106.546 5.99635 108.53 7.69521 110.002 9.85467L113.307 7.60132C111.419 4.83279 108.885 2.68632 105.754 1.16178L104.003 4.75822ZM110.014 9.87158C111.521 12.0337 112.441 14.5607 112.745 17.5018L116.724 17.0902C116.356 13.5353 115.223 10.3503 113.295 7.58441L110.014 9.87158ZM114.735 15.296H105.495V19.296H114.735V15.296ZM107.466 16.9623C106.975 14.0595 105.577 11.6849 103.268 9.97631L100.889 13.1917C102.313 14.2457 103.192 15.6792 103.523 17.6297L107.466 16.9623ZM103.289 9.99167C101.015 8.26351 98.2535 7.456 95.1345 7.456V11.456C97.5408 11.456 99.4089 12.0672 100.868 13.1763L103.289 9.99167ZM95.1345 7.456C90.9879 7.456 87.5531 8.85855 85.1285 11.8321L88.2285 14.3599C89.7613 12.4801 91.9638 11.456 95.1345 11.456V7.456ZM85.1263 11.8348C82.8264 14.6654 81.7665 18.2846 81.7665 22.504H85.7665C85.7665 18.958 86.6479 16.3052 88.2307 14.3572L85.1263 11.8348ZM81.7665 22.504C81.7665 25.3123 82.2554 27.8795 83.2886 30.161L86.9324 28.511C86.1736 26.8352 85.7665 24.8477 85.7665 22.504H81.7665ZM83.2946 30.1741C84.3435 32.4468 85.9017 34.2638 87.9639 35.5639L90.0971 32.1801C88.7246 31.3149 87.6695 30.1078 86.9264 28.4979L83.2946 30.1741ZM87.9803 35.5741C90.112 36.8894 92.6216 37.496 95.4145 37.496V33.496C93.2047 33.496 91.4584 33.02 90.0807 32.1699L87.9803 35.5741ZM95.4145 37.496C98.5862 37.496 101.401 36.719 103.742 35.0536L101.423 31.7944C99.881 32.8916 97.9175 33.496 95.4145 33.496V37.496ZM103.727 35.0639C106.155 33.3689 107.64 30.9892 108.138 28.0457L104.195 27.3783C103.871 29.2881 102.967 30.7165 101.438 31.7841L103.727 35.0639ZM106.167 29.712H115.351V25.712H106.167V29.712ZM113.363 27.4911C113.062 30.1972 112.166 32.629 110.674 34.8173L113.979 37.0707C115.847 34.331 116.967 31.2748 117.338 27.9329L113.363 27.4911ZM110.662 34.8346C109.224 36.9919 107.232 38.7525 104.629 40.1052L106.472 43.6548C109.618 42.0208 112.143 39.8241 113.991 37.0534L110.662 34.8346ZM104.637 40.1006C102.14 41.3821 99.0886 42.064 95.4145 42.064V46.064C99.5804 46.064 103.286 45.2899 106.464 43.6594L104.637 40.1006ZM121.444 43H119.444V45H121.444V43ZM121.444 2.12V0.119999H119.444V2.12H121.444ZM130.628 2.12H132.628V0.119999H130.628V2.12ZM130.628 21.216H128.628V26.9805L132.198 22.4547L130.628 21.216ZM145.692 2.12V0.119999H144.722L144.121 0.881308L145.692 2.12ZM156.22 2.12L157.79 3.35784L160.342 0.119999H156.22V2.12ZM142.276 19.816L140.705 18.5782L139.76 19.7772L140.667 21.0048L142.276 19.816ZM159.412 43V45H163.377L161.02 41.8112L159.412 43ZM148.324 43L146.715 44.1886L147.315 45H148.324V43ZM134.212 23.904L135.82 22.7153L135.22 21.904H134.212V23.904ZM130.628 23.904V21.904H128.628V23.904H130.628ZM130.628 43V45H132.628V43H130.628ZM123.444 43V2.12H119.444V43H123.444ZM121.444 4.12H130.628V0.119999H121.444V4.12ZM128.628 2.12V21.216H132.628V2.12H128.628ZM132.198 22.4547L147.262 3.35869L144.121 0.881308L129.057 19.9773L132.198 22.4547ZM145.692 4.12H156.22V0.119999H145.692V4.12ZM154.649 0.882162L140.705 18.5782L143.846 21.0538L157.79 3.35784L154.649 0.882162ZM140.667 21.0048L157.803 44.1888L161.02 41.8112L143.884 18.6272L140.667 21.0048ZM159.412 41H148.324V45H159.412V41ZM149.932 41.8114L135.82 22.7153L132.603 25.0926L146.715 44.1886L149.932 41.8114ZM134.212 21.904H130.628V25.904H134.212V21.904ZM128.628 23.904V43H132.628V23.904H128.628ZM130.628 41H121.444V45H130.628V41ZM163.553 43H161.553V45H163.553V43ZM163.553 2.12V0.119999H161.553V2.12H163.553ZM172.737 2.12H174.737V0.119999H172.737V2.12ZM172.737 34.936H170.737V36.936H172.737V34.936ZM188.753 34.936H190.753V32.936H188.753V34.936ZM188.753 43V45H190.753V43H188.753ZM165.553 43V2.12H161.553V43H165.553ZM163.553 4.12H172.737V0.119999H163.553V4.12ZM170.737 2.12V34.936H174.737V2.12H170.737ZM172.737 36.936H188.753V32.936H172.737V36.936ZM186.753 34.936V43H190.753V34.936H186.753ZM188.753 41H163.553V45H188.753V41ZM194.78 43H192.78V45H194.78V43ZM194.78 2.12V0.119999H192.78V2.12H194.78ZM220.092 2.12H222.092V0.119999H220.092V2.12ZM220.092 9.736V11.736H222.092V9.736H220.092ZM203.74 9.736V7.736H201.74V9.736H203.74ZM203.74 18.416H201.74V20.416H203.74V18.416ZM219.196 18.416H221.196V16.416H219.196V18.416ZM219.196 26.032V28.032H221.196V26.032H219.196ZM203.74 26.032V24.032H201.74V26.032H203.74ZM203.74 35.384H201.74V37.384H203.74V35.384ZM220.484 35.384H222.484V33.384H220.484V35.384ZM220.484 43V45H222.484V43H220.484ZM196.78 43V2.12H192.78V43H196.78ZM194.78 4.12H220.092V0.119999H194.78V4.12ZM218.092 2.12V9.736H222.092V2.12H218.092ZM220.092 7.736H203.74V11.736H220.092V7.736ZM201.74 9.736V18.416H205.74V9.736H201.74ZM203.74 20.416H219.196V16.416H203.74V20.416ZM217.196 18.416V26.032H221.196V18.416H217.196ZM219.196 24.032H203.74V28.032H219.196V24.032ZM201.74 26.032V35.384H205.74V26.032H201.74ZM203.74 37.384H220.484V33.384H203.74V37.384ZM218.484 35.384V43H222.484V35.384H218.484ZM220.484 41H194.78V45H220.484V41Z" fill="white"/>
</svg>
