<svg width="577" height="63" viewBox="0 0 577 63" fill="none" xmlns="http://www.w3.org/2000/svg">
<path d="M20.48 61V38.84H17.6L0.56 2.6H14L25.92 29H28.48L39.2 2.6H51.92L36.24 38.84H33.36V61H20.48ZM84.9506 62.52C79.6706 62.52 75.0573 61.6133 71.1106 59.8C67.2173 57.9333 63.9906 55.5067 61.4306 52.52C58.8706 49.48 56.9506 46.2267 55.6706 42.76C54.444 39.24 53.8306 35.8267 53.8306 32.52V30.76C53.8306 27.1333 54.4706 23.56 55.7506 20.04C57.084 16.52 59.0573 13.32 61.6706 10.44C64.284 7.50666 67.5373 5.18666 71.4306 3.48C75.324 1.72 79.8306 0.839997 84.9506 0.839997C90.0706 0.839997 94.5773 1.72 98.4706 3.48C102.364 5.18666 105.617 7.50666 108.231 10.44C110.844 13.32 112.817 16.52 114.151 20.04C115.484 23.56 116.151 27.1333 116.151 30.76V32.52C116.151 35.8267 115.511 39.24 114.231 42.76C112.951 46.2267 111.031 49.48 108.471 52.52C105.911 55.5067 102.657 57.9333 98.7106 59.8C94.8173 61.6133 90.2306 62.52 84.9506 62.52ZM84.9506 50.28C88.6306 50.28 91.804 49.4533 94.4706 47.8C97.1906 46.1467 99.2706 43.9067 100.711 41.08C102.151 38.2533 102.871 35.1333 102.871 31.72C102.871 28.0933 102.124 24.8933 100.631 22.12C99.1906 19.2933 97.1373 17.08 94.4706 15.48C91.804 13.88 88.6306 13.08 84.9506 13.08C81.2706 13.08 78.0973 13.88 75.4306 15.48C72.764 17.08 70.7106 19.2933 69.2706 22.12C67.8306 24.8933 67.1106 28.0933 67.1106 31.72C67.1106 35.1333 67.8306 38.2533 69.2706 41.08C70.7106 43.9067 72.764 46.1467 75.4306 47.8C78.0973 49.4533 81.2706 50.28 84.9506 50.28ZM150.571 62.52C145.078 62.52 140.411 61.5067 136.571 59.48C132.785 57.4 129.905 54.4667 127.931 50.68C125.958 46.8933 124.971 42.4133 124.971 37.24V2.6H138.091V37.72C138.091 41.56 139.158 44.6267 141.291 46.92C143.478 49.16 146.571 50.28 150.571 50.28C154.571 50.28 157.638 49.16 159.771 46.92C161.958 44.68 163.051 41.6133 163.051 37.72V2.6H176.171V37.24C176.171 42.4133 175.185 46.8933 173.211 50.68C171.238 54.4667 168.358 57.4 164.571 59.48C160.785 61.5067 156.118 62.52 150.571 62.52ZM188.201 61V2.12H211.161C218.467 2.12 224.254 3.77333 228.521 7.08C232.787 10.3333 234.921 15.2133 234.921 21.72V23C234.921 27.2667 233.934 30.84 231.961 33.72C230.041 36.5467 227.347 38.68 223.881 40.12L238.841 61H223.641L210.841 42.28H201.321V61H188.201ZM212.201 13.24H201.321V31.96H212.201C215.027 31.96 217.294 31.1067 219.001 29.4C220.761 27.6933 221.641 25.4267 221.641 22.6C221.641 19.8267 220.761 17.5867 219.001 15.88C217.294 14.12 215.027 13.24 212.201 13.24Z" fill="#22CF7A"/>
<path d="M263.435 61V2.6H298.475V13.48H276.555V26.6H297.515V37.48H276.555V61H263.435ZM332.681 62.52C327.187 62.52 322.521 61.5067 318.681 59.48C314.894 57.4 312.014 54.4667 310.041 50.68C308.067 46.8933 307.081 42.4133 307.081 37.24V2.6H320.201V37.72C320.201 41.56 321.267 44.6267 323.401 46.92C325.587 49.16 328.681 50.28 332.681 50.28C336.681 50.28 339.747 49.16 341.881 46.92C344.067 44.68 345.161 41.6133 345.161 37.72V2.6H358.281V37.24C358.281 42.4133 357.294 46.8933 355.321 50.68C353.347 54.4667 350.467 57.4 346.681 59.48C342.894 61.5067 338.227 62.52 332.681 62.52ZM381.754 61V14.04H365.354V2.6H411.354V14.04H394.874V61H381.754ZM443.931 62.52C438.437 62.52 433.771 61.5067 429.931 59.48C426.144 57.4 423.264 54.4667 421.291 50.68C419.317 46.8933 418.331 42.4133 418.331 37.24V2.6H431.451V37.72C431.451 41.56 432.517 44.6267 434.651 46.92C436.837 49.16 439.931 50.28 443.931 50.28C447.931 50.28 450.997 49.16 453.131 46.92C455.317 44.68 456.411 41.6133 456.411 37.72V2.6H469.531V37.24C469.531 42.4133 468.544 46.8933 466.571 50.68C464.597 54.4667 461.717 57.4 457.931 59.48C454.144 61.5067 449.477 62.52 443.931 62.52ZM481.56 61V2.12H504.52C511.827 2.12 517.613 3.77333 521.88 7.08C526.147 10.3333 528.28 15.2133 528.28 21.72V23C528.28 27.2667 527.293 30.84 525.32 33.72C523.4 36.5467 520.707 38.68 517.24 40.12L532.2 61H517L504.2 42.28H494.68V61H481.56ZM505.56 13.24H494.68V31.96H505.56C508.387 31.96 510.653 31.1067 512.36 29.4C514.12 27.6933 515 25.4267 515 22.6C515 19.8267 514.12 17.5867 512.36 15.88C510.653 14.12 508.387 13.24 505.56 13.24ZM539.998 61V2.6H576.158V13.48H552.798V25.88H574.878V36.76H552.798V50.12H576.718V61H539.998Z" fill="white"/>
</svg>
